<?xml version="1.0" standalone="no"?>
<!DOCTYPE svg PUBLIC "-//W3C//DTD SVG 1.1//EN" "http://www.w3.org/Graphics/SVG/1.1/DTD/svg11.dtd" >
<svg>
<metadata>
Created by FontForge 20120731 at Fri Oct 10 12:36:10 2014
 By World Wide Web Server
Copyright (c) 2012, CDAC-GIST, INDIA. Sakal Marathi Normal Open Type Font. Licensed to Government of Maharashtra under CoE for Marathi.
</metadata>
<defs>
<font id="SakalMarathi-Normal" horiz-adv-x="0" >
  <font-face 
    font-family="Sakal Marathi"
    font-weight="400"
    font-stretch="normal"
    units-per-em="2048"
    panose-1="2 0 4 0 0 0 0 0 0 0"
    ascent="1638"
    descent="-410"
    x-height="1047"
    cap-height="1413"
    bbox="-1428 -1025 2715 3170"
    underline-thickness="20"
    underline-position="-123"
    unicode-range="U+0020-E16E"
  />
<missing-glyph horiz-adv-x="1024" 
d="M128 0v3170h768v-3170h-768zM256 128h512v2914h-512v-2914z" />
    <glyph glyph-name=".notdef" horiz-adv-x="1024" 
d="M128 0v3170h768v-3170h-768zM256 128h512v2914h-512v-2914z" />
    <glyph glyph-name="NULL" unicode="&#x2dd;" 
 />
    <glyph glyph-name="nonmarkingreturn" horiz-adv-x="524" 
 />
    <glyph glyph-name="space" unicode=" " horiz-adv-x="524" 
 />
    <glyph glyph-name="exclam" unicode="!" horiz-adv-x="603" 
d="M500 0h-187v191h187v-191zM509 1079l-24 -743h-126v743l-29 417h179v-417z" />
    <glyph glyph-name="quotedbl" unicode="&#x22;" horiz-adv-x="729" 
d="M729 1440q0 -66 -84 -465h-55q-81 399 -81 465q0 48 30 80t82 32q51 0 79.5 -32t28.5 -80zM345 1440q0 -66 -84 -465h-51q-84 399 -84 465q0 48 30 80t81 32q48 0 78 -32t30 -80z" />
    <glyph glyph-name="numbersign" unicode="#" horiz-adv-x="1518" 
d="M1376 456h-342l-122 -536h-138l117 534h-388l-125 -534h-142l117 534h-204v134h229l85 354h-314v136h337l125 537h141l-116 -535h388l120 535h144l-117 -535h205v-134h-232l-84 -354h316v-136zM995 942h-389l-77 -350h387z" />
    <glyph glyph-name="dollar" unicode="$" horiz-adv-x="1130" 
d="M1054 408q0 -88 -35 -162.5t-96 -128.5t-144 -85t-179 -32v-167h-107v171q-113 13 -195.5 49t-137.5 97.5t-83.5 150t-33.5 205.5h156q0 -327 294 -370v553q-203 47 -289 115q-124 97 -124 289q0 85 31 157t86 124.5t130.5 83t165.5 32.5v156h107v-156q89 -3 165 -36.5
t131.5 -91.5t86.5 -136.5t31 -171.5v-18h-151q-1 70 -19.5 128t-52.5 100t-82.5 66t-108.5 27v-539q210 -44 309 -116q145 -106 145 -294zM493 845v512q-126 -5 -192.5 -77t-66.5 -200q0 -48 11.5 -84t41 -63.5t79.5 -48.5t127 -39zM898 406q0 49 -16.5 88.5t-52 71
t-92 56.5t-137.5 45v-534q67 2 122 21.5t94 55t60.5 85t21.5 111.5z" />
    <glyph glyph-name="percent" unicode="%" horiz-adv-x="1783" 
d="M1640 386q0 -92 -22 -163.5t-63.5 -121t-102 -75.5t-138.5 -26q-79 0 -140.5 26t-103.5 75.5t-64 121t-22 163.5q0 91 21.5 163t63.5 121.5t103.5 76t141.5 26.5q79 0 139.5 -26.5t102 -76.5t63 -121.5t21.5 -162.5zM1505 384q0 270 -191 270q-194 0 -194 -270
q0 -265 194 -265q191 0 191 265zM1385 1484l-907 -1521h-129l907 1521h129zM779 1061q0 -92 -21.5 -164.5t-63.5 -122t-103.5 -75.5t-140.5 -26t-140 26.5t-103 76.5t-63.5 122t-21.5 163q0 90 21.5 161.5t63.5 121.5t103 76.5t140 26.5t140 -26t103 -75.5t64 -121.5
t22 -163zM643 1058q0 270 -193 270q-192 0 -192 -270q0 -266 192 -266q193 0 193 266z" />
    <glyph glyph-name="ampersand" unicode="&#x26;" horiz-adv-x="1238" 
d="M1252 30h-194l-142 173q-173 -203 -412 -203q-99 0 -180 29t-138.5 82.5t-89.5 128.5t-32 168q0 234 336 422q-86 109 -111 153q-54 91 -54 179q0 65 25 120t69 95t103 62.5t128 22.5t129 -22.5t104 -62.5t69.5 -95t25.5 -120q0 -121 -85 -218q-29 -33 -74.5 -70
t-109.5 -79l279 -337q30 70 30 223h154q0 -192 -80 -350zM732 1162q0 75 -47 120.5t-125 45.5q-38 0 -69.5 -12t-54 -34t-35 -52.5t-12.5 -67.5q0 -91 145 -263q198 126 198 263zM822 319l-336 407q-268 -151 -268 -330q0 -55 23 -103t63 -83.5t92.5 -56t112.5 -20.5
q178 0 313 186z" />
    <glyph glyph-name="quotesingle" unicode="'" horiz-adv-x="485" 
d="M295 797h-129v421h129v-421z" />
    <glyph glyph-name="parenleft" unicode="(" horiz-adv-x="511" 
d="M506 -347h-134q-283 463 -283 915q0 484 284 924h133q-265 -415 -265 -971q0 -438 265 -868z" />
    <glyph glyph-name="parenright" unicode=")" horiz-adv-x="511" 
d="M391 581q0 -488 -284 -928h-135q266 428 266 971q0 439 -264 868h133q284 -470 284 -911z" />
    <glyph glyph-name="asterisk" unicode="*" horiz-adv-x="729" 
d="M661 1204l-227 -75l137 -189l-85 -62l-142 192l-139 -191l-89 61l142 189l-221 75l37 102l221 -78v234h106v-234l219 78z" />
    <glyph glyph-name="plus" unicode="+" horiz-adv-x="1216" 
d="M1103 472h-442v-442h-135v442h-443v133h443v441h135v-441h442v-133z" />
    <glyph glyph-name="comma" unicode="," horiz-adv-x="680" 
d="M553 30q0 -61 -26 -116.5t-72.5 -102t-111.5 -81.5t-144 -55v51q52 13 97.5 40.5t79.5 64t53.5 80.5t19.5 89q0 38 -27 38q-2 0 -13 -4.5t-25.5 -10.5t-31 -10.5t-29.5 -4.5q-58 0 -92.5 35.5t-34.5 87.5q0 29 12.5 54t34 43t49.5 28.5t60 10.5q43 0 80 -19t64 -51
t42 -75t15 -92v0z" />
    <glyph glyph-name="hyphen" unicode="-" horiz-adv-x="926" 
d="M846 428h-758v119h758v-119z" />
    <glyph glyph-name="period" unicode="." horiz-adv-x="618" 
d="M522 126q0 -25 -10.5 -48t-28.5 -40t-42.5 -27.5t-52.5 -10.5q-27 0 -51.5 9.5t-42.5 26.5t-28.5 40t-10.5 50q0 26 10 49t28 40t42 26.5t53 9.5q27 0 51.5 -10t43 -27t29 -40t10.5 -48v0z" />
    <glyph glyph-name="slash" unicode="/" horiz-adv-x="947" 
d="M888 1657l-774 -1657h-158l779 1657h153z" />
    <glyph glyph-name="zero" unicode="0" horiz-adv-x="1167" 
d="M1031 700q0 -92 -35.5 -175.5t-96.5 -146.5t-143 -100.5t-175 -37.5q-94 0 -175.5 37t-142 100t-95.5 146.5t-35 176.5q0 99 33 183.5t92.5 146t141.5 96.5t181 35q94 0 176 -36.5t143 -99.5t96 -147t35 -178zM898 706q0 73 -24 138.5t-67 115t-101 78t-125 28.5
q-66 0 -124 -29t-101 -78.5t-68 -116.5t-25 -142q0 -74 25 -140.5t68 -116t101 -78.5t124 -29q67 0 125 29.5t100.5 80t67 118t24.5 142.5z" />
    <glyph glyph-name="one" unicode="1" horiz-adv-x="1167" 
d="M960 0h-139v765q-106 -88 -242 -88q-75 0 -143 29t-119 79t-81 118t-30 145q0 76 31.5 145t83 121.5t119 83.5t139.5 31q209 0 315 -178q66 -110 66 -183v-1068zM830 1040q0 64 -18.5 115.5t-51.5 87.5t-79.5 55t-101.5 19q-50 0 -92.5 -21.5t-73.5 -58.5t-48.5 -86.5
t-17.5 -105.5q0 -59 17 -108.5t47.5 -86t73 -57t94.5 -20.5q54 0 100 19t79.5 54.5t52.5 84.5t19 109z" />
    <glyph glyph-name="two" unicode="2" horiz-adv-x="1167" 
d="M1045 969q0 -189 -108 -339q-78 -108 -202 -184q-92 -56 -112 -56l318 -488l-106 -74l-324 530q-49 -11 -102 -11q-48 0 -88 11t-68.5 31t-44.5 49.5t-16 66.5q0 25 10 46.5t28 37t42 24t53 8.5q123 0 222 -130q17 0 51 17.5t73 45t77 62.5t63 71q87 123 87 282
q0 70 -26.5 132.5t-72.5 109t-108 73.5t-132 27q-126 0 -358 -130l-94 98q28 28 147 78q158 67 299 67q101 0 190.5 -35.5t156.5 -97.5t106 -145t39 -177z" />
    <glyph glyph-name="three" unicode="3" horiz-adv-x="1167" 
d="M1012 476q0 -204 -171 -322q-121 -83 -218 -83l212 -296l-105 -85l-254 375q-1 -1 -7 -1q-13 0 -37 5t-52 14t-54.5 20t-43.5 23q-67 46 -67 120q0 121 129 121q79 0 159 -96q64 -76 64 -102q61 0 153 50q149 81 149 249q0 287 -383 287q-35 0 -68.5 -2.5t-65.5 -7.5
l-75 127h211q60 0 113.5 17.5t93 49t63 74t23.5 92.5q0 49 -20.5 89.5t-57 69.5t-86 45t-106.5 16q-72 0 -196 -53q-52 -23 -78.5 -38t-30.5 -20l-73 108q250 113 392 113q87 0 158 -23t121.5 -65.5t78 -102.5t27.5 -134q0 -153 -88 -232q-56 -51 -92 -51q61 -16 113 -50
t89.5 -80.5t58.5 -103t21 -117.5z" />
    <glyph glyph-name="four" unicode="4" horiz-adv-x="1167" 
d="M1068 1161q0 -110 -101 -226q-29 -33 -75 -71t-92.5 -71t-83 -55t-45.5 -22q7 0 33.5 -18t58.5 -45t64.5 -59t53.5 -60q37 -51 54 -102.5t18 -103.5q0 -80 -26.5 -142.5t-75 -105.5t-117.5 -66t-153 -23q-81 0 -148.5 24.5t-116.5 69t-76.5 107.5t-27.5 141
q0 81 49.5 164t143.5 161q30 26 47 37.5t22 12.5q-11 0 -105 65q-113 79 -189 167q-101 117 -101 227q0 144 146 254l100 -57q-9 -6 -25.5 -31.5t-33 -58.5t-29 -66.5t-12.5 -55.5q0 -79 66.5 -163.5t191.5 -157.5q83 -50 96 -50q8 0 40 19t72.5 47t81 61t65.5 60
q45 50 66.5 98t22.5 95q0 81 -87 212l113 51q115 -136 115 -263zM821 339q0 116 -118 221q-95 84 -130 84q-26 0 -117 -88q-112 -109 -112 -217q0 -54 16.5 -99.5t47 -78.5t74 -51.5t97.5 -18.5q52 0 96 18t76.5 50.5t51 78t18.5 101.5z" />
    <glyph glyph-name="five" unicode="5" horiz-adv-x="1167" 
d="M1063 6q0 -181 -206 -288l-107 99q22 10 43 19t43 19q82 55 82 151q0 133 -68 345q-59 180 -72 187q-66 -26 -123 -41t-117 -15q-96 0 -175 34.5t-136 97.5t-88.5 152.5t-31.5 199.5q0 202 136 458l115 -65q-10 -20 -23 -55t-30 -86q-26 -79 -38.5 -143t-12.5 -115
q0 -83 21 -150.5t59 -116t91.5 -75t118.5 -26.5q112 0 183 53q23 17 23 18v-1q-1 0 -5.5 22t-9.5 52t-9 61.5t-4 51.5q0 132 37.5 196.5t109.5 64.5q31 0 56.5 -14.5t43.5 -40.5t27.5 -62.5t9.5 -79.5q0 -162 -120 -292q17 -8 91 -217q86 -246 86 -398z" />
    <glyph glyph-name="six" unicode="6" horiz-adv-x="1167" 
d="M1020 -198l-134 -65l-85 319q0 -1 -20.5 -5.5t-49 -9t-57.5 -8.5t-45 -4q-86 0 -163.5 31t-136 85.5t-93.5 128t-35 158.5q0 161 107 268q65 65 115 78q-10 0 -35.5 13t-55.5 34t-59.5 46t-47.5 49q-67 88 -67 199q0 67 28.5 123t78 96.5t115 63t139.5 22.5q15 0 38.5 -2
t50.5 -5t53.5 -6.5t48.5 -7t35.5 -6l13.5 -2.5l36 -138q-133 65 -248 65q-50 0 -95.5 -17t-80 -46t-55 -68.5t-20.5 -85.5q0 -54 24 -99.5t66 -79t98.5 -52.5t121.5 -19h159l42 -116q1 0 -15 1t-50 4q-6 0 -21.5 1t-33 2t-32 2t-17.5 1q-68 0 -123 -23.5t-94 -66.5
t-60.5 -103.5t-21.5 -133.5q0 -59 22.5 -112.5t60.5 -94.5t89.5 -65t109.5 -24q15 0 40.5 7.5t50.5 16.5t43 17t18 10q-13 26 -18 59.5t-5 81.5q0 33 8 61.5t22 50t34 33.5t43 12q124 0 124 -157q0 -33 -8.5 -67.5t-21.5 -64.5t-28.5 -51.5t-30.5 -28.5z" />
    <glyph glyph-name="seven" unicode="7" horiz-adv-x="1167" 
d="M1110 795q0 -809 -531 -809q-122 0 -215.5 55.5t-156.5 162.5t-95.5 263.5t-32.5 359.5q0 31 2.5 80t6.5 104.5t8.5 112t9 101.5t8 73.5t4.5 28.5v-2l150 84v2q-1 0 -5 -33.5t-9.5 -87.5t-11.5 -120.5t-11 -133t-8 -125t-3 -96.5q0 -722 359 -722q67 0 128.5 29
t108.5 77.5t74.5 112.5t27.5 134q-88 0 -163.5 34t-131 93t-87 139.5t-31.5 173.5q0 75 22.5 142.5t62 118.5t94 80.5t117.5 29.5q72 0 129.5 -33t97 -94t61 -146t21.5 -189zM969 801q0 346 -177 346q-37 0 -65.5 -19t-48 -53.5t-30 -82.5t-10.5 -106q0 -65 24.5 -127.5
t66.5 -111.5t97 -79t115 -30q28 81 28 263z" />
    <glyph glyph-name="eight" unicode="8" horiz-adv-x="1308" 
d="M1133 215q-13 -25 -170 -119q-185 -110 -292 -110q-247 0 -451 291q-37 52 -37 120q-1 122 136 294l573 718l103 -87l-572 -716q-51 -65 -77.5 -116t-25.5 -91q0 -51 38 -94q180 -201 313 -201q126 0 383 224z" />
    <glyph glyph-name="nine" unicode="9" horiz-adv-x="1167" 
d="M1020 -93q0 -92 -82 -158q-59 -48 -83 -48l-119 87q64 0 105.5 34.5t41.5 92.5q-2 33 -53 99l-587 736q-61 76 -90 143.5t-29 130.5q0 81 29 152t80 124t121 84t151 31q80 0 151.5 -31t125 -84t85 -124t31.5 -151t-32 -146t-88.5 -113.5t-134.5 -74t-169 -26.5l486 -614
q60 -77 60 -144zM753 1040q0 52 -20 99.5t-54 83.5t-79 57.5t-95 21.5q-51 0 -94.5 -21t-75 -57.5t-49.5 -86t-18 -106.5t18 -107.5t50 -88.5t75 -60t94 -22q55 0 100.5 22t78.5 60.5t51 91t18 113.5z" />
    <glyph glyph-name="colon" unicode=":" horiz-adv-x="552" 
d="M522 941q0 -25 -10.5 -47.5t-29 -40t-43 -27.5t-51.5 -10q-28 0 -52 9.5t-42 26.5t-28.5 40t-10.5 49q0 25 10.5 48t28.5 40t42.5 27t51.5 10t51.5 -10.5t43 -27.5t29 -39.5t10.5 -47.5zM522 126q0 -25 -10.5 -48t-28.5 -40t-42.5 -27.5t-52.5 -10.5q-27 0 -51.5 9.5
t-42.5 26.5t-28.5 40t-10.5 50q0 26 10 49t28 40t42 26.5t53 9.5q27 0 51.5 -10t43 -27t29 -40t10.5 -48z" />
    <glyph glyph-name="semicolon" unicode=";" horiz-adv-x="660" 
d="M506 949q0 -26 -10.5 -48.5t-28.5 -39.5t-42.5 -27t-51.5 -10q-29 0 -53.5 9.5t-42.5 26.5t-28 40t-10 49t10.5 48.5t28.5 39.5t42.5 26.5t52.5 9.5q27 0 51 -10t42.5 -26.5t29 -39.5t10.5 -48zM553 30q0 -61 -26 -116.5t-72.5 -102t-111.5 -81.5t-144 -55v51
q52 13 97.5 40.5t79.5 64t53.5 80.5t19.5 89q0 38 -27 38q-2 0 -13 -4.5t-25.5 -10.5t-31 -10.5t-29.5 -4.5q-58 0 -92.5 35.5t-34.5 87.5q0 29 12.5 54t34 43t49.5 28.5t60 10.5q43 0 80 -19t64 -51t42 -75t15 -92z" />
    <glyph glyph-name="less" unicode="&#x3c;" horiz-adv-x="1709" 
d="M1601 0l-1504 614v69l1507 612v-120l-1270 -525l1267 -525v-125z" />
    <glyph glyph-name="equal" unicode="=" horiz-adv-x="1717" 
d="M1601 829h-1505v114h1505v-114zM1601 408h-1505v115h1505v-115z" />
    <glyph glyph-name="greater" unicode="&#x3e;" horiz-adv-x="1699" 
d="M1590 617l-1506 -615v125l1276 526l-1280 524v120l1510 -612v-68z" />
    <glyph glyph-name="question" unicode="?" horiz-adv-x="1078" 
d="M628 0h-192v208h192v-208zM948 1175q0 -169 -167 -335q-68 -68 -104 -106t-42 -50q-6 -10 -11 -48.5t-8.5 -89.5t-5.5 -107t-3 -101h-153q0 8 -0.5 17t-0.5 19q0 47 3.5 102t9.5 107t15.5 95t21.5 65q18 32 62.5 81t110.5 115q60 56 89 113.5t29 117.5q0 53 -20.5 96.5
t-55 75t-80.5 48.5t-98 17q-138 0 -211.5 -85t-73.5 -236q0 -7 0.5 -13t0.5 -12h-158q1 117 33 206.5t90 150.5t140.5 92.5t185.5 31.5q87 0 160.5 -27t127 -75.5t83.5 -116t30 -148.5z" />
    <glyph glyph-name="at" unicode="@" horiz-adv-x="1608" 
d="M1495 865q0 -233 -149 -412q-142 -172 -320 -172q-115 0 -142 117q-118 -115 -242 -115q-61 0 -111.5 23t-87 63t-57 95t-20.5 119q0 221 132 394q142 187 350 187q140 0 207 -139l39 103h135l-196 -584q-25 -74 -25 -105q0 -41 37 -41q118 0 219 155q98 152 98 319
q0 111 -40.5 203t-113 158.5t-171.5 103t-216 36.5q-131 0 -242 -48t-192 -133t-127 -201.5t-46 -252.5q0 -263 174 -441q175 -178 435 -178q144 0 279 69q133 69 222 191h133q-98 -179 -273 -281q-170 -98 -361 -98q-321 0 -532 216q-211 214 -211 536q0 311 214 525
q215 215 522 215q145 0 269 -46t215 -129t143 -198.5t52 -253.5zM979 865q0 31 -12.5 60.5t-32.5 53t-45 38t-49 14.5q-133 0 -230 -151q-89 -137 -89 -287q0 -81 40.5 -127.5t106.5 -46.5q120 0 219 158q92 146 92 288z" />
    <glyph glyph-name="bracketleft" unicode="[" horiz-adv-x="775" 
d="M731 -149h-619v2339h619v-120h-389v-2098h389v-121z" />
    <glyph glyph-name="backslash" unicode="\" horiz-adv-x="1061" 
d="M920 -66h-111l-687 1891h118z" />
    <glyph glyph-name="bracketright" unicode="]" horiz-adv-x="819" 
d="M750 -185h-620v119h392v2096h-392v124h620v-2339z" />
    <glyph glyph-name="asciicircum" unicode="^" horiz-adv-x="1398" 
d="M1292 869h-136l-482 757l-480 -761h-140l594 949h55z" />
    <glyph glyph-name="underscore" unicode="&#x2212;" horiz-adv-x="1661" 
d="M1567 510h-1476v140h1476v-140z" />
    <glyph glyph-name="grave" unicode="`" horiz-adv-x="531" 
d="M471 810h-35l-226 253h177z" />
    <glyph glyph-name="braceleft" unicode="{" horiz-adv-x="690" 
d="M593 -347h-114q-43 0 -77.5 18.5t-58.5 53t-37 82.5t-13 108v291q0 300 -143 300v134q143 0 143 298v292q0 60 13 108t37 82.5t58.5 53t77.5 18.5h114v-134h-54q-94 0 -94 -189v-274q0 -222 -129 -321q129 -96 129 -321v-277q0 -187 94 -187h54v-136z" />
    <glyph glyph-name="bar" unicode="|" horiz-adv-x="474" 
d="M288 0h-133v1492h133v-1492z" />
    <glyph glyph-name="braceright" unicode="}" horiz-adv-x="690" 
d="M509 506q-143 0 -143 -300v-291q0 -60 -13 -108.5t-37 -82.5t-58.5 -52.5t-77.5 -18.5h-114v136h54q94 0 94 187v277q0 223 129 321q-129 102 -129 321v274q0 189 -94 189h-54v134h114q43 0 77.5 -18.5t58.5 -52.5t37 -82.5t13 -108.5v-289q0 -299 143 -299v-136z" />
    <glyph glyph-name="asciitilde" unicode="~" horiz-adv-x="1216" 
d="M1066 594q-40 -56 -72.5 -92t-63 -57t-61.5 -29t-68 -8q-81 0 -215 64t-213 64q-91 0 -159 -146l-95 94q101 188 264 188q31 0 70.5 -10t83.5 -25.5t91 -35t93 -38.5q26 -11 47 -15t36 -4q76 0 168 143z" />
    <glyph glyph-name="eurosign" unicode="&#x20ac;" horiz-adv-x="1168" 
d="M1109 272q-99 -157 -188 -225q-116 -87 -278 -87q-113 0 -203.5 44t-156.5 127.5t-105.5 204t-50.5 272.5h-108l24 84h80v18q0 16 3 72h-107l24 84h92q37 258 176 424q157 190 404 190q182 0 367 -96v-323h-42q-29 347 -325 347q-75 0 -137.5 -36.5t-110 -106t-78.5 -170
t-44 -229.5h636l-24 -84h-618q-2 -35 -3.5 -57.5t-1.5 -32.5h596l-25 -84h-568q-1 -5 -1 -9v-9v-19q0 -184 82 -335q99 -186 269 -186q136 0 229 66q65 46 160 177z" />
    <glyph glyph-name="ellipsis" unicode="&#x2026;" horiz-adv-x="1418" 
d="M1344 178v-9q0 -29 -10.5 -55.5t-29 -46.5t-43.5 -32t-55 -12q-27 0 -52 13t-44 34.5t-30 50.5t-11 61q0 31 12 57t32 45t46 30t54 11q56 0 91.5 -41.5t39.5 -105.5zM866 178v-9q0 -29 -10.5 -55.5t-29 -46.5t-43.5 -32t-55 -12q-27 0 -51.5 13t-43.5 35t-30 51t-11 61
q0 30 11.5 56t31 45t45 30t54.5 11q28 0 51.5 -11.5t40.5 -31.5t27.5 -46.5t12.5 -57.5zM388 178v-9q0 -29 -11 -55.5t-30 -46.5t-45 -32t-55 -12q-27 0 -52 13t-44 34.5t-30 50.5t-11 61q0 31 12 57t32.5 45t46.5 30t54 11t51.5 -11.5t41 -31t28 -46.5t12.5 -58z" />
    <glyph glyph-name="quoteleft" unicode="&#x2018;" horiz-adv-x="562" 
d="M376 1517q-57 0 -106 -15.5t-85 -48.5t-57 -83.5t-21 -120.5q21 33 49 47t64 14q27 0 51 -9.5t41.5 -26t27.5 -38.5t10 -46q-2 -31 -12.5 -56.5t-28 -44t-41 -29t-50.5 -10.5q-42 0 -74.5 16t-55 44.5t-34.5 68t-12 84.5q0 71 26 127t71.5 95.5t106 60t130.5 20.5v-49z
" />
    <glyph glyph-name="quoteright" unicode="&#x2019;" horiz-adv-x="504" 
d="M358 1283q0 -71 -26 -127t-71 -95t-106 -60t-130 -21v50q56 0 105 15t85 47.5t57 83t21 122.5q-20 -32 -47.5 -46.5t-63.5 -14.5q-28 0 -51.5 9.5t-41.5 26t-28 38.5t-10 47q1 30 12 55.5t29 44t42 28.5t50 10q41 0 73.5 -16t54.5 -44.5t34 -67t12 -85.5z" />
    <glyph glyph-name="bullet" unicode="&#x2024;" horiz-adv-x="732" 
d="M550 623q0 -56 -21 -105t-57.5 -86t-86 -58.5t-105.5 -21.5t-105.5 21.5t-86 58t-58 86t-21.5 105.5q0 57 21 106.5t58 86t86.5 58t105.5 21.5t105 -21.5t86 -59t58 -87t21 -104.5z" />
    <glyph glyph-name="endash" unicode="&#x2013;" horiz-adv-x="2061" 
d="M1970 571h-1874v155h1874v-155z" />
    <glyph glyph-name="emdash" unicode="&#x2014;" horiz-adv-x="2733" 
d="M2606 546h-2446v155h2446v-155z" />
    <glyph glyph-name="nonbreakingspace" horiz-adv-x="594" 
 />
    <glyph glyph-name="currencysign" unicode="&#xa4;" horiz-adv-x="1429" 
d="M1361 2l-73 -70l-186 186q-175 -136 -350 -136q-52 0 -108 10.5t-107.5 28.5t-95 43t-70.5 54l-190 -186l-73 70l187 189q-132 151 -132 366q0 199 132 363l-187 184l73 74l190 -183q152 131 368 131q211 0 363 -131l186 183l73 -74l-185 -184q133 -169 133 -362
q0 -201 -133 -367zM1205 554q0 95 -37.5 180t-101 148.5t-148.5 101t-180 37.5q-98 0 -183.5 -36.5t-149.5 -99.5t-100.5 -148.5t-36.5 -183.5q0 -96 37 -181t100.5 -148.5t148.5 -100.5t181 -37t181.5 37.5t149.5 101.5t101.5 149t37.5 180z" />
    <glyph glyph-name="sectionsign" unicode="&#xa7;" horiz-adv-x="1592" 
d="M1274 409q0 -263 -268 -434q145 -163 145 -365q0 -153 -84 -251q-100 -117 -298 -117q-152 0 -253.5 97.5t-101.5 244.5l158 2q0 -76 63 -142.5t132 -66.5q108 0 174 76q59 68 59 157q0 172 -172 309q-161 117 -321 235q-172 160 -172 390q0 182 276 448
q-91 100 -126 171q-47 92 -47 212q0 152 108 264q123 126 327 126q134 0 230 -84q103 -90 103 -235q0 -61 -19 -127l-145 -3q18 59 18 111q0 193 -223 193q-97 0 -173 -72q-83 -80 -83 -199q0 -139 180 -300q166 -141 333 -283q180 -177 180 -357zM1125 418q0 166 -405 478
q-92 -60 -169 -186q-76 -122 -76 -202q0 -143 148 -270q41 -35 250 -167q252 105 252 347z" />
    <glyph glyph-name="dieresis" unicode="&#xac;" horiz-adv-x="1379" 
d="M1273 43h-85v351h-1079v87h1164v-438z" />
    <glyph glyph-name="minus" unicode="&#xaf;" horiz-adv-x="1046" 
d="M953 516h-773v137h773v-137z" />
    <glyph glyph-name="infinity" unicode="&#xb0;" horiz-adv-x="570" 
d="M538 793q0 -46 -17.5 -86.5t-47.5 -70.5t-70.5 -47.5t-86.5 -17.5t-86 17.5t-70 47.5t-47.5 70.5t-17.5 86.5t17.5 86.5t47.5 70t70 46.5t86 17t86.5 -17t70.5 -47t47.5 -70t17.5 -86zM476 793q0 33 -12.5 62t-34.5 51t-51 34.5t-62 12.5t-62.5 -12.5t-51 -34.5
t-34.5 -51t-13 -62q0 -34 12.5 -63t34.5 -50.5t51.5 -34t62.5 -12.5t62.5 12.5t51 34t34 51t12.5 62.5z" />
    <glyph glyph-name="pilcrowsign" unicode="&#xb6;" horiz-adv-x="1530" 
d="M1375 1534h-173v-2258h-93v2258h-240v-2258h-95v1352q-143 0 -258 33t-196 95.5t-125 153.5t-44 208q0 111 43.5 200.5t121 153t184.5 98t234 34.5h641v-70z" />
    <glyph glyph-name="periodcentered" horiz-adv-x="563" 
d="M502 688q0 -27 -10 -51t-28 -42.5t-42.5 -29t-52.5 -10.5t-52.5 10.5t-42.5 28.5t-28.5 42t-10.5 52q0 27 10.5 51.5t29 43t43 29t51.5 10.5q28 0 52 -10.5t42 -29t28.5 -43t10.5 -51.5z" />
    <glyph glyph-name="multiply" unicode="&#xd7;" horiz-adv-x="1393" 
d="M1240 149l-101 -101l-445 446l-447 -446l-101 101l447 446l-453 450l101 101l447 -445l445 445l101 -101l-446 -445z" />
    <glyph glyph-name="divide" unicode="&#xf7;" horiz-adv-x="1064" 
d="M711 1016v-9q0 -29 -10.5 -55.5t-29 -46t-43.5 -31t-54 -11.5q-28 0 -53 13t-43.5 34.5t-29.5 50t-11 60.5q0 31 12 57t32 45t46 30t54 11q56 0 91 -41.5t39 -106.5zM950 528h-772v137h772v-137zM711 170v-9q0 -30 -10.5 -56t-29 -46t-43.5 -31.5t-54 -11.5q-27 0 -52 13
t-44 34.5t-30 50.5t-11 61q0 31 12 57t32 45t46 30t54 11q56 0 91 -41.5t39 -106.5z" />
    <glyph glyph-name="onedotlead" horiz-adv-x="517" 
d="M330 724q0 -25 -9.5 -46.5t-26 -38t-38 -26t-46.5 -9.5t-46.5 9.5t-38 26t-26 38t-9.5 46.5t9.5 46.5t26 38t38 26t46.5 9.5t46.5 -9.5t38 -26t26 -38t9.5 -46.5z" />
    <glyph glyph-name="zeronojoin" unicode="&#x200c;" 
d="M61 -335h-117v2855h117v-2855z" />
    <glyph glyph-name="zerojoin" unicode="&#x200d;" 
d="M312 1981l-93 -85l-153 150v-2399h-115v2415l-170 -166l-93 85l221 219l-221 221l89 88l223 -220l224 220l88 -88l-220 -221z" />
    <glyph glyph-name="circledash" unicode="&#x25cc;" horiz-adv-x="1451" 
d="M1318 681l-105 -24q-32 212 -196 336l67 78q202 -146 234 -390zM943 1153l-35 -98q-96 40 -203 40q-103 0 -183 -40l-32 98q117 50 231 50q113 0 222 -50zM1315 509q-40 -243 -227 -388l-71 75q177 140 196 336zM416 993q-171 -124 -196 -332l-101 20q44 254 230 390z
M943 39q-102 -46 -220 -46q-119 0 -233 46l39 94q80 -37 185 -37t198 37zM408 203l-59 -74q-194 140 -230 380l105 19q35 -219 184 -325z" />
    <glyph glyph-name="knsanusvara" unicode="&#xc82;" 
 />
    <glyph glyph-name="knsvisarga" unicode="&#xc83;" 
 />
    <glyph glyph-name="knla" unicode="&#xc85;" 
 />
    <glyph glyph-name="knlaa" unicode="&#xc86;" 
 />
    <glyph glyph-name="knli" unicode="&#xc87;" 
 />
    <glyph glyph-name="knlii" unicode="&#xc88;" 
 />
    <glyph glyph-name="knlu" unicode="&#xc89;" 
 />
    <glyph glyph-name="knluu" unicode="&#xc8a;" 
 />
    <glyph glyph-name="knlvocalicr" unicode="&#xc8b;" 
 />
    <glyph glyph-name="knlvocalicl" unicode="&#xc8c;" 
 />
    <glyph glyph-name="knlE" unicode="&#xc8e;" 
 />
    <glyph glyph-name="knlee" unicode="&#xc8f;" 
 />
    <glyph glyph-name="knlai" unicode="&#xc90;" 
 />
    <glyph glyph-name="knlo" unicode="&#xc92;" 
 />
    <glyph glyph-name="knloo" unicode="&#xc93;" 
 />
    <glyph glyph-name="knlau" unicode="&#xc94;" 
 />
    <glyph glyph-name="knlka" unicode="&#xc95;" 
 />
    <glyph glyph-name="knlkha" unicode="&#xc96;" 
 />
    <glyph glyph-name="knlga" unicode="&#xc97;" 
 />
    <glyph glyph-name="knlgh" unicode="&#xc98;" 
 />
    <glyph glyph-name="knlnga" unicode="&#xc99;" 
 />
    <glyph glyph-name="knlca" unicode="&#xc9a;" 
 />
    <glyph glyph-name="knlcha" unicode="&#xc9b;" 
 />
    <glyph glyph-name="knlja" unicode="&#xc9c;" 
 />
    <glyph glyph-name="knljha" unicode="&#xc9d;" 
 />
    <glyph glyph-name="knlnya" unicode="&#xc9e;" 
 />
    <glyph glyph-name="knltta" unicode="&#xc9f;" 
 />
    <glyph glyph-name="knlttha" unicode="&#xca0;" 
 />
    <glyph glyph-name="knldda" unicode="&#xca1;" 
 />
    <glyph glyph-name="uni0CA2" unicode="&#xca2;" 
 />
    <glyph glyph-name="knlnna" unicode="&#xca3;" 
 />
    <glyph glyph-name="knlta" unicode="&#xca4;" 
 />
    <glyph glyph-name="knltha" unicode="&#xca5;" 
 />
    <glyph glyph-name="knlda" unicode="&#xca6;" 
 />
    <glyph glyph-name="knlddha" unicode="&#xca7;" 
 />
    <glyph glyph-name="knlna" unicode="&#xca8;" 
 />
    <glyph glyph-name="knlpa" unicode="&#xcaa;" 
 />
    <glyph glyph-name="knlpha" unicode="&#xcab;" 
 />
    <glyph glyph-name="knlba" unicode="&#xcac;" 
 />
    <glyph glyph-name="knlbha" unicode="&#xcad;" 
 />
    <glyph glyph-name="knlma" unicode="&#xcae;" 
 />
    <glyph glyph-name="knlya" unicode="&#xcaf;" 
 />
    <glyph glyph-name="knlra" unicode="&#xcb0;" 
 />
    <glyph glyph-name="knlrra" unicode="&#xcb1;" 
 />
    <glyph glyph-name="knlla" unicode="&#xcb2;" 
 />
    <glyph glyph-name="knllla" unicode="&#xcb3;" 
 />
    <glyph glyph-name="knlva" unicode="&#xcb5;" 
 />
    <glyph glyph-name="knlsha" unicode="&#xcb6;" 
 />
    <glyph glyph-name="knlssa" unicode="&#xcb7;" 
 />
    <glyph glyph-name="knlsa" unicode="&#xcb8;" 
 />
    <glyph glyph-name="knlha" unicode="&#xcb9;" 
 />
    <glyph glyph-name="knsaa" unicode="&#xcbe;" 
 />
    <glyph glyph-name="knvsi" unicode="&#xcbf;" 
 />
    <glyph glyph-name="knvsii" unicode="&#xcc0;" 
 />
    <glyph glyph-name="knvsu" unicode="&#xcc1;" 
 />
    <glyph glyph-name="knvsuu" unicode="&#xcc2;" 
 />
    <glyph glyph-name="knvsvocalicr" unicode="&#xcc3;" 
 />
    <glyph glyph-name="knvsvocalicrr" unicode="&#xcc4;" 
 />
    <glyph glyph-name="knvse" unicode="&#xcc6;" 
 />
    <glyph glyph-name="knvsee" unicode="&#xcc7;" 
 />
    <glyph glyph-name="knvsai" unicode="&#xcc8;" 
 />
    <glyph glyph-name="knvso" unicode="&#xcca;" 
 />
    <glyph glyph-name="knvsoo" unicode="&#xccb;" 
 />
    <glyph glyph-name="knvsau" unicode="&#xccc;" 
 />
    <glyph glyph-name="knsviram" unicode="&#xccd;" 
 />
    <glyph glyph-name="knlengthmark" unicode="&#xcd5;" 
 />
    <glyph glyph-name="knailengthmark" unicode="&#xcd6;" 
 />
    <glyph glyph-name="knlfa" unicode="&#xcde;" 
 />
    <glyph glyph-name="knlvocalicrr" unicode="&#xce0;" 
 />
    <glyph glyph-name="knlvocalicll" unicode="&#xce1;" 
 />
    <glyph glyph-name="kndzero" unicode="&#xce6;" 
 />
    <glyph glyph-name="kndone" unicode="&#xce7;" 
 />
    <glyph glyph-name="kndtwo" unicode="&#xce8;" 
 />
    <glyph glyph-name="kndthree" unicode="&#xce9;" 
 />
    <glyph glyph-name="kndfour" unicode="&#xcea;" 
 />
    <glyph glyph-name="kndfive" unicode="&#xceb;" 
 />
    <glyph glyph-name="kndsix" unicode="&#xcec;" 
 />
    <glyph glyph-name="kndseven" unicode="&#xced;" 
 />
    <glyph glyph-name="kndeight" unicode="&#xcee;" 
 />
    <glyph glyph-name="kndnine" unicode="&#xcef;" 
 />
    <glyph glyph-name="glyph147" 
 />
    <glyph glyph-name="glyph148" 
 />
    <glyph glyph-name="glyph149" 
 />
    <glyph glyph-name="glyph150" 
 />
    <glyph glyph-name="glyph151" 
 />
    <glyph glyph-name="glyph152" 
 />
    <glyph glyph-name="glyph153" 
 />
    <glyph glyph-name="glyph154" 
 />
    <glyph glyph-name="glyph155" 
 />
    <glyph glyph-name="glyph156" 
 />
    <glyph glyph-name="glyph157" 
 />
    <glyph glyph-name="glyph158" 
 />
    <glyph glyph-name="glyph159" 
 />
    <glyph glyph-name="glyph160" 
 />
    <glyph glyph-name="glyph161" 
 />
    <glyph glyph-name="glyph162" 
 />
    <glyph glyph-name="glyph163" 
 />
    <glyph glyph-name="glyph164" 
 />
    <glyph glyph-name="glyph165" 
 />
    <glyph glyph-name="glyph166" 
 />
    <glyph glyph-name="glyph167" 
 />
    <glyph glyph-name="glyph168" 
 />
    <glyph glyph-name="glyph169" 
 />
    <glyph glyph-name="glyph170" 
 />
    <glyph glyph-name="glyph171" 
 />
    <glyph glyph-name="glyph172" 
 />
    <glyph glyph-name="glyph173" 
 />
    <glyph glyph-name="glyph174" 
 />
    <glyph glyph-name="glyph175" 
 />
    <glyph glyph-name="glyph176" 
 />
    <glyph glyph-name="glyph177" 
 />
    <glyph glyph-name="glyph178" 
 />
    <glyph glyph-name="glyph179" 
 />
    <glyph glyph-name="glyph180" 
 />
    <glyph glyph-name="glyph181" 
 />
    <glyph glyph-name="glyph182" 
 />
    <glyph glyph-name="glyph183" 
 />
    <glyph glyph-name="glyph184" 
 />
    <glyph glyph-name="glyph185" 
 />
    <glyph glyph-name="glyph186" 
 />
    <glyph glyph-name="glyph187" 
 />
    <glyph glyph-name="glyph188" 
 />
    <glyph glyph-name="glyph189" 
 />
    <glyph glyph-name="glyph190" 
 />
    <glyph glyph-name="glyph191" 
 />
    <glyph glyph-name="glyph192" 
 />
    <glyph glyph-name="glyph193" 
 />
    <glyph glyph-name="glyph194" 
 />
    <glyph glyph-name="glyph195" 
 />
    <glyph glyph-name="glyph196" 
 />
    <glyph glyph-name="glyph197" 
 />
    <glyph glyph-name="glyph198" 
 />
    <glyph glyph-name="glyph199" 
 />
    <glyph glyph-name="glyph200" 
 />
    <glyph glyph-name="glyph201" 
 />
    <glyph glyph-name="glyph202" 
 />
    <glyph glyph-name="glyph203" 
 />
    <glyph glyph-name="glyph204" 
 />
    <glyph glyph-name="glyph205" 
 />
    <glyph glyph-name="glyph206" 
 />
    <glyph glyph-name="glyph207" 
 />
    <glyph glyph-name="glyph208" 
 />
    <glyph glyph-name="glyph209" 
 />
    <glyph glyph-name="glyph210" 
 />
    <glyph glyph-name="glyph211" 
 />
    <glyph glyph-name="glyph212" 
 />
    <glyph glyph-name="glyph213" 
 />
    <glyph glyph-name="glyph214" 
 />
    <glyph glyph-name="glyph215" 
 />
    <glyph glyph-name="glyph216" 
 />
    <glyph glyph-name="glyph217" 
 />
    <glyph glyph-name="glyph218" 
 />
    <glyph glyph-name="glyph219" 
 />
    <glyph glyph-name="glyph220" 
 />
    <glyph glyph-name="glyph221" 
 />
    <glyph glyph-name="glyph222" 
 />
    <glyph glyph-name="glyph223" 
 />
    <glyph glyph-name="glyph224" 
 />
    <glyph glyph-name="glyph225" 
 />
    <glyph glyph-name="glyph226" 
 />
    <glyph glyph-name="glyph227" 
 />
    <glyph glyph-name="glyph228" 
 />
    <glyph glyph-name="glyph229" 
 />
    <glyph glyph-name="glyph230" 
 />
    <glyph glyph-name="glyph231" 
 />
    <glyph glyph-name="glyph232" 
 />
    <glyph glyph-name="glyph233" 
 />
    <glyph glyph-name="glyph234" 
 />
    <glyph glyph-name="glyph235" 
 />
    <glyph glyph-name="glyph236" 
 />
    <glyph glyph-name="glyph237" 
 />
    <glyph glyph-name="glyph238" 
 />
    <glyph glyph-name="glyph239" 
 />
    <glyph glyph-name="glyph240" 
 />
    <glyph glyph-name="glyph241" 
 />
    <glyph glyph-name="glyph242" 
 />
    <glyph glyph-name="glyph243" 
 />
    <glyph glyph-name="glyph244" 
 />
    <glyph glyph-name="glyph245" 
 />
    <glyph glyph-name="glyph246" 
 />
    <glyph glyph-name="glyph247" 
 />
    <glyph glyph-name="glyph248" 
 />
    <glyph glyph-name="glyph249" 
 />
    <glyph glyph-name="glyph250" 
 />
    <glyph glyph-name="glyph251" 
 />
    <glyph glyph-name="glyph252" 
 />
    <glyph glyph-name="glyph253" 
 />
    <glyph glyph-name="glyph254" 
 />
    <glyph glyph-name="glyph255" 
 />
    <glyph glyph-name="glyph256" 
 />
    <glyph glyph-name="glyph257" 
 />
    <glyph glyph-name="glyph258" 
 />
    <glyph glyph-name="glyph259" 
 />
    <glyph glyph-name="glyph260" 
 />
    <glyph glyph-name="glyph261" 
 />
    <glyph glyph-name="glyph262" 
 />
    <glyph glyph-name="glyph263" 
 />
    <glyph glyph-name="glyph264" 
 />
    <glyph glyph-name="glyph265" 
 />
    <glyph glyph-name="glyph266" 
 />
    <glyph glyph-name="glyph267" 
 />
    <glyph glyph-name="glyph268" 
 />
    <glyph glyph-name="glyph269" 
 />
    <glyph glyph-name="glyph270" 
 />
    <glyph glyph-name="glyph271" 
 />
    <glyph glyph-name="glyph272" 
 />
    <glyph glyph-name="glyph273" 
 />
    <glyph glyph-name="glyph274" 
 />
    <glyph glyph-name="glyph275" 
 />
    <glyph glyph-name="glyph276" 
 />
    <glyph glyph-name="glyph277" 
 />
    <glyph glyph-name="glyph278" 
 />
    <glyph glyph-name="glyph279" 
 />
    <glyph glyph-name="glyph280" 
 />
    <glyph glyph-name="glyph281" 
 />
    <glyph glyph-name="glyph282" 
 />
    <glyph glyph-name="glyph283" 
 />
    <glyph glyph-name="glyph284" 
 />
    <glyph glyph-name="glyph285" 
 />
    <glyph glyph-name="glyph286" 
 />
    <glyph glyph-name="glyph287" 
 />
    <glyph glyph-name="glyph288" 
 />
    <glyph glyph-name="glyph289" 
 />
    <glyph glyph-name="glyph290" 
 />
    <glyph glyph-name="glyph291" 
 />
    <glyph glyph-name="glyph292" 
 />
    <glyph glyph-name="glyph293" 
 />
    <glyph glyph-name="glyph294" 
 />
    <glyph glyph-name="glyph295" 
 />
    <glyph glyph-name="glyph296" 
 />
    <glyph glyph-name="glyph297" 
 />
    <glyph glyph-name="glyph298" 
 />
    <glyph glyph-name="glyph299" 
 />
    <glyph glyph-name="glyph300" 
 />
    <glyph glyph-name="glyph301" 
 />
    <glyph glyph-name="glyph302" 
 />
    <glyph glyph-name="glyph303" 
 />
    <glyph glyph-name="glyph304" 
 />
    <glyph glyph-name="glyph305" 
 />
    <glyph glyph-name="glyph306" 
 />
    <glyph glyph-name="glyph307" 
 />
    <glyph glyph-name="glyph308" 
 />
    <glyph glyph-name="glyph309" 
 />
    <glyph glyph-name="glyph310" 
 />
    <glyph glyph-name="glyph311" 
 />
    <glyph glyph-name="glyph312" 
 />
    <glyph glyph-name="glyph313" 
 />
    <glyph glyph-name="glyph314" 
 />
    <glyph glyph-name="glyph315" 
 />
    <glyph glyph-name="glyph316" 
 />
    <glyph glyph-name="glyph317" 
 />
    <glyph glyph-name="glyph318" 
 />
    <glyph glyph-name="glyph319" 
 />
    <glyph glyph-name="glyph320" 
 />
    <glyph glyph-name="glyph321" 
 />
    <glyph glyph-name="glyph322" 
 />
    <glyph glyph-name="glyph323" 
 />
    <glyph glyph-name="glyph324" 
 />
    <glyph glyph-name="glyph325" 
 />
    <glyph glyph-name="glyph326" 
 />
    <glyph glyph-name="glyph327" 
 />
    <glyph glyph-name="glyph328" 
 />
    <glyph glyph-name="glyph329" 
 />
    <glyph glyph-name="glyph330" 
 />
    <glyph glyph-name="glyph331" 
 />
    <glyph glyph-name="glyph332" 
 />
    <glyph glyph-name="glyph333" 
 />
    <glyph glyph-name="glyph334" 
 />
    <glyph glyph-name="glyph335" 
 />
    <glyph glyph-name="glyph336" 
 />
    <glyph glyph-name="glyph337" 
 />
    <glyph glyph-name="glyph338" 
 />
    <glyph glyph-name="glyph339" 
 />
    <glyph glyph-name="glyph340" 
 />
    <glyph glyph-name="glyph341" 
 />
    <glyph glyph-name="glyph342" 
 />
    <glyph glyph-name="glyph343" 
 />
    <glyph glyph-name="glyph344" 
 />
    <glyph glyph-name="glyph345" 
 />
    <glyph glyph-name="glyph346" 
 />
    <glyph glyph-name="glyph347" 
 />
    <glyph glyph-name="A" unicode="A" horiz-adv-x="1404" 
d="M1346 0h-170l-168 433h-615l-168 -433h-170l572 1413h165zM952 569l-249 665l-261 -665h510z" />
    <glyph glyph-name="B" unicode="B" horiz-adv-x="1220" 
d="M1126 406q0 -200 -129.5 -303t-380.5 -103h-599v1413h599q456 0 456 -353q0 -51 -14.5 -99.5t-41.5 -89t-65 -72t-84 -49.5q60 -15 107.5 -46.5t81.5 -76.5t52 -101t18 -120zM916 1028q0 248 -300 248h-443v-471h443q70 0 125.5 15.5t94.5 44.5t59.5 70t20.5 93zM970 411
q0 255 -354 255h-443v-530h443q354 0 354 275z" />
    <glyph glyph-name="C" unicode="C" horiz-adv-x="1356" 
d="M1288 555q-31 -271 -187 -427q-158 -158 -405 -158q-151 0 -274.5 55t-211 153t-135.5 233.5t-48 296.5t47.5 296t135.5 232.5t211 151.5t275 54q112 0 210.5 -34.5t174.5 -96.5t125 -150t63 -194h-158q-17 77 -55 139.5t-92.5 106.5t-122.5 68t-145 24q-117 0 -211 -44
t-161 -122.5t-103 -188.5t-36 -242q0 -133 36 -243.5t103 -190t161 -123.5t211 -44q89 0 164 32.5t131.5 91t92 141t45.5 183.5h159z" />
    <glyph glyph-name="D" unicode="D" horiz-adv-x="1252" 
d="M1157 708q0 -347 -166 -527.5t-485 -180.5h-492v1413h492q319 0 485 -180t166 -525zM998 708q0 151 -32 259t-99.5 176.5t-173 100.5t-253.5 32h-270v-1140h270q148 0 254 32.5t173.5 101.5t99 177.5t31.5 260.5z" />
    <glyph glyph-name="E" unicode="E" horiz-adv-x="1084" 
d="M1019 0h-992v1413h982v-137h-826v-478h772v-137h-772v-525h836v-136z" />
    <glyph glyph-name="F" unicode="F" horiz-adv-x="985" 
d="M938 1276h-748v-478h667v-137h-667v-661h-156v1413h904v-137z" />
    <glyph glyph-name="G" unicode="G" horiz-adv-x="1361" 
d="M1285 0h-139v220q-145 -250 -471 -250q-151 0 -274.5 55t-211 153t-135.5 233.5t-48 296.5t47.5 296t135.5 232.5t211 151.5t275 54q231 0 388 -121q168 -130 205 -364h-157q-7 70 -44.5 133.5t-96.5 111t-135 75.5t-160 28q-117 0 -211 -44t-161 -122.5t-103 -188.5
t-36 -242q0 -133 36 -243.5t103 -190t161 -123.5t211 -44q107 0 194 35.5t148 99.5t94 153.5t33 197.5h-474v137h615v-730z" />
    <glyph glyph-name="H" unicode="H" horiz-adv-x="1290" 
d="M1130 0h-158v674h-799v-674h-157v1413h157v-603h799v603h158v-1413z" />
    <glyph glyph-name="I" unicode="I" horiz-adv-x="433" 
d="M261 0h-157v1413h157v-1413z" />
    <glyph glyph-name="J" unicode="J" horiz-adv-x="936" 
d="M804 401q0 -113 -23.5 -194t-74 -133t-129.5 -76.5t-190 -24.5q-204 0 -301.5 124t-97.5 375h156q4 -105 6 -119q11 -124 70.5 -183.5t179.5 -59.5q70 0 118 17t76.5 57t41 107t12.5 166v958h156v-1014z" />
    <glyph glyph-name="K" unicode="K" horiz-adv-x="1176" 
d="M1197 0h-204l-571 719l-254 -236v-483h-156v1413h156v-730l789 730h217l-637 -587z" />
    <glyph glyph-name="L" unicode="L" horiz-adv-x="1032" 
d="M965 0h-934v1413h157v-1277h777v-136z" />
    <glyph glyph-name="M" unicode="M" horiz-adv-x="1520" 
d="M1385 0h-156v1160l-458 -1160h-141l-460 1160v-1160h-157v1413h216l473 -1197l468 1197h215v-1413z" />
    <glyph glyph-name="N" unicode="N" horiz-adv-x="1291" 
d="M1130 0h-164l-796 1153v-1153h-156v1413h167l793 -1154v1154h156v-1413z" />
    <glyph glyph-name="O" unicode="O" horiz-adv-x="1438" 
d="M1383 708q0 -161 -47.5 -296.5t-134.5 -233.5t-210 -153t-274 -55t-274.5 55t-211 153t-135.5 233.5t-48 296.5t47.5 296t135.5 232.5t211 151.5t275 54q150 0 273 -54.5t210.5 -152t135 -232.5t47.5 -295zM1224 708q0 132 -35.5 242t-101.5 188.5t-160 122.5t-210 44
q-117 0 -211 -44t-161 -122.5t-103 -188.5t-36 -242q0 -133 36 -243.5t103 -190t161 -123.5t211 -44q116 0 210 44t160 123.5t101.5 190t35.5 243.5z" />
    <glyph glyph-name="P" unicode="P" horiz-adv-x="1152" 
d="M1074 1004q0 -95 -30 -171t-85 -128.5t-134 -80.5t-176 -28h-471v-596h-157v1413h628q96 0 174.5 -28t134 -81t86 -129t30.5 -171zM916 1004q0 131 -77 201.5t-219 70.5h-442v-544h442q142 0 219 70.5t77 201.5z" />
    <glyph glyph-name="Q" unicode="Q" horiz-adv-x="1425" 
d="M1360 713q0 -347 -205 -551l198 -150l-81 -102l-219 165q-148 -100 -359 -100q-151 0 -274.5 55t-211 153t-135.5 233.5t-48 296.5t47.5 296t135.5 232.5t211 151.5t275 54q150 0 273 -54.5t210.5 -152t135 -232.5t47.5 -295zM1202 713q0 132 -36 242t-102 188.5
t-160 122.5t-210 44q-117 0 -211 -43.5t-160.5 -122.5t-102.5 -189t-36 -242q0 -134 36 -244.5t102 -189.5t160.5 -123t211.5 -44q134 0 233 57l-177 135l83 105l203 -157q166 163 166 461z" />
    <glyph glyph-name="R" unicode="R" horiz-adv-x="1273" 
d="M1216 7h-179q-32 49 -42 228q-11 194 -48 269q-60 121 -219 121h-488v-618h-156v1413h647q100 0 181 -26t137 -74.5t86.5 -118t30.5 -156.5q0 -131 -62 -224t-174 -128q97 -24 146.5 -96t61.5 -210q3 -55 6.5 -110.5t11 -106t21.5 -92.5t39 -71zM1007 1018
q0 265 -286 265h-481v-521h481q63 0 115.5 19t90.5 53t59 81t21 103z" />
    <glyph glyph-name="S" unicode="S" horiz-adv-x="1218" 
d="M1142 379q0 -95 -36.5 -170.5t-106.5 -128.5t-170.5 -81.5t-228.5 -28.5q-134 0 -239.5 31.5t-178 92t-111 149t-38.5 201.5v19v9q0 5 1 10h155q0 -188 108 -281.5t335 -93.5q71 0 135.5 20t113 56t77 85.5t28.5 108.5q0 174 -277 241l-309 75q-323 78 -323 345
q0 88 34.5 162t98 128t154.5 84t205 30q116 0 212.5 -32.5t165.5 -92t107.5 -144t38.5 -187.5h-155q-2 74 -30 133t-76.5 100.5t-115 63.5t-145.5 22q-336 0 -336 -265q0 -151 200 -199l338 -82q369 -90 369 -380z" />
    <glyph glyph-name="T" unicode="T" horiz-adv-x="1218" 
d="M1166 1276h-484v-1276h-158v1276h-484v137h1126v-137z" />
    <glyph glyph-name="U" unicode="U" horiz-adv-x="1257" 
d="M1109 516q0 -128 -37 -228.5t-108 -170.5t-173.5 -107t-232.5 -37q-131 0 -233.5 37t-173.5 107t-108.5 170.5t-37.5 228.5v899h156v-870q0 -435 397 -435q395 0 395 435v870h156v-899z" />
    <glyph glyph-name="V" unicode="V" horiz-adv-x="1280" 
d="M1230 1413l-524 -1413h-173l-525 1413h170l444 -1225l440 1225h168z" />
    <glyph glyph-name="W" unicode="W" horiz-adv-x="1873" 
d="M1817 1413l-389 -1413h-159l-345 1213l-341 -1213h-165l-391 1413h167l309 -1190l331 1190h183l332 -1185l311 1185h157z" />
    <glyph glyph-name="X" unicode="X" horiz-adv-x="1273" 
d="M1226 0h-189l-415 603l-422 -603h-181l510 727l-481 686h186l388 -571l398 571h179l-482 -688z" />
    <glyph glyph-name="Y" unicode="Y" horiz-adv-x="1369" 
d="M1307 1413l-560 -833v-580h-156v580l-558 833h188l450 -692l448 692h188z" />
    <glyph glyph-name="Z" unicode="Z" horiz-adv-x="1239" 
d="M1149 0h-1106v133l900 1143h-837v137h1024v-134l-901 -1143h920v-136z" />
    <glyph glyph-name="a" unicode="a" horiz-adv-x="1052" 
d="M1001 28q-50 -9 -84 -9q-155 0 -163 155q-67 -96 -136 -136q-83 -48 -213 -48q-78 0 -142.5 21.5t-110 61t-70.5 96t-25 127.5q0 67 14.5 115.5t51 82t98.5 55.5t158 37q102 16 157.5 25t67.5 13q139 40 139 132q0 191 -250 191q-253 0 -256 -232h-149q20 362 419 362
q383 0 383 -335v-533q0 -63 59 -63q15 0 52 17v-135zM738 516q-15 -6 -55 -17t-96.5 -24.5t-125.5 -28.5t-143 -28q-114 -36 -114 -121q0 -162 213 -162q50 0 102 16.5t96.5 44t77 63t44.5 73.5z" />
    <glyph glyph-name="b" unicode="b" horiz-adv-x="1055" 
d="M990 503q0 -120 -32 -220t-92 -172t-146 -111.5t-193 -39.5q-56 0 -108.5 13t-98.5 37t-83 59t-61 79v-159h-136v1413h146v-541q23 43 58.5 77.5t80.5 58.5t96.5 37t105.5 13q106 0 192 -39.5t146 -111t92.5 -172t32.5 -221.5zM843 503q0 93 -22.5 169t-63.5 131
t-99.5 85t-130.5 30q-80 0 -143.5 -29.5t-107.5 -83.5t-67 -131t-23 -171q0 -93 23 -170t67 -131.5t107 -84.5t144 -30q72 0 130.5 30.5t100 86t63.5 131.5t22 168z" />
    <glyph glyph-name="c" unicode="c" horiz-adv-x="1032" 
d="M984 404q-14 -97 -50.5 -174t-92 -130t-128 -81.5t-159.5 -28.5q-109 0 -198.5 40t-153.5 112t-99 171.5t-35 218.5t35 219t98.5 172.5t153 113t199.5 40.5q88 0 160.5 -25t127 -72t89 -116t45.5 -157h-147q-50 240 -275 240q-76 0 -138 -32t-106.5 -87.5t-68.5 -131.5
t-24 -164t24 -164t68.5 -131.5t106.5 -87.5t138 -32q55 0 104 21t86.5 59t61.5 91t29 116h149z" />
    <glyph glyph-name="d" unicode="d" horiz-adv-x="1063" 
d="M991 -11h-135v159q-24 -41 -62.5 -75.5t-85.5 -59.5t-99 -39t-103 -14q-107 0 -193 39.5t-146.5 111t-93 171.5t-32.5 221t32.5 221t93 172t146.5 111.5t193 39.5q242 0 340 -185v540h145v-1413zM846 503q0 94 -23 170.5t-66.5 131t-106.5 84t-144 29.5q-72 0 -130.5 -30
t-100 -85t-63.5 -131t-22 -169q0 -92 22 -168t63 -131.5t99.5 -86t131.5 -30.5q80 0 143 30t107 84.5t67 131.5t23 170z" />
    <glyph glyph-name="e" unicode="e" horiz-adv-x="1039" 
d="M972 375q-90 -385 -452 -385q-110 0 -197 38t-147 108.5t-92 170.5t-32 225q0 120 33 220.5t93.5 172.5t147 112t194.5 40q105 0 188.5 -40t142 -113t89.5 -175.5t31 -227.5v-33h-770q2 -80 25.5 -148t65 -117.5t99.5 -77.5t129 -28q236 0 304 258h148zM825 615
q-5 72 -29.5 133t-65 105t-94 69t-116.5 25t-116.5 -24t-95 -67.5t-68.5 -105t-37 -135.5h622z" />
    <glyph glyph-name="f" unicode="f" horiz-adv-x="591" 
d="M560 1261q-84 12 -103 12q-39 0 -63 -10.5t-37 -33t-17 -56.5t-4 -82v-76h197v-128h-197v-900h-149v900h-170v128h170v78q0 82 15 140t46.5 95t80 54.5t114.5 17.5q45 0 117 -9v-130z" />
    <glyph glyph-name="g" unicode="g" horiz-adv-x="1032" 
d="M968 145q0 -497 -456 -497q-92 0 -168 22.5t-132.5 65t-90.5 103.5t-41 138h148q36 -199 284 -199q309 0 309 367v91q-105 -174 -309 -174q-111 0 -198 36t-147 104.5t-91.5 166.5t-31.5 221q0 113 33.5 208t95 164t148 107.5t191.5 38.5q202 0 309 -170v140h147v-933z
M821 576q0 88 -21.5 162t-62 127.5t-97.5 83t-128 29.5q-74 0 -133.5 -29t-100.5 -82t-63 -127t-22 -164q0 -86 22.5 -157t64.5 -122t101 -79.5t131 -28.5q69 0 126 29.5t97.5 81t63 122.5t22.5 154z" />
    <glyph glyph-name="h" unicode="h" horiz-adv-x="995" 
d="M857 -13h-147v640q0 288 -243 288q-69 0 -124.5 -24.5t-94.5 -68t-60.5 -104t-21.5 -132.5v-599h-149v1413h149v-521q23 38 57 68.5t75 52.5t86.5 33.5t92.5 11.5q196 0 288 -96t92 -303v-659z" />
    <glyph glyph-name="i" unicode="i" horiz-adv-x="366" 
d="M225 1178h-146v222h146v-222zM225 -13h-146v1028h146v-1028z" />
    <glyph glyph-name="j" unicode="j" horiz-adv-x="381" 
d="M240 1209h-146v222h146v-222zM240 -62q0 -292 -226 -292q-6 0 -18 0.5t-26.5 1.5t-29 1.5t-24.5 0.5v125h127q51 0 51 134v1137h146v-1108z" />
    <glyph glyph-name="k" unicode="k" horiz-adv-x="970" 
d="M928 -13h-182l-393 542l-185 -154v-388h-146v1413h146v-855l540 470h200l-443 -385z" />
    <glyph glyph-name="l" unicode="l" horiz-adv-x="366" 
d="M225 -13h-146v1413h146v-1413z" />
    <glyph glyph-name="m" unicode="m" horiz-adv-x="1520" 
d="M1449 16h-146v689q0 123 -52 181.5t-174 58.5q-259 0 -259 -347v-582h-147v694q0 235 -196 235q-290 0 -290 -357v-572h-146v1029h137v-148q108 177 323 177q218 0 289 -177q100 177 318 177q343 0 343 -364v-694z" />
    <glyph glyph-name="n" unicode="n" horiz-adv-x="995" 
d="M857 16h-147v641q0 288 -243 288q-69 0 -124.5 -24.5t-95 -68t-60.5 -104t-21 -133.5v-599h-149v1029h149v-137q23 38 57 68.5t75 52.5t86.5 33.5t92.5 11.5q97 0 169 -23t118.5 -72t69.5 -124t23 -179v-660z" />
    <glyph glyph-name="o" unicode="o" horiz-adv-x="1093" 
d="M1023 532q0 -119 -35 -218.5t-99.5 -171.5t-154.5 -112t-200 -40q-109 0 -198.5 40t-153.5 112t-99 171.5t-35 218.5t35 219t98.5 172.5t153 113t199.5 40.5t200.5 -40t154.5 -112.5t99 -172.5t35 -220zM875 532q0 88 -24.5 164t-69.5 132t-108 87.5t-139 31.5
t-138.5 -31.5t-106.5 -87.5t-68.5 -132t-24.5 -164q0 -89 24.5 -165t68.5 -131.5t106.5 -87t138.5 -31.5t139 31.5t108 87.5t69.5 131.5t24.5 164.5z" />
    <glyph glyph-name="p" unicode="p" horiz-adv-x="1055" 
d="M960 561q0 -120 -32 -220t-92 -172t-146 -111.5t-193 -39.5q-55 0 -106.5 13t-96 37t-80 58.5t-58.5 76.5v-528h-146v1401h136v-161q24 44 61 79.5t83 60t98.5 37.5t108.5 13q106 0 192 -39.5t146 -111t92.5 -172t32.5 -221.5zM813 561q0 93 -22.5 169t-63.5 131
t-99.5 85t-130.5 30q-341 0 -341 -415q0 -93 23 -170t67 -131.5t107 -84.5t144 -30q72 0 130.5 30.5t100 86t63.5 131.5t22 168z" />
    <glyph glyph-name="q" unicode="q" horiz-adv-x="1063" 
d="M961 -325h-145v527q-23 -42 -58.5 -76t-79.5 -58t-95.5 -37t-106.5 -13q-107 0 -193 39.5t-146.5 111t-93 171.5t-32.5 221t32.5 221t93 172t146.5 111.5t193 39.5q51 0 103.5 -14t99 -39.5t85 -60.5t62.5 -76v161h135v-1401zM816 561q0 94 -23 171t-66.5 131t-107 83.5
t-143.5 29.5q-72 0 -130.5 -30t-100 -85t-63.5 -131t-22 -169q0 -92 22 -168t63 -131.5t99.5 -86t131.5 -30.5q80 0 143 30t107 84.5t67 131.5t23 170z" />
    <glyph glyph-name="r" unicode="r" horiz-adv-x="618" 
d="M567 911q-7 0 -13.5 0.5t-13.5 0.5q-77 0 -140.5 -26t-110 -72.5t-72 -110t-25.5 -138.5v-547h-146v1028h136v-200q108 213 355 213q8 0 15 -0.5t15 -0.5v-147z" />
    <glyph glyph-name="s" unicode="s" horiz-adv-x="935" 
d="M880 304q0 -72 -31.5 -130t-87 -99t-132 -63t-166.5 -22q-394 0 -424 380h147q8 -121 82 -187t203 -66q56 0 104 13t83 36.5t55 56.5t20 73q0 126 -211 171l-158 34q-290 62 -290 282q0 67 29 121.5t80.5 93t123 59t156.5 20.5q86 0 155 -23.5t118.5 -68t77.5 -109.5
t32 -147h-149q-8 218 -251 218q-223 0 -223 -159q0 -109 197 -156l163 -39q67 -9 122 -33.5t94 -62t60 -86.5t21 -107z" />
    <glyph glyph-name="t" unicode="t" horiz-adv-x="611" 
d="M553 -13q-11 0 -29 -0.5t-36 -1.5t-33.5 -1.5t-22.5 -0.5q-64 0 -107.5 12t-70.5 40t-39 73.5t-12 112.5v674h-175v128h175v302h146v-302h204v-128h-204v-664q0 -39 5.5 -62.5t18 -36t32.5 -16.5t49 -4q23 0 47.5 1.5t51.5 5.5v-132z" />
    <glyph glyph-name="u" unicode="u" horiz-adv-x="995" 
d="M857 21h-137v153q-110 -182 -338 -182q-365 0 -365 394v664h149v-666q0 -265 255 -265q66 0 119 28.5t91 80t58.5 123.5t20.5 160v539h147v-1029z" />
    <glyph glyph-name="v" unicode="v" horiz-adv-x="983" 
d="M931 1047l-385 -1028h-146l-396 1028h163l307 -864l305 864h152z" />
    <glyph glyph-name="w" unicode="w" horiz-adv-x="1487" 
d="M1451 1047l-329 -1028h-154l-238 821l-239 -821h-152l-332 1028h158l249 -832l238 832h158l236 -832l250 832h155z" />
    <glyph glyph-name="x" unicode="x" horiz-adv-x="997" 
d="M972 19h-186l-310 415l-302 -415h-182l398 533l-369 495h184l281 -372l273 372h184l-371 -493z" />
    <glyph glyph-name="y" unicode="y" horiz-adv-x="990" 
d="M954 1078l-441 -1173q-27 -72 -52 -116t-56 -69t-71.5 -33.5t-97.5 -8.5q-38 0 -64.5 4t-42.5 9v129q49 -13 98 -13q31 0 54 6t42 22t34.5 45t32.5 75l40 112l-404 1011h156l322 -832l300 832h150z" />
    <glyph glyph-name="z" unicode="z" horiz-adv-x="955" 
d="M897 19h-863v116l643 783h-599v129h793v-104l-650 -797h676v-127z" />
    <glyph glyph-name="uni0901" unicode="&#x901;" 
d="M-403 1968h-158v147h158v-147zM-51 2010q-9 -90 -43 -158t-89.5 -114t-131 -69t-167.5 -23q-89 0 -163.5 23t-130.5 69t-92 114t-49 158h139q21 -262 296 -262q286 0 290 262h141z" />
    <glyph glyph-name="uni0902" unicode="&#x902;" 
d="M-175 1666h-200v198h200v-198z" />
    <glyph glyph-name="uni0903" unicode="&#x903;" horiz-adv-x="581" 
d="M615 1297h-615v109h615v-109zM420 781h-200v197h200v-197zM420 248h-200v198h200v-198z" />
    <glyph glyph-name="uni0905" unicode="&#x905;" horiz-adv-x="1578" 
d="M1613 1297h-231v-1297h-145v621l-16 -3.5t-38 -7t-45 -6.5t-36 -3q-78 0 -163 43q36 -78 36 -170q0 -83 -25 -147.5t-71.5 -109t-111.5 -67.5t-146 -23q-206 0 -428 266q-95 113 -179 264l113 68q255 -491 496 -491q46 0 86 20t69 53t45.5 77t16.5 92q0 62 -20.5 112.5
t-57.5 86.5t-88.5 55.5t-112.5 19.5q-12 0 -33.5 -3.5t-42.5 -8t-37 -8.5t-16 -5l-51 105q35 0 157 27q42 9 76 30t58 51t37 68t13 81q0 210 -197 210q-95 0 -211 -95q-94 -78 -94 -97l-113 82q0 6 20.5 26t51.5 45t67.5 50.5t68.5 41.5q110 56 218 56q70 0 129.5 -23
t102 -63.5t66.5 -96t24 -121.5q0 -186 -161 -272q7 0 24.5 -3.5t43.5 -13.5t60 -28.5t74 -48.5q100 -30 158 -30q18 0 49 6.5t61 14t52 14.5t22 9l-1 547h-256v109h632v-109z" />
    <glyph glyph-name="uni0906" unicode="&#x906;" horiz-adv-x="2138" 
d="M2163 1297h-228v-1297h-145v1297h-408v-1297h-145v621l-16 -3.5t-38 -7t-45 -6.5t-36 -3q-78 0 -163 43q36 -78 36 -170q0 -83 -25 -147.5t-71.5 -109t-111.5 -67.5t-146 -23q-206 0 -428 266q-95 113 -179 264l113 68q255 -491 496 -491q46 0 86 20t69 53t45.5 77
t16.5 92q0 62 -20.5 112.5t-57.5 86.5t-88.5 55.5t-112.5 19.5q-12 0 -33.5 -3.5t-42.5 -8t-37 -8.5t-16 -5l-51 105q35 0 157 27q42 9 76 30t58 51t37 68t13 81q0 210 -197 210q-95 0 -211 -95q-94 -78 -94 -97l-113 82q0 6 20.5 26t51.5 45t67.5 50.5t68.5 41.5
q110 56 218 56q70 0 129.5 -23t102 -63.5t66.5 -96t24 -121.5q0 -186 -161 -272q7 0 24.5 -3.5t43.5 -13.5t60 -28.5t74 -48.5q100 -30 158 -30q18 0 49 6.5t61 14t52 14.5t22 9l-1 547h-256v109h1182v-109z" />
    <glyph glyph-name="uni0907" unicode="&#x907;" horiz-adv-x="1204" 
d="M1237 1297h-313v-358h-572q-16 -3 -16 -25q0 -47 81 -155q102 -136 162 -136q72 0 169 38q48 19 85 29t65 10q33 0 60.5 -16t47.5 -43t31 -63t11 -76q0 -242 -177 -369q-112 -82 -194 -82q0 -1 19.5 -19.5t46.5 -43.5t55 -49.5t45 -36.5q71 -53 116 -83.5t72 -38.5
l-78 -113q-27 17 -84 61.5t-147 116.5q-127 113 -197 197q-60 -6 -79 -6q-52 0 -101.5 16t-88.5 43.5t-63 65.5t-24 82q0 26 10 49.5t27 41t40.5 28t49.5 10.5q99 0 201 -106q82 -85 82 -108q164 13 244.5 93t80.5 216q0 114 -47 114q-18 0 -128 -40q-56 -20 -101.5 -29.5
t-80.5 -9.5q-105 0 -239 173q-125 163 -125 258q0 25 11 46t28.5 36.5t40.5 24t47 8.5h471v249h-781v109h1237v-109z" />
    <glyph glyph-name="uni0908" unicode="&#x908;" horiz-adv-x="1204" 
d="M1237 1297h-313v-358h-572q-16 -3 -16 -25q0 -47 81 -155q102 -136 162 -136q72 0 169 38q48 19 85 29t65 10q33 0 60.5 -16t47.5 -43t31 -63t11 -76q0 -242 -177 -369q-112 -82 -194 -82q0 -1 19.5 -19.5t46.5 -43.5t55 -49.5t45 -36.5q71 -53 116 -83.5t72 -38.5
l-78 -113q-27 17 -84 61.5t-147 116.5q-127 113 -197 197q-60 -6 -79 -6q-52 0 -101.5 16t-88.5 43.5t-63 65.5t-24 82q0 26 10 49.5t27 41t40.5 28t49.5 10.5q99 0 201 -106q82 -85 82 -108q164 13 244.5 93t80.5 216q0 114 -47 114q-18 0 -128 -40q-56 -20 -101.5 -29.5
t-80.5 -9.5q-105 0 -239 173q-125 163 -125 258q0 25 11 46t28.5 36.5t40.5 24t47 8.5h471v249h-781v109h786q-31 33 -59.5 73.5t-56.5 88.5q-82 142 -82 254q0 250 297 250q93 0 160 -34v-107q-55 28 -148 28q-81 0 -128.5 -49t-47.5 -137q0 -180 175 -367h341v-109z" />
    <glyph glyph-name="uni0909" unicode="&#x909;" horiz-adv-x="1471" 
d="M1506 1297h-387q113 -134 113 -263q0 -156 -145 -247q230 -98 230 -370q0 -78 -30 -145t-83.5 -116t-126.5 -77t-159 -28q-210 0 -408 227q-145 166 -263 423q-46 100 -69.5 156.5t-23.5 71.5q0 2 0.5 2.5t0.5 1.5l122 73q-1 -1 -1 -3q0 -26 84 -218q54 -126 110 -226
t116 -179q165 -217 327 -217q254 0 254 271q0 63 -20.5 119t-56 99t-83.5 68t-103 25h-247l-51 112h292q198 0 198 188q0 77 -69 172q-59 80 -74 80h-953v109h1506v-109z" />
    <glyph glyph-name="uni090A" unicode="&#x90a;" horiz-adv-x="1845" 
d="M1869 1297h-874q115 -130 115 -263q0 -169 -157 -256q15 -7 29.5 -15.5t32 -22t38.5 -35t49 -54.5q0 22 91 97q113 92 222 92q63 0 118 -25t96 -67.5t64.5 -99t23.5 -118.5q0 -104 -61 -230q-12 -26 -29 -55.5t-36 -60t-38 -58.5t-35 -49.5t-27 -34.5t-14 -13l-124 69
q231 252 231 435q0 90 -46.5 143.5t-128.5 53.5q-89 0 -177 -99q-71 -80 -71 -101q0 -16 1.5 -29.5t1.5 -26.5q0 -101 -24 -179.5t-71 -132.5t-115.5 -82.5t-158.5 -28.5q-216 0 -379 214q-60 78 -109.5 176t-89.5 222q-56 174 -56 210q0 4 2 10l119 83q-2 -2 -2 -8
q0 -34 48 -200q34 -118 74.5 -213t89.5 -170q134 -206 300 -206q228 0 228 254q0 60 -15.5 113.5t-43 93t-65 63t-81.5 23.5h-209l-53 114h248q30 0 86 41q82 61 82 174q0 78 -67 172q-57 80 -72 80h-830v109h1869v-109z" />
    <glyph glyph-name="uni090B" unicode="&#x90b;" horiz-adv-x="2024" 
d="M2056 1297h-884v-572l328 158q-18 28 -18 64q0 31 12.5 62t34 55.5t49.5 39.5t58 15q140 0 140 -172q0 -20 -15 -43.5t-35 -43t-40.5 -32.5t-30.5 -13l147 -262q-288 -59 -288 -228q0 -221 184 -221q95 0 152 61q38 41 38 63l100 -115q-12 -25 -40 -46.5t-66.5 -37.5
t-85.5 -25.5t-96 -9.5q-74 0 -135.5 24.5t-105.5 68.5t-68 105.5t-24 135.5q0 54 21 104.5t57.5 89t85.5 61.5t105 23l-88 181l-376 -181v-606h-141v544l-585 -431l-88 121l602 395q0 14 -137 157q-147 153 -202 153q-56 0 -254 -92q-184 -87 -184 -94l-90 110q9 13 234 109
q241 102 311 102t237 -174q151 -157 156 -184v581h-1031v109h2056v-109z" />
    <glyph glyph-name="uni090C" unicode="&#x90c;" horiz-adv-x="1749" 
d="M1763 1297h-468v-339q48 -22 86 -58.5t64 -83.5t40 -103.5t14 -117.5q0 -149 -106 -270q-52 -60 -196 -166q-105 -78 -105 -120q0 -38 16.5 -68.5t45.5 -51.5t68.5 -32.5t85.5 -11.5q62 0 121 33t133 96l69 -106l-93 -72q-113 -71 -225 -71q-79 0 -145 19.5t-114 56
t-74.5 88t-26.5 115.5q0 87 105 173q49 40 98 79t98 79q105 111 105 259q0 51 -15.5 92t-43 70.5t-65 45.5t-82.5 16q-55 0 -103 -28t-89.5 -77.5t-76 -118t-62.5 -150.5l-135 63q11 26 37.5 76.5t66.5 119.5q-112 142 -257 142q-57 0 -105 -21t-83.5 -58t-55 -88.5
t-19.5 -112.5q0 -137 93 -249q26 -32 67 -65.5t82 -61.5t75 -45.5t46 -17.5l-66 -122q-24 0 -119 62q-126 81 -206 189q-57 75 -83 154t-26 167t28.5 160t80 122t124.5 77.5t162 27.5q197 0 328 -149q57 67 133.5 100.5t164.5 35.5v317h-1155v109h1763v-109z" />
    <glyph glyph-name="uni090D" unicode="&#x90d;" horiz-adv-x="1218" 
d="M1088 1999q-9 -90 -43 -158t-89.5 -113.5t-131 -68.5t-167.5 -23q-89 0 -163 23t-130 68.5t-92 113.5t-49 158h138q21 -262 296 -262q286 0 290 262h141zM1252 1297h-218v-510q0 -35 -14 -67t-36 -58.5t-50 -47t-55 -33.5q-29 -14 -36 -14l-98 82q24 2 50 13.5t47.5 32.5
t35.5 51t14 69v482h-517v-674l620 -575q10 -3 22 -18t22.5 -36.5t17 -47t6.5 -50.5q0 -37 -17.5 -70t-46.5 -57.5t-66.5 -39t-77.5 -14.5l-119 122q34 -9 69 -9q49 0 81.5 22t32.5 59q0 41 -50 88l-641 598v702h-228v109h1252v-109z" />
    <glyph glyph-name="uni090E" unicode="&#x90e;" horiz-adv-x="1218" 
d="M1252 1297h-218v-510q0 -35 -14 -67t-36 -58.5t-50 -47t-55 -33.5q-29 -14 -36 -14l-98 82q24 2 50 13.5t47.5 32.5t35.5 51t14 69v482h-517v-674l620 -575q10 -3 22 -18t22.5 -36.5t17 -47t6.5 -50.5q0 -37 -17.5 -70t-46.5 -57.5t-66.5 -39t-77.5 -14.5l-119 122
q34 -9 69 -9q49 0 81.5 22t32.5 59q0 41 -50 88l-641 598v702h-228v109h886q-12 57 -37 96t-66.5 64.5t-102 39.5t-143.5 21q-54 5 -104 19t-98 37q-142 67 -142 243q0 64 18 124l73 -6q-1 -11 -1.5 -21.5t-0.5 -20.5q0 -103 35 -162t105 -73q12 -2 47 -7t75.5 -10.5
t75.5 -10t47 -5.5q48 -7 97.5 -28.5t103.5 -56.5q88 -59 121 -243h263v-109z" />
    <glyph glyph-name="uni090F" unicode="&#x90f;" horiz-adv-x="1218" 
d="M1252 1297h-218v-510q0 -35 -14 -67t-36 -58.5t-50 -47t-55 -33.5q-29 -14 -36 -14l-98 82q24 2 50 13.5t47.5 32.5t35.5 51t14 69v482h-517v-674l620 -575q10 -3 22 -18t22.5 -36.5t17 -47t6.5 -50.5q0 -37 -17.5 -70t-46.5 -57.5t-66.5 -39t-77.5 -14.5l-119 122
q34 -9 69 -9q49 0 81.5 22t32.5 59q0 41 -50 88l-641 598v702h-228v109h1252v-109z" />
    <glyph glyph-name="uni0910" unicode="&#x910;" horiz-adv-x="1218" 
d="M1252 1297h-218v-510q0 -35 -14 -67t-36 -58.5t-50 -47t-55 -33.5q-29 -14 -36 -14l-98 82q24 2 50 13.5t47.5 32.5t35.5 51t14 69v482h-517v-674l620 -575q10 -3 22 -18t22.5 -36.5t17 -47t6.5 -50.5q0 -37 -17.5 -70t-46.5 -57.5t-66.5 -39t-77.5 -14.5l-119 122
q34 -9 69 -9q49 0 81.5 22t32.5 59q0 41 -50 88l-641 598v702h-228v109h873l-582 582l122 98l556 -680h283v-109z" />
    <glyph glyph-name="uni0911" unicode="&#x911;" horiz-adv-x="2138" 
d="M1994 1999q-9 -90 -43 -158t-89.5 -113.5t-131 -68.5t-167.5 -23q-89 0 -163 23t-130 68.5t-92.5 113.5t-49.5 158h139q21 -262 296 -262q286 0 290 262h141zM2163 1297h-228v-1297h-145v1297h-408v-1297h-145v621l-16 -3.5t-38 -7t-45 -6.5t-36 -3q-78 0 -163 43
q36 -78 36 -170q0 -83 -25 -147.5t-71.5 -109t-111.5 -67.5t-146 -23q-206 0 -428 266q-95 113 -179 264l113 68q255 -491 496 -491q46 0 86 20t69 53t45.5 77t16.5 92q0 62 -20.5 112.5t-57.5 86.5t-88.5 55.5t-112.5 19.5q-12 0 -33.5 -3.5t-42.5 -8t-37 -8.5t-16 -5
l-51 105q35 0 157 27q42 9 76 30t58 51t37 68t13 81q0 210 -197 210q-95 0 -211 -95q-94 -78 -94 -97l-113 82q0 6 20.5 26t51.5 45t67.5 50.5t68.5 41.5q110 56 218 56q70 0 129.5 -23t102 -63.5t66.5 -96t24 -121.5q0 -186 -161 -272q7 0 24.5 -3.5t43.5 -13.5t60 -28.5
t74 -48.5q100 -30 158 -30q18 0 49 6.5t61 14t52 14.5t22 9l-1 547h-256v109h1182v-109z" />
    <glyph glyph-name="uni0912" unicode="&#x912;" horiz-adv-x="2138" 
d="M2163 1297h-228v-1297h-145v1297h-408v-1297h-145v621l-16 -3.5t-38 -7t-45 -6.5t-36 -3q-78 0 -163 43q36 -78 36 -170q0 -83 -25 -147.5t-71.5 -109t-111.5 -67.5t-146 -23q-206 0 -428 266q-95 113 -179 264l113 68q255 -491 496 -491q46 0 86 20t69 53t45.5 77
t16.5 92q0 62 -20.5 112.5t-57.5 86.5t-88.5 55.5t-112.5 19.5q-12 0 -33.5 -3.5t-42.5 -8t-37 -8.5t-16 -5l-51 105q35 0 157 27q42 9 76 30t58 51t37 68t13 81q0 210 -197 210q-95 0 -211 -95q-94 -78 -94 -97l-113 82q0 6 20.5 26t51.5 45t67.5 50.5t68.5 41.5
q110 56 218 56q70 0 129.5 -23t102 -63.5t66.5 -96t24 -121.5q0 -186 -161 -272q7 0 24.5 -3.5t43.5 -13.5t60 -28.5t74 -48.5q100 -30 158 -30q18 0 49 6.5t61 14t52 14.5t22 9l-1 547h-256v109h809q-13 58 -37.5 97t-66 64t-101.5 39t-143 21q-54 5 -104 19t-98 37
q-142 67 -142 243q0 64 18 124l73 -6q-1 -11 -1.5 -21t-0.5 -19q0 -209 141 -237q7 -1 26 -3.5t44 -6t52.5 -7t52 -7t43.5 -6t27 -3.5q94 -13 200 -85q89 -60 122 -243h268v-109z" />
    <glyph glyph-name="uni0913" unicode="&#x913;" horiz-adv-x="2138" 
d="M2163 1297h-228v-1297h-145v1297h-408v-1297h-145v621l-16 -3.5t-38 -7t-45 -6.5t-36 -3q-78 0 -163 43q36 -78 36 -170q0 -83 -25 -147.5t-71.5 -109t-111.5 -67.5t-146 -23q-206 0 -428 266q-95 113 -179 264l113 68q255 -491 496 -491q46 0 86 20t69 53t45.5 77
t16.5 92q0 62 -20.5 112.5t-57.5 86.5t-88.5 55.5t-112.5 19.5q-12 0 -33.5 -3.5t-42.5 -8t-37 -8.5t-16 -5l-51 105q35 0 157 27q42 9 76 30t58 51t37 68t13 81q0 210 -197 210q-95 0 -211 -95q-94 -78 -94 -97l-113 82q0 6 20.5 26t51.5 45t67.5 50.5t68.5 41.5
q110 56 218 56q70 0 129.5 -23t102 -63.5t66.5 -96t24 -121.5q0 -186 -161 -272q7 0 24.5 -3.5t43.5 -13.5t60 -28.5t74 -48.5q100 -30 158 -30q18 0 49 6.5t61 14t52 14.5t22 9l-1 547h-256v109h796l-580 582l121 98l558 -680h287v-109z" />
    <glyph glyph-name="uni0914" unicode="&#x914;" horiz-adv-x="2138" 
d="M2163 1297h-228v-1297h-145v1297h-408v-1297h-145v621l-16 -3.5t-38 -7t-45 -6.5t-36 -3q-78 0 -163 43q36 -78 36 -170q0 -83 -25 -147.5t-71.5 -109t-111.5 -67.5t-146 -23q-206 0 -428 266q-95 113 -179 264l113 68q255 -491 496 -491q46 0 86 20t69 53t45.5 77
t16.5 92q0 62 -20.5 112.5t-57.5 86.5t-88.5 55.5t-112.5 19.5q-12 0 -33.5 -3.5t-42.5 -8t-37 -8.5t-16 -5l-51 105q35 0 157 27q42 9 76 30t58 51t37 68t13 81q0 210 -197 210q-95 0 -211 -95q-94 -78 -94 -97l-113 82q0 6 20.5 26t51.5 45t67.5 50.5t68.5 41.5
q110 56 218 56q70 0 129.5 -23t102 -63.5t66.5 -96t24 -121.5q0 -186 -161 -272q7 0 24.5 -3.5t43.5 -13.5t60 -28.5t74 -48.5q100 -30 158 -30q18 0 49 6.5t61 14t52 14.5t22 9l-1 547h-256v109h584l-431 286l84 118l445 -404h172l-496 604l142 82l438 -686h244v-109z" />
    <glyph glyph-name="uni0915" unicode="&#x915;" horiz-adv-x="1752" 
d="M1773 1297h-798v-411q96 139 271 139q81 0 149 -26.5t116.5 -73t76 -110t27.5 -138.5q0 -205 -279 -491l-119 85q5 0 28 23t52 57t58.5 72.5t47.5 70.5q63 109 63 197q0 222 -203 222q-115 0 -206 -118q-82 -106 -82 -203v-592h-140v409q-99 -104 -248 -104
q-79 0 -149.5 30.5t-124 82t-84.5 121t-31 147.5t30.5 145t82.5 116.5t121 78t147 28.5q60 0 129 -29v-121q-49 37 -116 37q-50 0 -95 -20t-79 -54t-54 -79.5t-20 -96.5q0 -56 18 -106t50 -88t74.5 -60.5t92.5 -22.5q119 0 199 99q57 70 57 108v676h-835v109h1773v-109z" />
    <glyph glyph-name="uni0916" unicode="&#x916;" horiz-adv-x="1854" 
d="M1871 1297h-229v-1297h-144v275q-284 -182 -545 -182q-268 0 -451 165q-131 119 -239 348q-10 20 -22.5 52t-26.5 68.5t-27.5 73t-24.5 66t-17.5 48.5l-6.5 19l119 62l53 -152q54 -48 130 -48q121 0 121 118v384h-561v109h1871v-109zM1498 408v180q-125 -86 -261 -86
q-64 0 -120.5 22t-98.5 61t-66.5 93t-24.5 117q0 64 24.5 118t67.5 93.5t101 61.5t126 22q64 0 127 -22l36 -112q-49 25 -146 25q-45 0 -81 -13t-61.5 -37t-39 -57t-13.5 -73q0 -186 189 -186q119 0 241 111v571h-798v-367q0 -53 -18 -98.5t-50 -79.5t-77.5 -53t-100.5 -19
q-13 0 -28 2t-28 4.5t-22 5l-9 2.5q0 -25 55 -128q76 -144 186 -234q154 -126 352 -126q258 0 538 202z" />
    <glyph glyph-name="uni0917" unicode="&#x917;" horiz-adv-x="1340" 
d="M1374 1297h-229v-1297h-143v1297h-415v-710q0 -111 -62 -111q-64 0 -189 125q-124 124 -124 197q0 51 73 51h161v448h-446v109h1374v-109z" />
    <glyph glyph-name="uni0918" unicode="&#x918;" horiz-adv-x="1475" 
d="M1491 1297h-228v-1297h-145v437q-244 -160 -453 -160q-77 0 -146 23.5t-122 65t-84 97t-31 118.5q0 113 78 197q57 62 80 62q-39 0 -116 53q-109 76 -109 197q0 27 8.5 60t20.5 63t26 53t26 31h-296v109h1491v-109zM1118 584v713h-650q-11 0 -30.5 -18.5t-38.5 -46.5
t-33 -62t-14 -65q0 -39 18 -73.5t46.5 -61t64.5 -42t72 -15.5h234l48 -98h-155q-47 0 -92.5 -18t-82.5 -49t-59.5 -72.5t-22.5 -88.5q0 -43 20.5 -79.5t55.5 -63.5t81.5 -42t99.5 -15q114 0 262 79q51 28 95 57t81 61z" />
    <glyph glyph-name="uni0919" unicode="&#x919;" horiz-adv-x="1618" 
d="M1573 762h-183v165h183v-165zM1633 1297h-401v-358h-581q-22 0 -22 -35q0 -57 85 -169q85 -114 184 -114q48 0 152 42q105 43 154 43q32 0 58 -16.5t44 -45.5t28 -69t10 -87q0 -101 -30.5 -181.5t-85.5 -137.5t-132.5 -87.5t-171.5 -30.5q-271 0 -560 310
q-123 132 -237 310l107 102q55 -89 110 -165t110 -140q263 -305 470 -305q63 0 114.5 23.5t88.5 66t57 101t20 128.5q0 28 -2.5 47t-10 30t-21.5 15.5t-37 4.5q-19 0 -113 -39q-92 -38 -148 -38q-134 0 -270 171q-126 157 -126 266t145 109h469v249h-1090v109h1633v-109z
" />
    <glyph glyph-name="uni091A" unicode="&#x91a;" horiz-adv-x="1466" 
d="M1491 1297h-228v-1297h-145v483q-190 -187 -424 -187q-71 0 -129.5 21.5t-100.5 60.5t-65.5 94t-23.5 123q0 198 206 332h-443v113h822v-113h-173q-58 0 -151 -84q-117 -105 -117 -242q0 -90 48.5 -141t132.5 -51q227 0 418 260v628h-1118v109h1491v-109z" />
    <glyph glyph-name="uni091B" unicode="&#x91b;" horiz-adv-x="1609" 
d="M1640 1297h-377v-237q60 -21 102 -47t68.5 -60t38 -77t11.5 -98q0 -293 -255 -498q-236 -189 -522 -189q-92 0 -168.5 29t-131.5 80.5t-85.5 122t-30.5 153.5q0 188 150 302q-41 0 -130 65q-124 91 -124 220q0 35 8.5 71t23 68t33.5 57t39 38h-290v109h1640v-109z
M1350 778q0 175 -155 175q-33 0 -60.5 -13.5t-46.5 -38t-29.5 -58.5t-10.5 -75q0 -127 73 -239q53 -83 83 -95q25 13 75 96q71 119 71 248zM1125 1054v243h-657q-21 -5 -76 -75q-35 -43 -51 -79.5t-16 -68.5q0 -44 22.5 -83.5t58.5 -69t81.5 -47t91.5 -17.5q13 0 35 2
t43 4.5t36 5t15 3.5l57 -107q-12 2 -24 3t-24 1q-60 0 -113.5 -22.5t-93.5 -60.5t-63.5 -89.5t-23.5 -108.5q0 -61 24 -114t64.5 -92t95 -61.5t115.5 -22.5q131 0 271 78q104 58 117 82q-27 9 -96 125q-90 151 -90 295q0 121 52 179q33 38 149 97z" />
    <glyph glyph-name="uni091C" unicode="&#x91c;" horiz-adv-x="1702" 
d="M1724 1297h-228v-1297h-144v872h-383q18 -11 64 -92q57 -101 57 -174q0 -74 -22.5 -136t-63.5 -107t-100 -70t-131 -25q-182 0 -340 179q-116 129 -204 334q-68 157 -67 181q0 2 0.5 2.5t0.5 1.5l119 88q-2 -2 -2 -5q0 -14 13.5 -56.5t42.5 -117.5q38 -100 80.5 -181
t92.5 -146q132 -176 278 -176q35 0 65.5 17.5t53 48t35 71t12.5 86.5q0 108 -102 254q-89 126 -106 126h607v322h-1352v109h1724v-109z" />
    <glyph glyph-name="uni091D" unicode="&#x91d;" horiz-adv-x="1618" 
d="M1637 1297h-229v-1297h-143v562q-84 -32 -132 -32q-15 0 -34.5 2.5t-42 7.5t-46.5 11.5t-47 15.5l12 -79q0 -169 -160 -281q-64 -34 -112 -50t-82 -16q15 -11 42.5 -27.5t63 -36t78 -41t87.5 -42.5l-116 -114q-14 7 -56.5 31.5t-106.5 73.5q-31 20 -66.5 53.5t-93.5 85.5
l-21 -3q-17 -2 -30.5 -2.5t-25.5 -0.5q-40 0 -76 10t-63 28.5t-43 45.5t-16 61q0 22 8.5 42.5t23 36t34 24.5t41.5 9q83 0 163 -69q63 -56 63 -72q324 34 324 277q0 27 -2 44.5t-10 27.5t-23 14t-41 4q-6 0 -33 -6.5t-60.5 -14.5t-67.5 -14.5t-54 -6.5q-121 0 -245 148
q-113 136 -113 232q0 121 142 121h408v237h-736v109h1637v-109zM1265 681v616h-388v-350h-519q-27 0 -27 -22q0 -7 8.5 -27.5t24 -47.5t37.5 -57t49.5 -55t60 -41.5t68.5 -16.5q31 0 59.5 6.5t56 14.5t55 14.5t57.5 6.5q25 0 51 -10t47 -22t35 -22t16 -11q69 -28 141 -28
q95 0 168 52z" />
    <glyph glyph-name="uni091E" unicode="&#x91e;" horiz-adv-x="1554" 
d="M1578 1297h-228v-1297h-145v588q-22 -7 -58 -7q-71 0 -194 48q0 -94 -65 -213q-113 -204 -355 -204q-132 0 -305 89q-137 71 -149 94l90 107q207 -183 364 -183q65 0 117 24.5t88 69.5t55.5 109t19.5 143q0 316 -266 316q-17 0 -42 -8t-51 -19.5t-48.5 -25t-33.5 -24.5
l-95 111q157 81 256 81q150 0 257.5 -89.5t156.5 -270.5q85 -42 135 -42q69 0 123 27v576h-1205v109h1578v-109z" />
    <glyph glyph-name="uni091F" unicode="&#x91f;" horiz-adv-x="1373" 
d="M1384 1297h-321v-420h-484q-50 0 -94.5 -19t-78 -52t-53.5 -77t-20 -94q0 -86 36.5 -164.5t98 -139.5t143 -97t170.5 -36q239 0 363 205l119 -70q-173 -254 -462 -254q-242 0 -423 168q-180 166 -180 397q0 73 27.5 137t75 111.5t111 75t135.5 27.5h377v302h-924v109
h1384v-109z" />
    <glyph glyph-name="uni0920" unicode="&#x920;" horiz-adv-x="1373" 
d="M1384 1297h-330v-405h-507q-48 0 -88 -20.5t-69.5 -55.5t-45.5 -81t-16 -97q0 -179 139 -311q66 -63 134.5 -92t143.5 -29q69 0 130 23.5t107 63.5t73 94t27 115q0 34 -11 71t-28.5 70t-38 58t-38.5 35l97 91q35 -23 63.5 -59t48.5 -79.5t31 -93t11 -99.5q0 -88 -35 -161
t-97.5 -125.5t-149.5 -82t-190 -29.5q-222 0 -388 159q-171 162 -171 387q0 81 28.5 147.5t79 114.5t120.5 74t153 26h346v291h-913v109h1384v-109z" />
    <glyph glyph-name="uni0921" unicode="&#x921;" horiz-adv-x="1475" 
d="M1497 1297h-293v-358h-553q-21 0 -21 -32q0 -53 85 -168q85 -114 157 -114q15 0 26 4q282 77 306 77q32 0 58 -16.5t44 -45.5t28 -69t10 -87q0 -101 -30.5 -181.5t-85.5 -137.5t-132.5 -87.5t-171.5 -30.5q-193 0 -398 159q-75 58 -146.5 132.5t-141.5 165.5
q-111 145 -111 163l107 102q0 -10 25 -50.5t79 -115.5q64 -88 128.5 -160.5t130.5 -129.5q178 -154 327 -154q64 0 116 24t88.5 67t56 101.5t19.5 126.5q-1 28 -3.5 47t-10 30t-21 15.5t-36.5 4.5q-19 0 -113 -39q-92 -38 -148 -38q-134 0 -270 171q-126 157 -126 266
t145 109h442v249h-1063v109h1497v-109z" />
    <glyph glyph-name="uni0922" unicode="&#x922;" horiz-adv-x="1355" 
d="M1379 1297h-331v-411h-487q-50 0 -93 -17.5t-75 -49.5t-50 -76.5t-18 -98.5q0 -189 117 -313q30 -32 75.5 -62t94 -53.5t93.5 -38t73 -14.5q-17 9 -36 35t-35 61t-26 75.5t-10 79.5q0 54 21.5 102t58.5 84t85.5 56.5t102.5 20.5q58 0 109 -20.5t88.5 -57t59 -87
t21.5 -111.5q0 -77 -31.5 -139.5t-86.5 -106.5t-130 -68.5t-162 -24.5q-237 0 -424 162q-200 173 -200 414q0 74 26.5 137t73.5 109.5t111 72.5t139 26h371v314h-904v109h1379v-109zM1082 395q0 78 -36 122t-99 44q-32 0 -59.5 -12t-48 -33.5t-32.5 -51t-12 -63.5
q0 -169 123 -218q35 0 64.5 18t51 47.5t34.5 67.5t14 79z" />
    <glyph glyph-name="uni0923" unicode="&#x923;" horiz-adv-x="1554" 
d="M1578 1297h-228v-1297h-145v1297h-307v-519q0 -77 -22 -139.5t-63 -106.5t-100 -68t-134 -24q-76 0 -138.5 24t-107 68t-69 104.5t-24.5 134.5v526h-240v109h1578v-109zM759 778v519h-378v-526q0 -106 49 -166.5t140 -60.5q189 0 189 234z" />
    <glyph glyph-name="uni0924" unicode="&#x924;" horiz-adv-x="1355" 
d="M1374 1297h-229v-1297h-143v883h-514q-192 0 -192 -153q0 -143 97 -300q19 -31 45.5 -66t56 -70.5t60 -68t55.5 -57.5t43 -40t24 -15l-90 -93q-15 0 -115 99q-63 63 -114 126t-91 128q-109 178 -109 343q0 62 18.5 111.5t52.5 84t82.5 53t108.5 18.5h582v314h-1002v109
h1374v-109z" />
    <glyph glyph-name="uni0925" unicode="&#x925;" horiz-adv-x="1475" 
d="M1491 1297h-228v-1297h-145v479q-188 -194 -464 -194q-202 0 -360 122q-110 84 -187 227q-54 99 -54 125q126 -43 226 -43q76 0 144.5 25.5t119.5 70t81 104.5t30 129q0 54 -20.5 103t-55 86.5t-80.5 60t-97 22.5q-39 0 -71.5 -11.5t-55.5 -32.5t-36 -49.5t-13 -62.5
q0 -27 12.5 -52.5t33.5 -44.5t48 -30.5t56 -11.5q16 0 31 3v-98q-321 0 -321 240q0 60 24 108.5t67 82.5t102 52.5t128 18.5q85 0 156 -29t123 -81t81 -123t29 -155q0 -230 -174 -348q-127 -88 -282 -88q-49 0 -62 10q10 -35 99 -96q128 -89 287 -89q284 0 455 236v631h-241
v109h614v-109z" />
    <glyph glyph-name="uni0926" unicode="&#x926;" horiz-adv-x="1364" 
d="M1379 1297h-305v-370h-524q-46 0 -84 -13t-65.5 -37t-42.5 -58t-15 -76q0 -91 27.5 -159t79 -113.5t125.5 -68t167 -22.5q55 0 108 9q-12 42 -12 84q0 148 145 148q29 0 54 -12t43 -32.5t28.5 -47t10.5 -55.5q0 -32 -12.5 -65t-30 -59.5t-37 -43t-33.5 -16.5
q0 -11 17 -47.5t43.5 -86t58.5 -104.5t62 -103h-175q0 9 -62 144q-18 39 -34.5 79t-29.5 82q-20 -2 -42 -3.5t-48 -1.5q-134 0 -241.5 31.5t-184 92t-120.5 148.5t-52 201q-1 4 -1 12v12q0 63 25 117.5t67 95t98 63.5t118 23h416v252h-921v109h1379v-109z" />
    <glyph glyph-name="uni0927" unicode="&#x927;" horiz-adv-x="1326" 
d="M1344 1297h-228v-1297h-144v461q-50 -62 -135 -114q-72 -44 -149.5 -64t-162.5 -20q-75 0 -142.5 23t-118.5 63.5t-81 95.5t-30 119q0 37 11 75t29.5 71.5t43.5 60.5t53 42q-234 154 -234 345q0 277 283 277q52 0 98.5 -16.5t80.5 -46t54 -69.5t20 -86v-84h-121v84
q0 113 -127 113q-64 0 -103.5 -45.5t-39.5 -123.5q0 -199 183 -292q82 38 214 38q7 0 73 -6l65 -109q1 0 -9.5 1t-32.5 3q-21 2 -39 3.5t-34 1.5q-69 0 -128 -17t-102 -47.5t-67.5 -73t-24.5 -93.5q0 -45 17 -81.5t47 -62.5t72 -40t92 -14q154 0 300 108q93 68 145 143v674
h-278v109h650v-109z" />
    <glyph glyph-name="uni0928" unicode="&#x928;" horiz-adv-x="1332" 
d="M1344 1297h-228v-1297h-144v821h-467v-257q-9 -34 -59 -34q-40 0 -161 135q-122 134 -122 178q0 90 105 90h704v364h-972v109h1344v-109z" />
    <glyph glyph-name="uni0929" unicode="&#x929;" horiz-adv-x="1332" 
d="M1344 1297h-228v-1297h-144v821h-467v-257q-9 -34 -59 -34q-40 0 -161 135q-122 134 -122 178q0 90 105 90h704v364h-972v109h1344v-109zM464 30h-199v163h199v-163z" />
    <glyph glyph-name="uni092A" unicode="&#x92a;" horiz-adv-x="1203" 
d="M1227 1297h-228v-1297h-143v540q-124 -91 -255 -91q-88 0 -159 27.5t-121.5 77t-78 119t-27.5 154.5v470h-215v109h1227v-109zM856 709v588h-498v-496q0 -118 64.5 -183t175.5 -65q132 0 258 156z" />
    <glyph glyph-name="uni092B" unicode="&#x92b;" horiz-adv-x="1726" 
d="M1754 1297h-798v-405q114 128 253 128q73 0 139 -27t115.5 -74t78.5 -110.5t29 -136.5q0 -119 -68 -243q-20 -36 -51.5 -77.5t-63 -78t-58 -62t-36.5 -28.5l-119 88q249 163 249 420q0 99 -55 156t-155 57q-94 0 -185 -112q-73 -88 -73 -115v-677h-141v547
q-107 -101 -262 -101q-81 0 -146 25.5t-110.5 72t-70.5 112t-25 145.5v496h-201v109h1754v-109zM815 765v532h-471v-519q0 -225 200 -225q53 0 102 19t86.5 49t60 68t22.5 76z" />
    <glyph glyph-name="uni092C" unicode="&#x92c;" horiz-adv-x="1203" 
d="M1227 1297h-228v-1297h-143v390q-121 -94 -277 -94q-89 0 -167 29.5t-136 81t-92 122t-34 151.5q0 84 31.5 155.5t86.5 123t130.5 80.5t162.5 29q14 0 41.5 -4t54.5 -9t47.5 -9.5t20.5 -5.5l26 -122q0 1 -18.5 6.5t-45 12t-56.5 11.5t-52 5q-141 0 -204 -70l481 -324v738
h-856v109h1227v-109zM801 494l-485 321q-31 -52 -31 -129q0 -64 23 -116t63.5 -89t97 -57.5t123.5 -20.5q28 0 62.5 10t65.5 24t53.5 29.5t27.5 27.5z" />
    <glyph glyph-name="uni092D" unicode="&#x92d;" horiz-adv-x="1361" 
d="M1403 1297h-229v-1297h-144v644h-421v-204q0 -73 -56 -73q-43 0 -184 142t-141 191q0 11 8 22.5t19 21t23.5 15.5t20.5 6h169v444q0 127 -140 127q-57 0 -92 -39t-35 -102q0 -71 42 -141l-127 -1q-2 0 -8.5 15.5t-14 37.5t-13.5 45.5t-6 40.5q0 58 18.5 105t52.5 79.5
t83 50t111 17.5q55 0 104.5 -18t86 -50.5t58 -77t21.5 -97.5v-436h421v532h-300v109h673v-109z" />
    <glyph glyph-name="uni092E" unicode="&#x92e;" horiz-adv-x="1320" 
d="M1344 1297h-228v-1297h-144v688h-481v-194q0 -62 -57 -62q-53 0 -173 127t-120 177q0 71 79 71h124v490h-344v109h1344v-109zM972 807v490h-481v-490h481z" />
    <glyph glyph-name="uni092F" unicode="&#x92f;" horiz-adv-x="1375" 
d="M1403 1297h-229v-1297h-144v412q-179 -149 -346 -149q-298 0 -425 268q-67 140 -67 276q2 0 35 -10t58 -10q240 0 240 233q0 125 -135 277h-390v109h1403v-109zM1030 591v706h-469q6 -4 21 -27.5t36 -67.5q26 -55 39 -102t14 -88q0 -186 -156 -277q-94 -55 -163 -55
q0 -57 61 -142q96 -137 278 -137q213 0 339 190z" />
    <glyph glyph-name="uni0930" unicode="&#x930;" horiz-adv-x="1083" 
d="M1116 1297h-273v-358q0 -59 -23.5 -107.5t-64 -83t-95 -53.5t-117.5 -19q-49 0 -89 15q40 -81 195 -282q15 -20 41.5 -51t57 -65.5t61.5 -69t56.5 -62.5t42 -45.5l16.5 -17.5l-103 -98q-5 5 -16 17.5t-25.5 28.5t-30.5 34t-30 34.5t-25 29.5t-16 18q-81 96 -148 180.5
t-121 162.5q-185 268 -276 448l110 81l109 -191q7 -12 24 -23.5t39 -21t47.5 -15t48.5 -5.5q189 0 189 175v344h-700v109h1116v-109z" />
    <glyph glyph-name="uni0931" unicode="&#x931;" horiz-adv-x="1083" 
d="M1116 1297h-273v-358q0 -59 -23.5 -107.5t-64 -83t-95 -53.5t-117.5 -19q-49 0 -89 15q40 -81 195 -282q15 -20 41.5 -51t57 -65.5t61.5 -69t56.5 -62.5t42 -45.5l16.5 -17.5l-103 -98q-5 5 -16 17.5t-25.5 28.5t-30.5 34t-30 34.5t-25 29.5t-16 18q-81 96 -148 180.5
t-121 162.5q-185 268 -276 448l110 81l109 -191q7 -12 24 -23.5t39 -21t47.5 -15t48.5 -5.5q189 0 189 175v344h-700v109h1116v-109zM435 30h-200v163h200v-163z" />
    <glyph glyph-name="glyph448" horiz-adv-x="1606" 
d="M1637 1297h-229v-1297h-143v822q-113 -29 -197 -114q-26 -26 -51.5 -62.5t-46.5 -73.5t-35 -69.5t-17 -48.5l-117 63q0 15 22.5 63.5t68.5 127.5q-12 30 -80 80q-96 69 -203 69q-60 0 -108.5 -19t-83.5 -54t-54 -83.5t-19 -108.5q0 -136 119 -261q85 -90 221 -162
q104 -56 123 -56l-68 -122q-25 0 -144 71q-158 92 -254 207q-136 160 -135 332q0 87 27.5 156.5t79 117.5t126 74t167.5 26q135 0 258 -84q76 -53 102 -90q16 13 43 34t64.5 42t85.5 40t106 30v350h-1265v109h1637v-109z" />
    <glyph glyph-name="uni0933" unicode="&#x933;" horiz-adv-x="1609" 
d="M1633 1297h-387v-285q13 0 37.5 -14t52.5 -36.5t54.5 -51t44.5 -56.5q65 -107 65 -253q0 -93 -25 -172.5t-71 -137t-111.5 -90t-145.5 -32.5q-239 0 -317 234q-15 -55 -45.5 -100.5t-72.5 -78.5t-93 -51t-108 -18q-75 0 -139.5 35t-112 95t-74.5 140t-27 170q0 84 28 159
t76.5 131t114.5 88.5t142 32.5q225 0 316 -214q0 8 13 31t32 49.5t40.5 51t39.5 36.5q76 49 145 52v285h-1105v109h1633v-109zM1350 595q0 303 -211 303q-113 0 -188 -145q-54 -104 -54 -148q0 -8 1 -10q-1 -2 -1 -9q0 -20 7.5 -50.5t20 -63.5t29 -64t33.5 -52
q33 -41 76 -60t95 -19q192 0 192 318zM773 595q0 56 -49 153q-75 148 -207 148q-48 0 -86 -23t-65 -63.5t-41.5 -96t-14.5 -121.5q0 -324 207 -324q132 0 207 162q49 104 49 165z" />
    <glyph glyph-name="uni0934" unicode="&#x934;" horiz-adv-x="1609" 
d="M1633 1297h-387v-285q13 0 37.5 -14t52.5 -36.5t54.5 -51t44.5 -56.5q65 -107 65 -253q0 -93 -25 -172.5t-71 -137t-111.5 -90t-145.5 -32.5q-239 0 -317 234q-15 -55 -45.5 -100.5t-72.5 -78.5t-93 -51t-108 -18q-75 0 -139.5 35t-112 95t-74.5 140t-27 170q0 84 28 159
t76.5 131t114.5 88.5t142 32.5q225 0 316 -214q0 8 13 31t32 49.5t40.5 51t39.5 36.5q76 49 145 52v285h-1105v109h1633v-109zM1350 595q0 303 -211 303q-113 0 -188 -145q-54 -104 -54 -148q0 -8 1 -10q-1 -2 -1 -9q0 -20 7.5 -50.5t20 -63.5t29 -64t33.5 -52
q33 -41 76 -60t95 -19q192 0 192 318zM773 595q0 56 -49 153q-75 148 -207 148q-48 0 -86 -23t-65 -63.5t-41.5 -96t-14.5 -121.5q0 -324 207 -324q132 0 207 162q49 104 49 165zM960 -175h-199v163h199v-163z" />
    <glyph glyph-name="uni0935" unicode="&#x935;" horiz-adv-x="1235" 
d="M1257 1297h-229v-1297h-142v424q-126 -108 -294 -108q-86 0 -161 29t-130 81t-86.5 122.5t-31.5 154.5q0 82 27.5 151t76.5 118.5t115.5 77t144.5 27.5q88 0 183 -37l29 -116q-86 42 -198 42q-233 0 -233 -275q0 -57 19 -106t52.5 -85t80 -56.5t101.5 -20.5
q154 0 305 160v714h-886v109h1257v-109z" />
    <glyph glyph-name="glyph452" horiz-adv-x="1621" 
d="M1637 1297h-229v-1297h-143v1297h-452q143 -110 143 -316q0 -274 -228 -415q-149 -92 -274 -92l444 -381l-91 -99l-652 559l93 96l91 -76q216 0 338 104q131 113 131 248v19q-1 1 -1 4v1v-3q0 -7 -72 -53q-88 -58 -176 -58q-68 0 -126 21.5t-100 60t-66 91.5t-24 117
q0 105 79 172h-322v109h1637v-109zM792 1096q0 33 -50 104q-72 102 -181 102q-82 0 -128 -47t-46 -125q0 -36 15 -69.5t40.5 -58.5t59 -40t71.5 -15q97 0 168 72q51 52 51 77z" />
    <glyph glyph-name="uni0937" unicode="&#x937;" horiz-adv-x="1232" 
d="M1257 1297h-229v-1297h-142v499q-137 -90 -271 -90q-81 0 -152.5 27.5t-125.5 74.5t-85.5 111t-31.5 137v538h-220v109h1257v-109zM886 766v531h-496zM877 629l-510 552v-428q0 -54 18 -97.5t51.5 -73.5t80.5 -46.5t104 -16.5q37 0 78.5 11t78 27.5t63.5 35.5t36 36z" />
    <glyph glyph-name="uni0938" unicode="&#x938;" horiz-adv-x="1574" 
d="M1608 1297h-229v-1297h-144v708h-349l-94 113h443v476h-476v-358q0 -113 -14 -160q-20 -64 -73.5 -99t-135.5 -35q-39 0 -73 12q23 -46 66 -111.5t106 -150.5q18 -25 45 -58.5t60.5 -72t72 -81t79.5 -85.5l-114 -98q-5 7 -23.5 30t-40 49t-40 49t-24.5 30
q-75 94 -138 179.5t-117 167.5q-71 106 -131.5 209.5t-113.5 209.5l113 71l81 -152q48 -90 152 -90q121 0 121 129q0 6 -0.5 16t-0.5 20q0 11 -0.5 20.5t-0.5 14.5v344h-615v109h1608v-109z" />
    <glyph glyph-name="uni0939" unicode="&#x939;" horiz-adv-x="1273" 
d="M1317 1297h-292v-356h-644q-51 0 -51 -38q0 -31 32 -85t106 -141q117 39 240 39q408 0 408 -282q0 -147 -135 -214l-104 76q92 45 92 144q0 166 -251 166q-84 0 -151.5 -18t-115 -52t-73.5 -82.5t-26 -109.5q0 -54 30.5 -102.5t89 -89.5t143 -73.5t191.5 -54.5
q117 -24 150 -24q11 0 13 3l-45 -94q-5 -3 -20 -3q-22 0 -64 6.5t-108 19.5q-207 42 -343 128q-183 115 -183 292q0 173 161 269q-184 184 -184 320q0 119 127 119h573v237h-883v109h1317v-109z" />
    <glyph glyph-name="uni093C" unicode="&#x93c;" 
d="M-517 -203h-199v164h199v-164z" />
    <glyph glyph-name="uni093D" unicode="&#x93d;" horiz-adv-x="1144" 
d="M1054 339q0 -80 -32.5 -146t-90.5 -113.5t-136.5 -73.5t-171.5 -26q-164 0 -367 137q-157 106 -177 146l99 95q6 -35 143 -143q163 -130 294 -130q64 0 118 16t93.5 46.5t61.5 74t22 97.5q0 104 -192 274l-357 297q-192 172 -192 285q0 112 69.5 171.5t193.5 59.5h534
v-109h-543q-24 0 -47 -8.5t-40.5 -23t-28.5 -34.5t-11 -44q0 -62 196 -225q162 -134 252.5 -211t112.5 -97q197 -189 197 -315z" />
    <glyph glyph-name="uni093E" unicode="&#x93e;" horiz-adv-x="581" 
d="M615 1297h-228v-1297h-144v1297h-243v109h615v-109z" />
    <glyph glyph-name="uni093F" unicode="&#x93f;" horiz-adv-x="581" 
d="M1556 1395h-172q0 13 -115 134q-72 76 -143 136.5t-142 108.5q-197 130 -363 132q-59 0 -111.5 -22.5t-91.5 -63t-62 -96t-23 -120.5q0 -102 48 -198h234v-109h-228v-1297h-144v1297h-243v109h254q-59 121 -59 215t30.5 168.5t87.5 126t138.5 78.5t183.5 27
q286 0 632 -313q144 -132 289 -313z" />
    <glyph glyph-name="uni0940" unicode="&#x940;" horiz-adv-x="581" 
d="M615 1297h-228v-1297h-144v1297h-243v109h243q0 1 0.5 1.5t0.5 2.5q0 11 -11 41t-32 82q-59 141 -142 230q-116 123 -262 123q-189 0 -189 -217q0 -144 90 -274h-130q-98 149 -98 274q0 76 22 136.5t64 102.5t102 64t136 22q199 0 349 -151q107 -110 179 -282
q25 -61 36.5 -99.5t13.5 -55.5h243v-109z" />
    <glyph glyph-name="uni0941" unicode="&#x941;" 
d="M33 -290q0 -75 -29.5 -137.5t-82 -107t-126.5 -69.5t-162 -25q-322 0 -593 285l88 116q220 -283 488 -283q57 0 106 17t86 47.5t58 72t21 89.5q0 37 -13 68.5t-36 54.5t-53.5 36t-66.5 13q-28 0 -58.5 -13t-55.5 -31t-41.5 -37t-16.5 -31l-110 98q18 27 49.5 52
t71.5 43.5t85 29.5t90 11q62 0 117 -22.5t96 -62.5t64.5 -95t23.5 -119z" />
    <glyph glyph-name="uni0942" unicode="&#x942;" 
d="M144 -609l-121 -62q1 1 1 11q0 28 -26 137q-24 97 -59.5 173.5t-81.5 129t-101.5 80t-119.5 27.5q-39 0 -73.5 -15t-60 -40.5t-40.5 -59.5t-15 -71q1 -37 15.5 -68.5t38.5 -54.5t56 -36t68 -13q32 0 64.5 12.5t67.5 35.5l71 -113q-96 -48 -206 -48q-68 0 -126 22
t-100 61.5t-66 93.5t-24 118q0 63 25.5 117.5t70 95t103.5 64t126 23.5q192 0 326 -159q48 -58 84.5 -132.5t65.5 -165.5q19 -60 27.5 -100.5t9.5 -62.5z" />
    <glyph glyph-name="uni0943" unicode="&#x943;" 
d="M-23 -517q-23 -11 -45 -23t-44 -23q-105 -43 -221 -43q-73 0 -139.5 23.5t-117 64.5t-80.5 98t-30 124q0 63 25.5 117.5t69 94t102.5 62t125 22.5h183v-107h-154q-45 0 -83.5 -13t-66.5 -36.5t-44 -56.5t-16 -72q0 -44 19.5 -81.5t53 -65t78.5 -43.5t95 -16
q51 0 105.5 21.5t114.5 60.5z" />
    <glyph glyph-name="uni0944" unicode="&#x944;" 
d="M51 -618q-116 -65 -234 -65q-63 0 -119 17t-98 47t-66.5 72t-24.5 93q0 81 77 147q-133 43 -133 169q0 189 327 189l34 -102q-5 3 -24 3q-42 0 -78 -7.5t-63 -21.5t-42.5 -33.5t-15.5 -42.5q0 -17 7 -34.5t19 -31.5t27 -23t31 -9q82 20 122 20q12 0 31 -1.5t36.5 -4
t30 -4.5l12.5 -2l45 -104q-40 7 -70.5 10.5t-53.5 3.5q-175 0 -175 -124q0 -122 155 -122q77 0 178 71z" />
    <glyph glyph-name="uni0945" unicode="&#x945;" 
d="M-51 1999q-9 -90 -43 -158t-89.5 -113.5t-131 -68.5t-167.5 -23q-89 0 -163 23t-130 68.5t-92.5 113.5t-49.5 158h139q21 -262 296 -262q286 0 290 262h141z" />
    <glyph glyph-name="uni0946" unicode="&#x946;" 
d="M-206 1395h-104q-7 20 -14 41t-14 41q-20 38 -46 64t-63.5 43t-89.5 27t-124 16q-103 9 -202 56q-141 67 -141 242q0 63 18 125l72 -6q-1 -11 -1.5 -21t-0.5 -19q0 -209 141 -237q7 -1 26 -3.5t44 -6t52.5 -7t52 -7t43.5 -6t27 -3.5q94 -13 200 -85q61 -41 98 -150
q26 -80 26 -104z" />
    <glyph glyph-name="uni0947" unicode="&#x947;" 
d="M-189 1395h-96l-592 593l121 98z" />
    <glyph glyph-name="uni0948" unicode="&#x948;" 
d="M-196 1395h-82l-514 615l141 82zM-506 1395h-93l-438 297l84 118z" />
    <glyph glyph-name="uni0949" unicode="&#x949;" horiz-adv-x="581" 
d="M738 1999q-9 -90 -43 -158t-89.5 -113.5t-131 -68.5t-167.5 -23q-89 0 -163 23t-130 68.5t-92.5 113.5t-49.5 158h139q21 -262 296 -262q286 0 290 262h141zM615 1297h-228v-1297h-144v1297h-243v109h615v-109z" />
    <glyph glyph-name="uni094A" unicode="&#x94a;" horiz-adv-x="581" 
d="M615 1297h-228v-1297h-144v1297h-243v109h272q-12 57 -37 96t-66.5 64.5t-102 39.5t-143.5 21q-71 7 -133.5 26.5t-109 55.5t-73.5 89t-27 127q0 63 18 125l72 -6q-1 -11 -1.5 -21t-0.5 -19q0 -104 35 -163.5t106 -73.5q12 -2 47 -7t75.5 -10.5t75.5 -10t47 -5.5
q48 -7 97.5 -28.5t103.5 -56.5q89 -60 122 -243h238v-109z" />
    <glyph glyph-name="uni094B" unicode="&#x94b;" horiz-adv-x="581" 
d="M615 1297h-228v-1297h-144v1297h-243v109h288l-581 582l122 98l557 -680h229v-109z" />
    <glyph glyph-name="uni094C" unicode="&#x94c;" horiz-adv-x="581" 
d="M615 1297h-228v-1297h-144v1297h-243v109h134l-431 286l84 118l445 -404h172l-496 604l142 82l438 -686h127v-109z" />
    <glyph glyph-name="uni094D" unicode="&#x94d;" 
d="M101 -576l-62 -62l-456 342l110 118z" />
    <glyph glyph-name="uni0950" unicode="&#x950;" horiz-adv-x="2077" 
d="M1519 1669h-166v155h166v-155zM1940 1782q0 -93 -40 -174t-109 -141.5t-160 -95.5t-193 -35t-193 35t-159 95.5t-107.5 141.5t-39.5 174h143q0 -72 26.5 -133.5t74 -107t112.5 -71.5t143 -26q75 0 140.5 26t113.5 72t76 107.5t28 132.5h144zM1982 609q0 -83 -26.5 -157.5
t-72.5 -131t-108.5 -89.5t-134.5 -33q-127 0 -225 101l68 118q0 -15 44 -61q55 -57 116 -57q46 0 83.5 26t64 70.5t41 102.5t14.5 123q-2 96 -14 160.5t-37.5 103t-66 55t-98.5 16.5q-24 0 -59.5 -21.5t-76.5 -55t-85 -73.5t-85 -77q-55 -42 -104 -61t-95 -19q-19 0 -46 4
t-51.5 9t-42 9.5t-17.5 5.5q72 -111 72 -203q0 -81 -26.5 -145t-74 -109t-114 -69t-145.5 -24q-76 0 -152.5 34.5t-154.5 101.5q-57 49 -110.5 112t-105.5 141q-81 121 -81 141l116 68q248 -491 494 -491q45 0 83.5 19t67 52t45 77t16.5 94q0 63 -20.5 113.5t-57.5 86
t-87 55t-110 19.5q-12 -1 -34.5 -4.5t-44 -8t-37.5 -8t-16 -4.5l-45 105q30 0 155 27q180 39 180 230q0 210 -194 210q-94 0 -210 -95q-48 -40 -71.5 -64.5t-23.5 -32.5l-110 82q0 6 20 26t51 45t67 50.5t68 41.5q55 27 109 41.5t108 14.5q70 0 128.5 -22.5t100.5 -63
t65.5 -96.5t23.5 -122q0 -190 -154 -272q12 -1 57 -18.5t123 -52.5q40 -22 99 -22q157 0 279 140q167 191 323 191q82 0 146 -32t107.5 -91.5t66 -144.5t22.5 -191z" />
    <glyph glyph-name="uni0951" unicode="&#x951;" 
d="M-189 1586h-121v495h121v-495z" />
    <glyph glyph-name="uni0952" unicode="&#x952;" 
d="M-243 -334h-1185v102h1185v-102z" />
    <glyph glyph-name="uni0953" unicode="&#x953;" horiz-adv-x="707" 
d="M567 1543l-91 -77l-355 454l100 82z" />
    <glyph glyph-name="uni0954" unicode="&#x954;" horiz-adv-x="705" 
d="M613 1923l-355 -455l-100 78l356 458z" />
    <glyph glyph-name="uni0958" unicode="&#x958;" horiz-adv-x="1752" 
d="M1773 1297h-798v-411q55 69 132.5 104.5t171.5 35.5q72 0 133.5 -27.5t106.5 -75t70.5 -111t25.5 -135.5q0 -205 -279 -491l-119 85q5 0 28 23t52 57t58.5 72.5t47.5 70.5q63 109 63 197q0 45 -16 80t-45.5 59t-70.5 37t-90 13q-121 0 -202 -111q-67 -91 -67 -177v-592
h-140v409q-99 -104 -248 -104q-79 0 -149.5 30.5t-124 82t-84.5 121t-31 147.5t30.5 145t82.5 116.5t121 78t147 28.5q60 0 129 -29v-121q-49 37 -116 37q-50 0 -95 -20t-79 -54t-54 -79.5t-20 -96.5q0 -56 18 -106t50 -88t74.5 -60.5t92.5 -22.5q119 0 199 99q57 70 57 108
v676h-835v109h1773v-109zM386 13h-201v198h201v-198z" />
    <glyph glyph-name="uni0959" unicode="&#x959;" horiz-adv-x="1854" 
d="M1871 1297h-229v-1297h-144v275q-284 -182 -545 -182q-268 0 -451 165q-131 119 -239 348q-10 20 -22.5 52t-26.5 68.5t-27.5 73t-24.5 66t-17.5 48.5l-6.5 19l119 62l53 -152q54 -48 130 -48q121 0 121 118v384h-561v109h1871v-109zM1498 408v180q-125 -86 -261 -86
q-64 0 -120.5 22t-98.5 61t-66.5 93t-24.5 117q0 64 24.5 118t67.5 93.5t101 61.5t126 22q64 0 127 -22l36 -112q-49 25 -146 25q-45 0 -81 -13t-61.5 -37t-39 -57t-13.5 -73q0 -186 189 -186q119 0 241 111v571h-798v-367q0 -53 -18 -98.5t-50 -79.5t-77.5 -53t-100.5 -19
q-13 0 -28 2t-28 4.5t-22 5l-9 2.5q0 -25 55 -128q76 -144 186 -234q154 -126 352 -126q258 0 538 202zM356 13h-200v198h200v-198z" />
    <glyph glyph-name="uni095A" unicode="&#x95a;" horiz-adv-x="1340" 
d="M1374 1297h-229v-1297h-143v1297h-415v-710q0 -111 -62 -111q-64 0 -189 125q-124 124 -124 197q0 51 73 51h161v448h-446v109h1374v-109zM473 13h-200v198h200v-198z" />
    <glyph glyph-name="uni095B" unicode="&#x95b;" horiz-adv-x="1702" 
d="M1724 1297h-228v-1297h-144v872h-383q18 -11 64 -92q57 -101 57 -174t-23.5 -135t-66 -107t-102 -70.5t-131.5 -25.5q-187 0 -343 176q-57 64 -106.5 147.5t-92.5 188.5q-63 150 -63 181q0 4 1 5l119 88q-1 -1 -1 -5q0 -20 59 -170q76 -195 168 -319q124 -171 246 -171
q39 0 74.5 17t63.5 45.5t44.5 65.5t16.5 78q0 108 -102 254q-89 126 -106 126h607v322h-1352v109h1724v-109zM415 13h-200v198h200v-198z" />
    <glyph glyph-name="uni095C" unicode="&#x95c;" horiz-adv-x="1475" 
d="M1497 1297h-293v-358h-553q-21 0 -21 -32q0 -53 85 -168q85 -114 157 -114q15 0 26 4q282 77 306 77q32 0 58 -16.5t44 -45.5t28 -69t10 -87q0 -101 -30.5 -181.5t-85.5 -137.5t-132.5 -87.5t-171.5 -30.5q-193 0 -398 159q-75 58 -146.5 132.5t-141.5 165.5
q-111 145 -111 163l107 102q0 -10 25 -50.5t79 -115.5q64 -88 128.5 -160.5t130.5 -129.5q178 -154 327 -154q64 0 116 24t88.5 67t56 101.5t19.5 126.5q-1 28 -3.5 47t-10 30t-21 15.5t-36.5 4.5q-19 0 -113 -39q-92 -38 -148 -38q-134 0 -270 171q-126 157 -126 266
t145 109h442v249h-1063v109h1497v-109zM999 -309h-200v198h200v-198z" />
    <glyph glyph-name="uni095D" unicode="&#x95d;" horiz-adv-x="1355" 
d="M1379 1297h-331v-411h-487q-50 0 -93 -17.5t-75 -49.5t-50 -76.5t-18 -98.5q0 -189 117 -313q30 -32 75.5 -62t94 -53.5t93.5 -38t73 -14.5q-17 9 -36 35t-35 61t-26 75.5t-10 79.5q0 54 21.5 102t58.5 84t85.5 56.5t102.5 20.5q58 0 109 -20.5t88.5 -57t59 -87
t21.5 -111.5q0 -77 -31.5 -139.5t-86.5 -106.5t-130 -68.5t-162 -24.5q-237 0 -424 162q-200 173 -200 414q0 74 26.5 137t73.5 109.5t111 72.5t139 26h371v314h-904v109h1379v-109zM1082 395q0 78 -36 122t-99 44q-32 0 -59.5 -12t-48 -33.5t-32.5 -51t-12 -63.5
q0 -169 123 -218q35 0 64.5 18t51 47.5t34.5 67.5t14 79zM883 -309h-201v198h201v-198z" />
    <glyph glyph-name="uni095E" unicode="&#x95e;" horiz-adv-x="1726" 
d="M1754 1297h-798v-405q114 128 253 128q73 0 139 -27t115.5 -74t78.5 -110.5t29 -136.5q0 -119 -68 -243q-20 -36 -51.5 -77.5t-63 -78t-58 -62t-36.5 -28.5l-119 88q249 163 249 420q0 99 -55 156t-155 57q-94 0 -185 -112q-73 -88 -73 -115v-677h-141v547
q-107 -101 -262 -101q-81 0 -146 25.5t-110.5 72t-70.5 112t-25 145.5v496h-201v109h1754v-109zM815 765v532h-471v-519q0 -225 200 -225q53 0 102 19t86.5 49t60 68t22.5 76zM386 13h-201v198h201v-198z" />
    <glyph glyph-name="uni095F" unicode="&#x95f;" horiz-adv-x="1375" 
d="M1403 1297h-229v-1297h-144v412q-179 -149 -346 -149q-298 0 -425 268q-67 140 -67 276q2 0 35 -10t58 -10q240 0 240 233q0 125 -135 277h-390v109h1403v-109zM1030 591v706h-469q6 -4 21 -27.5t36 -67.5q26 -55 39 -102t14 -88q0 -186 -156 -277q-94 -55 -163 -55
q0 -57 61 -142q96 -137 278 -137q213 0 339 190zM386 13h-201v198h201v-198z" />
    <glyph glyph-name="uni0960" unicode="&#x960;" horiz-adv-x="2032" 
d="M2134 -130l-40 -28l-40 -28q-98 -54 -208 -54q-70 0 -129 16t-101.5 44.5t-66.5 67.5t-24 86q0 32 10 62t27.5 55.5t40.5 44t49 27.5q-66 0 -119 15.5t-89.5 43t-56.5 66t-20 84.5q0 136 138 201q82 39 147 39l-104 175l-376 -181v-606h-141v544l-585 -431l-88 121
l602 395q0 14 -137 157q-147 153 -202 153q-56 0 -254 -92q-184 -87 -184 -94l-90 110q9 13 234 109q241 102 311 102t237 -174q151 -157 156 -184v581h-1031v109h2056v-109h-884v-572l328 158q-22 34 -22 78q0 33 12 62t33 50.5t50 33.5t63 12q140 0 140 -172
q0 -20 -15 -43.5t-35 -43t-40.5 -32.5t-30.5 -13l147 -262q-299 0 -299 -166q0 -133 211 -133q22 0 48 7t48 16t37 17.5t15 11.5q0 1 -1 1l50 -118q-242 -41 -242 -195q0 -132 175 -132q34 0 68.5 11.5t62 28t44.5 34.5t17 31z" />
    <glyph glyph-name="uni0961" unicode="&#x961;" horiz-adv-x="1685" 
d="M1704 1297h-408v-317q205 -93 205 -293q0 -96 -42.5 -168t-118.5 -118q-22 -13 -242 -94q-104 -39 -104 -102q0 -60 50 -89.5t137 -29.5q19 0 38 2.5t40.5 9t47 19t57.5 32.5l48 -130q-252 -59 -252 -169q0 -80 131 -80q91 0 154.5 35t98.5 98l94 -84q-22 -19 -43 -38
t-43 -39q-63 -48 -128 -68t-137 -20q-59 0 -108.5 14t-85 39t-55 60t-19.5 77q0 120 107 147q-60 0 -108.5 17t-82.5 47t-52 71.5t-18 90.5q0 54 30.5 95t90.5 72q57 23 114 45l114 44q43 19 72 41t46.5 47.5t25 55t7.5 63.5q0 44 -14.5 80t-40.5 62t-62.5 40t-79.5 14
q-89 0 -147 -52q-117 -104 -199 -328l-134 64q11 25 37.5 75.5t65.5 119.5q-113 141 -256 141q-57 0 -105 -20t-83.5 -57t-55.5 -88t-20 -113q0 -135 93 -249q26 -32 67 -65.5t82 -61.5t75 -45.5t46 -17.5l-66 -122q-16 0 -57 23.5t-90.5 60t-98 80.5t-79.5 86
q-109 148 -109 321q0 88 29 160t81 122.5t125 78t161 27.5q198 0 330 -162q25 35 58.5 62.5t72 46t80.5 29t85 11.5v291h-1156v112h1704v-109z" />
    <glyph glyph-name="uni0962" unicode="&#x962;" 
d="M-56 -634l-8 -27q1 1 2 1l1 1l-12 -12q-74 -66 -164 -66q-45 0 -82.5 11.5t-65 32.5t-43 51t-15.5 68q0 27 14.5 50t37 44.5t50.5 42t54 41.5q54 54 54 125q0 97 -87 97q-26 0 -49 -15t-43 -42t-37.5 -63.5t-31.5 -79.5l-108 49q8 12 16 31t22 42l20 34q-50 57 -110 57
q-51 0 -84.5 -34t-33.5 -91q0 -93 88 -157q68 -50 114 -50l-56 -100q-46 0 -138 77q-118 100 -118 235q0 49 16.5 89.5t46 69.5t71 44.5t91.5 15.5q99 0 170 -68q61 61 155 61q46 0 82.5 -16t62 -44.5t39 -68.5t13.5 -88q0 -39 -11.5 -71t-34 -61.5t-57.5 -59t-81 -63.5
q-14 -11 -20 -18.5t-6 -11.5q0 -67 92 -67q56 0 106 50l8 8q2 2 7.5 6.5t15.5 11.5z" />
    <glyph glyph-name="uni0963" unicode="&#x963;" 
d="M-60 -729q-86 -87 -192 -87q-29 0 -57.5 12t-51 32.5t-36.5 47t-14 55.5q0 41 20 67q-100 28 -100 127q0 34 18 56.5t45.5 38.5t61.5 28t67 25q67 31 67 86q0 83 -87 83q-108 0 -163 -201l-108 51q28 58 57 108q-50 56 -110 56q-54 0 -86 -35.5t-32 -89.5
q0 -35 18.5 -72.5t47.5 -69.5t65 -53t71 -22l-56 -92q-53 15 -99.5 47t-81.5 74.5t-55 92t-20 100.5q0 48 16 88.5t45.5 70t71 45.5t92.5 16q100 0 172 -74q67 70 161 70q42 0 77.5 -14.5t60.5 -40t39 -61t14 -77.5q0 -39 -9 -68.5t-31 -53t-60 -42t-96 -36.5
q-68 -21 -68 -47q0 -37 78 -37q58 0 113 20l24 -78q-128 -11 -128 -79q0 -9 5 -18.5t12.5 -18t16 -13.5t16.5 -5q84 0 135 72z" />
    <glyph glyph-name="uni0964" unicode="&#x964;" horiz-adv-x="609" 
d="M480 0h-126v1394h126v-1394z" />
    <glyph glyph-name="uni0965" unicode="&#x965;" horiz-adv-x="1059" 
d="M916 0h-125v1444h125v-1444zM578 0h-125v1444h125v-1444z" />
    <glyph glyph-name="uni0966" unicode="&#x966;" horiz-adv-x="1167" 
d="M1031 700q0 -92 -35.5 -175.5t-96.5 -146.5t-143 -100.5t-175 -37.5q-94 0 -175.5 37t-142 100t-95.5 146.5t-35 176.5q0 99 33 183.5t92.5 146t141.5 96.5t181 35q94 0 176 -36.5t143 -99.5t96 -147t35 -178zM898 706q0 73 -24 138.5t-67 115t-101 78t-125 28.5
q-66 0 -124 -29t-101 -78.5t-68 -116.5t-25 -142q0 -74 25 -140.5t68 -116t101 -78.5t124 -29q67 0 125 29.5t100.5 80t67 118t24.5 142.5z" />
    <glyph glyph-name="uni0967" unicode="&#x967;" horiz-adv-x="1167" 
d="M960 0h-139v765q-106 -88 -242 -88q-75 0 -143 29t-119 79t-81 118t-30 145q0 76 31.5 145t83 121.5t119 83.5t139.5 31q209 0 315 -178q66 -110 66 -183v-1068zM830 1040q0 64 -18.5 115.5t-51.5 87.5t-79.5 55t-101.5 19q-50 0 -92.5 -21.5t-73.5 -58.5t-48.5 -86.5
t-17.5 -105.5q0 -59 17 -108.5t47.5 -86t73 -57t94.5 -20.5q54 0 100 19t79.5 54.5t52.5 84.5t19 109z" />
    <glyph glyph-name="uni0968" unicode="&#x968;" horiz-adv-x="1167" 
d="M1045 969q0 -189 -108 -339q-78 -108 -202 -184q-92 -56 -112 -56l318 -488l-106 -74l-324 530q-49 -11 -102 -11q-48 0 -88 11t-68.5 31t-44.5 49.5t-16 66.5q0 25 10 46.5t28 37t42 24t53 8.5q123 0 222 -130q17 0 51 17.5t73 45t77 62.5t63 71q87 123 87 282
q0 70 -26.5 132.5t-72.5 109t-108 73.5t-132 27q-126 0 -358 -130l-94 98q28 28 147 78q158 67 299 67q101 0 190.5 -35.5t156.5 -97.5t106 -145t39 -177z" />
    <glyph glyph-name="uni0969" unicode="&#x969;" horiz-adv-x="1167" 
d="M1012 476q0 -204 -171 -322q-121 -83 -218 -83l212 -296l-105 -85l-254 375q-1 -1 -7 -1q-13 0 -37 5t-52 14t-54.5 20t-43.5 23q-67 46 -67 120q0 121 129 121q79 0 159 -96q64 -76 64 -102q61 0 153 50q149 81 149 249q0 287 -383 287q-35 0 -68.5 -2.5t-65.5 -7.5
l-75 127h211q60 0 113.5 17.5t93 49t63 74t23.5 92.5q0 49 -20.5 89.5t-57 69.5t-86 45t-106.5 16q-72 0 -196 -53q-52 -23 -78.5 -38t-30.5 -20l-73 108q250 113 392 113q87 0 158 -23t121.5 -65.5t78 -102.5t27.5 -134q0 -153 -88 -232q-56 -51 -92 -51q61 -16 113 -50
t89.5 -80.5t58.5 -103t21 -117.5z" />
    <glyph glyph-name="uni096A" unicode="&#x96a;" horiz-adv-x="1167" 
d="M1068 1161q0 -110 -101 -226q-29 -33 -75 -71t-92.5 -71t-83 -55t-45.5 -22q7 0 33.5 -18t58.5 -45t64.5 -59t53.5 -60q37 -51 54 -102.5t18 -103.5q0 -80 -26.5 -142.5t-75 -105.5t-117.5 -66t-153 -23q-81 0 -148.5 24.5t-116.5 69t-76.5 107.5t-27.5 141
q0 81 49.5 164t143.5 161q30 26 47 37.5t22 12.5q-11 0 -105 65q-113 79 -189 167q-101 117 -101 227q0 144 146 254l100 -57q-9 -6 -25.5 -31.5t-33 -58.5t-29 -66.5t-12.5 -55.5q0 -79 66.5 -163.5t191.5 -157.5q83 -50 96 -50q8 0 40 19t72.5 47t81 61t65.5 60
q45 50 66.5 98t22.5 95q0 81 -87 212l113 51q115 -136 115 -263zM821 339q0 116 -118 221q-95 84 -130 84q-26 0 -117 -88q-112 -109 -112 -217q0 -54 16.5 -99.5t47 -78.5t74 -51.5t97.5 -18.5q52 0 96 18t76.5 50.5t51 78t18.5 101.5z" />
    <glyph glyph-name="uni096B" unicode="&#x96b;" horiz-adv-x="1167" 
d="M1063 6q0 -181 -206 -288l-107 99q22 10 43 19t43 19q82 55 82 151q0 133 -68 345q-59 180 -72 187q-66 -26 -123 -41t-117 -15q-96 0 -175 34.5t-136 97.5t-88.5 152.5t-31.5 199.5q0 202 136 458l115 -65q-10 -20 -23 -55t-30 -86q-26 -79 -38.5 -143t-12.5 -115
q0 -83 21 -150.5t59 -116t91.5 -75t118.5 -26.5q112 0 183 53q23 17 23 18v-1q-1 0 -5.5 22t-9.5 52t-9 61.5t-4 51.5q0 132 37.5 196.5t109.5 64.5q31 0 56.5 -14.5t43.5 -40.5t27.5 -62.5t9.5 -79.5q0 -162 -120 -292q17 -8 91 -217q86 -246 86 -398z" />
    <glyph glyph-name="uni096C" unicode="&#x96c;" horiz-adv-x="1167" 
d="M1020 -198l-134 -65l-85 319q0 -1 -20.5 -5.5t-49 -9t-57.5 -8.5t-45 -4q-86 0 -163.5 31t-136 85.5t-93.5 128t-35 158.5q0 161 107 268q65 65 115 78q-10 0 -35.5 13t-55.5 34t-59.5 46t-47.5 49q-67 88 -67 199q0 67 28.5 123t78 96.5t115 63t139.5 22.5q15 0 38.5 -2
t50.5 -5t53.5 -6.5t48.5 -7t35.5 -6l13.5 -2.5l36 -138q-133 65 -248 65q-50 0 -95.5 -17t-80 -46t-55 -68.5t-20.5 -85.5q0 -54 24 -99.5t66 -79t98.5 -52.5t121.5 -19h159l42 -116q1 0 -15 1t-50 4q-6 0 -21.5 1t-33 2t-32 2t-17.5 1q-68 0 -123 -23.5t-94 -66.5
t-60.5 -103.5t-21.5 -133.5q0 -59 22.5 -112.5t60.5 -94.5t89.5 -65t109.5 -24q15 0 40.5 7.5t50.5 16.5t43 17t18 10q-13 26 -18 59.5t-5 81.5q0 33 8 61.5t22 50t34 33.5t43 12q124 0 124 -157q0 -33 -8.5 -67.5t-21.5 -64.5t-28.5 -51.5t-30.5 -28.5z" />
    <glyph glyph-name="uni096D" unicode="&#x96d;" horiz-adv-x="1167" 
d="M1110 795q0 -809 -531 -809q-122 0 -215.5 55.5t-156.5 162.5t-95.5 263.5t-32.5 359.5q0 31 2.5 80t6.5 104.5t8.5 112t9 101.5t8 73.5t4.5 28.5v-2l150 84v2q-1 0 -5 -33.5t-9.5 -87.5t-11.5 -120.5t-11 -133t-8 -125t-3 -96.5q0 -722 359 -722q67 0 128.5 29
t108.5 77.5t74.5 112.5t27.5 134q-88 0 -163.5 34t-131 93t-87 139.5t-31.5 173.5q0 75 22.5 142.5t62 118.5t94 80.5t117.5 29.5q72 0 129.5 -33t97 -94t61 -146t21.5 -189zM969 801q0 346 -177 346q-37 0 -65.5 -19t-48 -53.5t-30 -82.5t-10.5 -106q0 -65 24.5 -127.5
t66.5 -111.5t97 -79t115 -30q28 81 28 263z" />
    <glyph glyph-name="uni096E" unicode="&#x96e;" horiz-adv-x="1308" 
d="M1133 215q-13 -25 -170 -119q-185 -110 -292 -110q-247 0 -451 291q-37 52 -37 120q-1 122 136 294l573 718l103 -87l-572 -716q-51 -65 -77.5 -116t-25.5 -91q0 -51 38 -94q180 -201 313 -201q126 0 383 224z" />
    <glyph glyph-name="uni096F" unicode="&#x96f;" horiz-adv-x="1167" 
d="M1020 -93q0 -92 -82 -158q-59 -48 -83 -48l-119 87q64 0 105.5 34.5t41.5 92.5q-2 33 -53 99l-587 736q-61 76 -90 143.5t-29 130.5q0 81 29 152t80 124t121 84t151 31q80 0 151.5 -31t125 -84t85 -124t31.5 -151t-32 -146t-88.5 -113.5t-134.5 -74t-169 -26.5l486 -614
q60 -77 60 -144zM753 1040q0 52 -20 99.5t-54 83.5t-79 57.5t-95 21.5q-51 0 -94.5 -21t-75 -57.5t-49.5 -86t-18 -106.5t18 -107.5t50 -88.5t75 -60t94 -22q55 0 100.5 22t78.5 60.5t51 91t18 113.5z" />
    <glyph glyph-name="glyph503" horiz-adv-x="1122" 
d="M924 679q0 -73 -29.5 -137t-80.5 -112t-118.5 -76t-143.5 -28q-77 0 -146 27.5t-120.5 75t-81.5 112t-30 138.5t30 138.5t81.5 112t120.5 75t146 27.5q75 0 142.5 -28t118.5 -76.5t81 -112.5t30 -136zM792 679q0 46 -19 87t-52 72t-76.5 49t-92.5 18t-92.5 -17t-76 -47
t-51.5 -71.5t-19 -90.5t19 -90.5t51.5 -71.5t76 -47t92.5 -17q46 0 89.5 17.5t77 48.5t53.5 72t20 88z" />
    <glyph glyph-name="uni0915_uni094D_uni0937.akhn" horiz-adv-x="1419" 
d="M1448 1297h-229v-1297h-144v789q-149 -70 -325 -70q-31 0 -70.5 5.5t-80.5 14.5t-81 19.5t-71 20t-50 17t-19 10.5q0 1 3 1q-203 -104 -203 -274q0 -221 246 -221q18 0 38 1.5t43 5.5q-2 17 -3.5 31t-1.5 26q0 141 121 141q147 0 147 -136q0 -84 -111 -133
q11 -16 20.5 -30.5t28 -36t51 -53.5t89.5 -83l-121 -87q-15 18 -35.5 41.5t-43.5 54.5t-47 70t-46 88q0 -1 -16 -3.5t-38.5 -5.5t-45.5 -5.5t-36 -2.5q-87 0 -157.5 24.5t-121 69.5t-78 109.5t-27.5 145.5q0 189 244 328q-24 8 -83 89q-76 106 -76 206q0 54 22 99.5
t60.5 78.5t90.5 51.5t112 18.5q68 0 124.5 -18.5t96.5 -52.5t62 -83t22 -109q0 -119 -104 -208q-18 -16 -36 -29t-33 -22t-25.5 -14t-14.5 -5q-2 0 -2 2q0 -3 23.5 -10t60.5 -14.5t83 -13t90 -5.5q185 0 325 77v387h-270v109h643v-109zM567 1161q0 141 -166 141
q-69 0 -106.5 -40.5t-37.5 -100.5q0 -106 64 -179q24 -28 39.5 -41.5t26.5 -13.5q30 0 92 50q88 72 88 184z" />
    <glyph glyph-name="uni091C_uni094D_uni091E.akhn" horiz-adv-x="1581" 
d="M1606 1297h-228v-1297h-145v953h-832q-36 0 -36 -30q0 -49 75 -145q87 -113 169 -113q24 0 60 9t73.5 19.5t72 19.5t57.5 9q37 0 68 -17.5t53.5 -47t34.5 -69t12 -83.5q0 -111 -70.5 -196.5t-205.5 -139.5q-77 -32 -101 -31l270 -214l-106 -82l-280 265h-87
q-49 0 -93.5 12t-78 33t-53.5 50.5t-20 65.5q0 22 9.5 41t25 33t36 22t42.5 8q56 0 136 -68q23 -20 37 -34.5t22 -24t11.5 -14t5.5 -4.5q17 0 52 8.5t75 22.5t78.5 32t63.5 37q95 72 95 178q0 48 -19.5 69t-57.5 21q-11 0 -39 -7.5t-62 -16.5t-68.5 -16.5t-56.5 -7.5
q-132 0 -259 144q-122 137 -122 256q0 55 40 88t101 33h872v229h-1233v109h1606v-109z" />
    <glyph glyph-name="uni0930_uni094D.rphf" 
d="M-65 1931q-55 28 -147 28q-81 0 -129.5 -49t-48.5 -137q0 -116 92 -259q77 -119 95 -119h-110q-25 7 -108 142q-101 164 -101 285q0 250 297 250q93 0 160 -34v-107z" />
    <glyph glyph-name="uni0930_uni094D.blwf" 
d="M-3 -387h-172l-324 420l-347 -420h-205l475 491h156z" />
    <glyph glyph-name="glyph508" 
d="M-104 -721q0 -68 -32 -120t-91.5 -88t-144 -54.5t-189.5 -18.5q-161 0 -305 64q-42 18 -88 46.5t-84.5 57t-64 52t-25.5 30.5l77 121q31 -60 135 -142q87 -67 178 -99t193 -32q67 0 122 13t94 36.5t60 57.5t21 76q0 31 -16 56.5t-42.5 43.5t-61.5 28t-72 10
q-22 0 -55.5 -13.5t-65.5 -31.5t-56.5 -35t-28.5 -24l-104 101q90 52 164 80t146 28q76 0 138.5 -17t106 -48.5t67.5 -76.5t24 -101z" />
    <glyph glyph-name="glyph509" 
d="M39 -913l-84 -90q0 6 -10.5 25t-28.5 45t-41.5 56t-49 60t-52 56.5t-49.5 44.5q-128 99 -265 99q-227 0 -227 -144q0 -121 150 -121q19 0 48.5 6.5t58 15t50.5 17.5t27 14l79 -109q-162 -55 -248 -55q-65 0 -119 18.5t-93.5 52t-61.5 79.5t-22 102q0 54 24 97t68.5 73
t107.5 45.5t140 15.5q172 0 327 -104q112 -74 202 -193q69 -92 69 -106z" />
    <glyph glyph-name="uni0915_uni094D.half" horiz-adv-x="1170" 
d="M1382 798q3 0 3 1q0 3 -11.5 8.5t-32.5 11.5t-51 10t-67 4q-48 0 -92.5 -25t-79 -64.5t-55.5 -88t-21 -94.5v-561h-140v409q-95 -104 -248 -104q-79 0 -149.5 30.5t-124 82t-84.5 121t-31 147.5t30.5 145t82.5 116.5t121 78t147 28.5q60 0 129 -29v-121q-46 37 -116 37
q-50 0 -95 -20t-79 -54t-54 -79.5t-20 -96.5q0 -56 18 -106t50 -88t74.5 -60.5t92.5 -22.5q119 0 199 99q57 70 57 108v676h-835v109h1204v-109h-229v-473q111 134 242 134q27 0 56.5 -5.5t54 -13t40 -14.5t15.5 -9h-1v-118z" />
    <glyph glyph-name="uni0916_uni094D.half" horiz-adv-x="1271" 
d="M1522 606q0 -13 -81 -53q-101 -51 -204 -51q-64 0 -120.5 22t-98.5 61t-66.5 93t-24.5 117q0 64 24.5 118t67.5 93.5t101 61.5t126 22q64 0 127 -22l36 -112q-49 25 -146 25q-45 0 -81 -13t-61.5 -37t-39 -57t-13.5 -73q0 -186 189 -186q133 0 265 135v-144zM1522 290
q-45 -25 -88 -50t-88 -50q-206 -97 -393 -97q-268 0 -451 165q-131 119 -239 348q-10 20 -22.5 52t-26.5 68.5t-27.5 73t-24.5 66t-17.5 48.5l-6.5 19l119 62l53 -152q54 -48 130 -48q121 0 121 118v384h-561v109h1308v-109h-608v-367q0 -53 -18 -98.5t-50 -79.5t-77.5 -53
t-100.5 -19q-13 0 -28 2t-28 4.5t-22 5l-9 2.5q0 -25 55 -128q76 -144 186 -234q154 -126 352 -126q264 0 562 220v-136z" />
    <glyph glyph-name="uni0917_uni094D.half" horiz-adv-x="786" 
d="M821 1297h-234v-710q0 -111 -62 -111q-64 0 -189 125q-124 124 -124 197q0 51 73 51h161v448h-446v109h821v-109z" />
    <glyph glyph-name="uni0918_uni094D.half" horiz-adv-x="891" 
d="M1136 449q-259 -172 -471 -172q-77 0 -146 23.5t-122 65t-84 97t-31 118.5q0 113 78 197q57 62 80 62q-39 0 -116 53q-109 76 -109 197q0 27 8.5 60t20.5 63t26 53t26 31h-296v109h924v-109h-456q-11 0 -30.5 -18.5t-38.5 -46.5t-33 -62t-14 -65q0 -39 18 -73.5t46.5 -61
t64.5 -42t72 -15.5h234l48 -98h-155q-47 0 -92.5 -18t-82.5 -49t-59.5 -72.5t-22.5 -88.5q0 -43 20.5 -79.5t55.5 -63.5t81.5 -42t99.5 -15q130 0 303 102q140 83 153 112v-152z" />
    <glyph glyph-name="uni0919_uni094D.half" horiz-adv-x="1618" 
d="M1573 762h-183v165h183v-165zM1633 1297h-401v-358h-581q-22 0 -22 -35q0 -57 85 -169q85 -114 184 -114q48 0 152 42q105 43 154 43q32 0 58 -16.5t44 -45.5t28 -69t10 -87q0 -101 -30.5 -181.5t-85.5 -137.5t-132.5 -87.5t-171.5 -30.5q-271 0 -560 310
q-123 132 -237 310l107 102q55 -89 110 -165t110 -140q263 -305 470 -305q63 0 114.5 23.5t88.5 66t57 101t20 128.5q0 28 -2.5 47t-10 30t-21.5 15.5t-37 4.5q-19 0 -113 -39q-92 -38 -148 -38q-134 0 -270 171q-126 157 -126 266t145 109h469v249h-1090v109h1633v-109z
M1289 -485l-62 -62l-456 341l110 118z" />
    <glyph glyph-name="uni091A_uni094D.half" horiz-adv-x="899" 
d="M933 1297h-933v109h933v-109zM1147 514q-200 -218 -453 -218q-71 0 -129.5 21.5t-100.5 60.5t-65.5 94t-23.5 123q0 198 206 332h-443v113h822v-113h-173q-58 0 -151 -84q-117 -105 -117 -242q0 -90 48.5 -141t132.5 -51q112 0 228 75q34 22 71.5 56.5t70 69.5t54 64
t23.5 41v-201z" />
    <glyph glyph-name="uni091B_uni094D.half" horiz-adv-x="1609" 
d="M1640 1297h-377v-237q60 -21 102 -47t68.5 -60t38 -77t11.5 -98q0 -293 -255 -498q-236 -189 -522 -189q-92 0 -168.5 29t-131.5 80.5t-85.5 122t-30.5 153.5q0 188 150 302q-41 0 -130 65q-124 91 -124 220q0 35 8.5 71t23 68t33.5 57t39 38h-290v109h1640v-109z
M1350 778q0 175 -155 175q-33 0 -60.5 -13.5t-46.5 -38t-29.5 -58.5t-10.5 -75q0 -127 73 -239q53 -83 83 -95q25 13 75 96q71 119 71 248zM1125 1054v243h-657q-21 -5 -76 -75q-35 -43 -51 -79.5t-16 -68.5q0 -44 22.5 -83.5t58.5 -69t81.5 -47t91.5 -17.5q13 0 35 2
t43 4.5t36 5t15 3.5l57 -107q-12 2 -24 3t-24 1q-60 0 -113.5 -22.5t-93.5 -60.5t-63.5 -89.5t-23.5 -108.5q0 -61 24 -114t64.5 -92t95 -61.5t115.5 -22.5q131 0 271 78q104 58 117 82q-27 9 -96 125q-90 151 -90 295q0 121 52 179q33 38 149 97zM1289 -485l-62 -62
l-456 341l110 118z" />
    <glyph glyph-name="uni091C_uni094D.half" horiz-adv-x="1116" 
d="M1149 1297h-1149v109h1149v-109zM1367 872h-398q18 -11 64 -92q57 -101 57 -174q0 -74 -22.5 -136t-63.5 -107t-100 -70t-131 -25q-182 0 -340 179q-116 129 -204 334q-68 157 -67 181q0 2 0.5 2.5t0.5 1.5l119 88q-2 -2 -2 -5q0 -14 13.5 -56.5t42.5 -117.5
q38 -100 80.5 -181t92.5 -146q132 -176 278 -176q35 0 65.5 17.5t53 48t35 71t12.5 86.5q0 108 -102 254q-89 126 -106 126h622v-103z" />
    <glyph glyph-name="uni091D_uni094D.half" horiz-adv-x="1026" 
d="M1271 564q0 -1 -14.5 -6.5t-36 -11.5t-45.5 -11t-42 -5q-29 0 -70.5 10t-87.5 27v-79q0 -169 -169 -274q-117 -74 -185 -73q15 -11 42.5 -27.5t63 -36t78 -41t87.5 -42.5l-85 -101q-14 7 -56.5 31.5t-112.5 69.5q-31 20 -71 50t-91 74q-11 -2 -21 -3q-8 -1 -17 -1.5
t-15 -0.5q-114 0 -179.5 39t-65.5 111q0 22 8.5 42.5t23 36t34 24.5t41.5 9q83 0 163 -69q63 -56 63 -72q324 34 324 277q0 27 -2 44.5t-10 27.5t-23 14t-41 4q-6 0 -33 -6.5t-60.5 -14.5t-67.5 -14.5t-54 -6.5q-121 0 -245 148q-113 135 -113 232q0 121 142 121h408v237
h-736v109h1060v-109h-183v-350h-519q-27 0 -27 -22q0 -7 8.5 -27.5t24 -47.5t37.5 -57t49.5 -55t60 -41.5t68.5 -16.5q31 0 59.5 6.5t56 14.5t55 14.5t57.5 6.5q25 0 51 -10t47 -22t35 -22t16 -11q71 -28 140 -28q30 0 61 7.5t56.5 17t42 19t16.5 12.5q0 1 -1 1v-122z" />
    <glyph glyph-name="uni091E_uni094D.half" horiz-adv-x="1006" 
d="M1040 1297h-1040v109h1040v-109zM1246 601q-68 -20 -99 -20q-71 0 -194 48q0 -94 -65 -213q-113 -204 -355 -204q-132 0 -305 89q-137 71 -149 94l90 107q207 -183 364 -183q65 0 117 24.5t88 69.5t55.5 109t19.5 143q0 316 -266 316q-17 0 -42 -8t-51 -19.5t-48.5 -25
t-33.5 -24.5l-95 111q157 81 256 81q150 0 257.5 -89.5t156.5 -270.5q85 -42 135 -42q89 0 164 51v-144z" />
    <glyph glyph-name="uni091F_uni094D.half" horiz-adv-x="1373" 
d="M1384 1297h-321v-420h-484q-50 0 -94.5 -19t-78 -52t-53.5 -77t-20 -94q0 -86 36.5 -164.5t98 -139.5t143 -97t170.5 -36q239 0 363 205l119 -70q-173 -254 -462 -254q-242 0 -423 168q-180 166 -180 397q0 73 27.5 137t75 111.5t111 75t135.5 27.5h377v302h-924v109
h1384v-109zM1147 -485l-62 -62l-456 341l110 118z" />
    <glyph glyph-name="uni0920_uni094D.half" horiz-adv-x="1373" 
d="M1384 1297h-330v-405h-507q-48 0 -88 -20.5t-69.5 -55.5t-45.5 -81t-16 -97q0 -179 139 -311q66 -63 134.5 -92t143.5 -29q69 0 130 23.5t107 63.5t73 94t27 115q0 34 -11 71t-28.5 70t-38 58t-38.5 35l97 91q35 -23 63.5 -59t48.5 -79.5t31 -93t11 -99.5q0 -88 -35 -161
t-97.5 -125.5t-149.5 -82t-190 -29.5q-222 0 -388 159q-171 162 -171 387q0 81 28.5 147.5t79 114.5t120.5 74t153 26h346v291h-913v109h1384v-109zM1160 -485l-62 -62l-456 341l110 118z" />
    <glyph glyph-name="uni0921_uni094D.half" horiz-adv-x="1475" 
d="M1497 1297h-293v-358h-553q-21 0 -21 -32q0 -53 85 -168q85 -114 157 -114q15 0 26 4q282 77 306 77q32 0 58 -16.5t44 -45.5t28 -69t10 -87q0 -101 -30.5 -181.5t-85.5 -137.5t-132.5 -87.5t-171.5 -30.5q-193 0 -398 159q-75 58 -146.5 132.5t-141.5 165.5
q-111 145 -111 163l107 102q0 -10 25 -50.5t79 -115.5q64 -88 128.5 -160.5t130.5 -129.5q178 -154 327 -154q64 0 116 24t88.5 67t56 101.5t19.5 126.5q-1 28 -3.5 47t-10 30t-21 15.5t-36.5 4.5q-19 0 -113 -39q-92 -38 -148 -38q-134 0 -270 171q-126 157 -126 266
t145 109h442v249h-1063v109h1497v-109zM1289 -485l-62 -62l-456 341l110 118z" />
    <glyph glyph-name="uni0922_uni094D.half" horiz-adv-x="1355" 
d="M1379 1297h-331v-411h-487q-50 0 -93 -17.5t-75 -49.5t-50 -76.5t-18 -98.5q0 -189 117 -313q30 -32 75.5 -62t94 -53.5t93.5 -38t73 -14.5q-17 9 -36 35t-35 61t-26 75.5t-10 79.5q0 54 21.5 102t58.5 84t85.5 56.5t102.5 20.5q58 0 109 -20.5t88.5 -57t59 -87
t21.5 -111.5q0 -77 -31.5 -139.5t-86.5 -106.5t-130 -68.5t-162 -24.5q-237 0 -424 162q-200 173 -200 414q0 74 26.5 137t73.5 109.5t111 72.5t139 26h371v314h-904v109h1379v-109zM1082 395q0 78 -36 122t-99 44q-32 0 -59.5 -12t-48 -33.5t-32.5 -51t-12 -63.5
q0 -169 123 -218q35 0 64.5 18t51 47.5t34.5 67.5t14 79zM1173 -485l-62 -62l-457 341l111 118z" />
    <glyph glyph-name="uni0923_uni094D.half" horiz-adv-x="1006" 
d="M1040 1297h-142v-519q0 -77 -22 -139.5t-63 -106.5t-100 -68t-134 -24q-76 0 -138.5 24t-107 68t-69 104.5t-24.5 134.5v526h-240v109h1040v-109zM759 778v519h-378v-526q0 -106 49 -166.5t140 -60.5q189 0 189 234z" />
    <glyph glyph-name="uni0924_uni094D.half" horiz-adv-x="758" 
d="M792 1297h-792v109h792v-109zM1020 883h-532q-192 0 -192 -153q0 -143 97 -300q19 -31 45.5 -66t56 -70.5t60 -68t55.5 -57.5t43 -40t24 -15l-90 -93q-15 0 -115 99q-63 63 -114 126t-91 128q-109 178 -109 343q0 62 18.5 111.5t52.5 84t82.5 53t108.5 18.5h600v-100z
" />
    <glyph glyph-name="uni0925_uni094D.half" horiz-adv-x="899" 
d="M1152 519q-26 -49 -127 -119q-166 -115 -371 -115q-202 0 -360 122q-110 84 -187 227q-54 99 -54 125q126 -43 226 -43q76 0 144.5 25.5t119.5 70t81 104.5t30 129q0 54 -20.5 103t-55 86.5t-80.5 60t-97 22.5q-39 0 -71.5 -11.5t-55.5 -32.5t-36 -49.5t-13 -62.5
q0 -27 12.5 -52.5t33.5 -44.5t48 -30.5t56 -11.5q16 0 31 3v-98q-321 0 -321 240q0 60 24 108.5t67 82.5t102 52.5t128 18.5q85 0 156.5 -29.5t123 -81t80.5 -122t29 -151.5q0 -170 -96.5 -276.5t-280.5 -141.5q-38 -8 -66.5 -11t-48.5 -3h-15q-5 0 -11 2q15 -45 92 -113
q122 -107 280 -107q143 0 274 83q36 23 76.5 60t74.5 74.5t56 67.5t22 39v-200z" />
    <glyph glyph-name="uni0926_uni094D.half" horiz-adv-x="1364" 
d="M1379 1297h-305v-370h-524q-46 0 -84 -13t-65.5 -37t-42.5 -58t-15 -76q0 -91 27.5 -159t79 -113.5t125.5 -68t167 -22.5q55 0 108 9q-12 42 -12 84q0 148 145 148q29 0 54 -12t43 -32.5t28.5 -47t10.5 -55.5q0 -32 -12.5 -65t-30 -59.5t-37 -43t-33.5 -16.5
q0 -11 17 -47.5t43.5 -86t58.5 -104.5t62 -103h-175q0 9 -62 144q-18 39 -34.5 79t-29.5 82q-20 -2 -42 -3.5t-48 -1.5q-134 0 -241.5 31.5t-184 92t-120.5 148.5t-52 201q-1 4 -1 12v12q0 63 25 117.5t67 95t98 63.5t118 23h416v252h-921v109h1379v-109zM1310 -545l-62 -62
l-456 341l108 119z" />
    <glyph glyph-name="uni0927_uni094D.half" horiz-adv-x="730" 
d="M765 1297h-71v109h71v-109zM978 468q-12 -37 -117 -106q-150 -99 -336 -99q-75 0 -142.5 23t-118.5 63.5t-81 95.5t-30 119q0 37 11 75t29.5 71.5t43.5 60.5t53 42q-234 154 -234 345q0 277 283 277q52 0 98.5 -16.5t80.5 -46t54 -69.5t20 -86v-84h-121v84
q0 113 -127 113q-64 0 -103.5 -45.5t-39.5 -123.5q0 -199 183 -292q82 38 214 38q7 0 73 -6l65 -109q1 0 -9.5 1t-32.5 3q-21 2 -39 3.5t-34 1.5q-69 0 -128 -17t-102 -47.5t-67.5 -73t-24.5 -93.5q0 -45 17 -81.5t47 -62.5t72 -40t92 -14q119 0 236 66q33 19 70.5 48.5
t70 59.5t53.5 54t21 32v-164z" />
    <glyph glyph-name="uni0928_uni094D.half" horiz-adv-x="736" 
d="M771 1297h-771v109h771v-109zM992 821h-487v-257q-9 -34 -59 -34q-40 0 -161 135q-122 134 -122 178q0 90 105 90h724v-112z" />
    <glyph glyph-name="uni092A_uni094D.half" horiz-adv-x="623" 
d="M883 561q-133 -112 -282 -112q-88 0 -159 27.5t-121.5 77t-78 119t-27.5 154.5v470h-215v109h657v-109h-299v-496q0 -118 64.5 -183t175.5 -65q148 0 285 192v-184z" />
    <glyph glyph-name="uni092B_uni094D.half" horiz-adv-x="1150" 
d="M1353 830h1q0 1 -18.5 4t-45 6.5t-56.5 6t-53 2.5q-127 0 -225 -155v-694h-141v547q-107 -101 -262 -101q-81 0 -146 25.5t-110.5 72t-70.5 112t-25 145.5v496h-201v109h1184v-109h-228v-437q5 12 29 29.5t56.5 34t68 28t62.5 11.5q25 0 57 -4t59.5 -9.5t46.5 -10.5
t19 -6h-1v-103zM815 765v532h-471v-519q0 -225 200 -225q53 0 102 19t86.5 49t60 68t22.5 76z" />
    <glyph glyph-name="uni092C_uni094D.half" horiz-adv-x="634" 
d="M668 1297h-668v109h668v-109zM892 420q-127 -124 -313 -124q-89 0 -167 29.5t-136 81t-92 122t-34 151.5q0 84 31.5 155.5t86.5 123t130.5 80.5t162.5 29q14 0 41.5 -4t54.5 -9t47.5 -9.5t20.5 -5.5l26 -122q0 1 -18.5 6.5t-45 12t-56.5 11.5t-52 5q-141 0 -204 -70
l482 -324l35 47v-186zM801 494l-485 321q-31 -52 -31 -129q0 -64 23 -116t63.5 -89t97 -57.5t123.5 -20.5q28 0 62.5 10t65.5 24t53.5 29.5t27.5 27.5z" />
    <glyph glyph-name="uni092D_uni094D.half" horiz-adv-x="809" 
d="M843 1297h-113v109h113v-109zM1074 644h-465v-204q0 -73 -56 -73q-43 0 -184 142t-141 191q0 11 8 22.5t19 21t23.5 15.5t20.5 6h169v444q0 127 -140 127q-57 0 -92 -39t-35 -102q0 -71 42 -141l-127 -1q-2 0 -8.5 15.5t-14 37.5t-13.5 45.5t-6 40.5q0 58 18.5 105
t52.5 79.5t83 50t111 17.5q55 0 104.5 -18t86 -50.5t58 -77t21.5 -97.5v-436h465v-121z" />
    <glyph glyph-name="uni092E_uni094D.half" horiz-adv-x="750" 
d="M1003 688h-512v-194q0 -62 -57 -62q-53 0 -173 127t-120 177q0 71 79 71h124v490h-344v109h784v-109h-293v-490h512v-119z" />
    <glyph glyph-name="uni092F_uni094D.half" horiz-adv-x="798" 
d="M1043 423q-139 -124 -352 -124q-299 0 -428 250q-71 137 -71 258q2 0 35 -10t58 -10q240 0 240 233q0 125 -135 277h-390v109h833v-109h-272q6 -4 21 -27.5t36 -67.5q26 -55 39 -102t14 -88q0 -186 -156 -277q-94 -55 -163 -55q0 -57 61 -142q96 -137 278 -137
q147 0 263 102q75 66 89 109v-189z" />
    <glyph glyph-name="uni0931_uni094D.half" horiz-adv-x="581" 
d="M615 1297h-615v109h615v-109zM778 680q-122 -51 -240 -51q-152 0 -310 64q-14 4 -135 66v110q28 -19 79 -39.5t110 -37.5t120 -28t109 -11q20 0 48 4.5t58 11.5t59 15t52 15.5t37 13t14 7.5q0 1 -1 1v-141z" />
    <glyph glyph-name="uni0932_uni094D.half" horiz-adv-x="1178" 
d="M1192 1297h-1192v109h1192v-109zM1308 830q-23 0 -54.5 -9.5t-64.5 -26t-65 -39t-56 -47.5q-26 -26 -51.5 -63t-46.5 -73.5t-35 -68.5t-17 -49l-117 63q0 15 22.5 63.5t68.5 127.5q-12 30 -80 80q-96 69 -203 69q-60 0 -108.5 -19t-83.5 -54t-54 -83.5t-19 -108.5
q0 -136 119 -261q85 -90 221 -162q104 -56 123 -56l-68 -122q-25 0 -144 71q-158 92 -254 207q-136 160 -135 332q0 87 27.5 156.5t79 117.5t126 74t167.5 26q135 0 258 -84q76 -53 102 -90q20 17 54 40.5t82 54.5q115 57 206 57v-123z" />
    <glyph glyph-name="uni0935_uni094D.half" horiz-adv-x="637" 
d="M671 1297h-671v109h671v-109zM895 432q-24 -24 -59.5 -45.5t-76.5 -37t-84 -24.5t-83 -9q-86 0 -161 29t-130 81t-86.5 122.5t-31.5 154.5q0 82 27.5 151t76.5 118.5t115.5 77t144.5 27.5q88 0 183 -37l29 -116q-86 42 -198 42q-233 0 -233 -275q0 -57 19 -106t52.5 -85
t80 -56.5t101.5 -20.5q154 0 314 169v-160z" />
    <glyph glyph-name="glyph539" horiz-adv-x="1006" 
d="M1040 1297h-227q143 -110 143 -316q0 -274 -228 -415q-149 -92 -274 -92l444 -381l-91 -99l-652 559l93 96l91 -76q216 0 338 104q131 113 131 248v19q-1 1 -1 4v1v-3q0 -7 -72 -53q-88 -58 -176 -58q-68 0 -126 21.5t-100 60t-66 91.5t-24 117q0 105 79 172h-322v109
h1040v-109zM792 1096q0 33 -50 104q-72 102 -181 102q-82 0 -128 -47t-46 -125q0 -36 15 -69.5t40.5 -58.5t59 -40t71.5 -15q97 0 168 72q51 52 51 77z" />
    <glyph glyph-name="uni0937_uni094D.half" horiz-adv-x="643" 
d="M895 505q-144 -96 -280 -96q-81 0 -152.5 27.5t-125.5 74.5t-85.5 111t-31.5 137v538h-220v109h677v-109h-287l505 -541v-251zM877 629l-510 552v-428q0 -54 18 -97.5t51.5 -73.5t80.5 -46.5t104 -16.5q37 0 78.5 11t78 27.5t63.5 35.5t36 36z" />
    <glyph glyph-name="uni0938_uni094D.half" horiz-adv-x="1026" 
d="M1285 708h-399l-94 113h493v-113zM1060 1297h-301v-358q0 -113 -14 -160q-20 -64 -73.5 -99t-135.5 -35q-39 0 -73 12q23 -46 66 -111.5t106 -150.5q18 -25 45 -58.5t60.5 -72t72 -81t79.5 -85.5l-114 -98q-5 7 -23.5 30t-40 49t-40 49t-24.5 30q-75 94 -138 179.5
t-117 167.5q-71 106 -131.5 209.5t-113.5 209.5l113 71l81 -152q48 -90 152 -90q121 0 121 129q0 6 -0.5 16t-0.5 20q0 11 -0.5 20.5t-0.5 14.5v344h-615v109h1060v-109z" />
    <glyph glyph-name="uni0939_uni094D.half" horiz-adv-x="1215" 
d="M1353 601h-730q-54 0 -103 -20t-86.5 -55.5t-59.5 -82.5t-22 -101q0 -165 264 -250q177 -58 351 -58q20 0 22 2l-50 -107q-8 -2 -23 -2q-201 0 -401 76q-309 115 -309 349q0 141 161 269q-19 0 -95 103q-89 122 -89 217q0 119 127 119h573v237h-883v109h1249v-109h-224
v-356h-633q-67 0 -67 -61q0 -27 16 -65t61 -78q29 -26 38 -29h913v-107z" />
    <glyph glyph-name="uni0933_uni094D.half" horiz-adv-x="1353" 
d="M1387 1297h-1387v109h1387v-109zM1500 646q0 -92 -24.5 -168t-70.5 -131t-111 -85.5t-147 -30.5q-241 0 -317 237q-15 -56 -45 -102t-72 -79t-93.5 -51.5t-108.5 -18.5q-75 0 -139.5 33.5t-112 91.5t-74.5 135t-27 164q0 79 27.5 150.5t76 125.5t114.5 85.5t143 31.5
q224 0 316 -213q13 40 87 114q106 108 222 108q79 0 145 -27.5t112.5 -79t72.5 -125t26 -165.5zM1350 641q0 286 -211 286q-113 0 -188 -137q-54 -98 -54 -139q0 -8 1 -10q-1 -2 -1 -9q0 -19 7.5 -48t20 -60.5t29 -61t33.5 -48.5q67 -75 171 -75q192 0 192 302zM773 641
q0 53 -49 144q-75 139 -207 139q-48 0 -86.5 -20.5t-65.5 -58t-41 -90.5t-14 -117q0 -145 54 -226.5t153 -81.5q132 0 207 154q49 101 49 157z" />
    <glyph glyph-name="uni0915_uni094D_uni0937.akhn_uni094D.half" horiz-adv-x="868" 
d="M901 1297h-100v109h100v-109zM1119 813q-163 -94 -369 -94q-31 0 -70.5 5.5t-80.5 14.5t-81 19.5t-71 20t-50 17t-19 10.5q0 1 3 1q-203 -104 -203 -274q0 -221 246 -221q18 0 38 1.5t43 5.5q-2 17 -3.5 31t-1.5 26q0 141 121 141q147 0 147 -136q0 -84 -111 -133
q11 -16 20.5 -30.5t28 -36t51 -53.5t89.5 -83l-121 -87q-15 18 -35.5 41.5t-43.5 54.5t-47 70t-46 88q0 -1 -16 -3.5t-38.5 -5.5t-45.5 -5.5t-36 -2.5q-87 0 -157.5 24.5t-121 69.5t-78 109.5t-27.5 145.5q0 189 244 328q-24 8 -83 89q-76 106 -76 206q0 54 22 99.5
t60.5 78.5t90.5 51.5t112 18.5q68 0 124.5 -18.5t96.5 -52.5t62 -83t22 -109q0 -119 -104 -208q-18 -16 -36 -29t-33 -22t-25.5 -14t-14.5 -5q-2 0 -2 2q0 -3 23.5 -10t60.5 -14.5t83 -13t90 -5.5q221 0 369 106v-126zM567 1161q0 141 -166 141q-69 0 -106.5 -40.5
t-37.5 -100.5q0 -106 64 -179q24 -28 39.5 -41.5t26.5 -13.5q30 0 92 50q88 72 88 184z" />
    <glyph glyph-name="uni091C_uni094D_uni091E.akhn_uni094D.half" horiz-adv-x="1026" 
d="M1060 1297h-1060v109h1060v-109zM1268 953h-867q-36 0 -36 -30q0 -49 75 -145q87 -113 169 -113q24 0 60 9t73.5 19.5t72 19.5t57.5 9q37 0 68 -17.5t53.5 -47t34.5 -69t12 -83.5q0 -111 -70.5 -196.5t-205.5 -139.5q-77 -32 -101 -31l270 -214l-106 -82l-280 265h-87
q-49 0 -93.5 12t-78 33t-53.5 50.5t-20 65.5q0 22 9.5 41t25 33t36 22t42.5 8q56 0 136 -68q23 -20 37 -34.5t22 -24t11.5 -14t5.5 -4.5q17 0 52 8.5t75 22.5t78.5 32t63.5 37q95 72 95 178q0 48 -19.5 69t-57.5 21q-11 0 -39 -7.5t-62 -16.5t-68.5 -16.5t-56.5 -7.5
q-132 0 -259 144q-122 137 -122 256q0 55 40 88t101 33h907v-115z" />
    <glyph glyph-name="uni0915_uni094D.haln" horiz-adv-x="1752" 
d="M1773 1297h-798v-411q96 139 271 139q81 0 149 -26.5t116.5 -73t76 -110t27.5 -138.5q0 -205 -279 -491l-119 85q5 0 28 23t52 57t58.5 72.5t47.5 70.5q63 109 63 197q0 222 -203 222q-115 0 -206 -118q-82 -106 -82 -203v-592h-140v409q-99 -104 -248 -104
q-79 0 -149.5 30.5t-124 82t-84.5 121t-31 147.5t30.5 145t82.5 116.5t121 78t147 28.5q60 0 129 -29v-121q-49 37 -116 37q-50 0 -95 -20t-79 -54t-54 -79.5t-20 -96.5q0 -56 18 -106t50 -88t74.5 -60.5t92.5 -22.5q119 0 199 99q57 70 57 108v676h-835v109h1773v-109z
M1276 -561l-62 -62l-456 342l110 118z" />
    <glyph glyph-name="uni0916_uni094D.haln" horiz-adv-x="1854" 
d="M1871 1297h-229v-1297h-144v275q-284 -182 -545 -182q-268 0 -451 165q-131 119 -239 348q-10 20 -22.5 52t-26.5 68.5t-27.5 73t-24.5 66t-17.5 48.5l-6.5 19l119 62l53 -152q54 -48 130 -48q121 0 121 118v384h-561v109h1871v-109zM1498 408v180q-125 -86 -261 -86
q-64 0 -120.5 22t-98.5 61t-66.5 93t-24.5 117q0 64 24.5 118t67.5 93.5t101 61.5t126 22q64 0 127 -22l36 -112q-49 25 -146 25q-45 0 -81 -13t-61.5 -37t-39 -57t-13.5 -73q0 -186 189 -186q119 0 241 111v571h-798v-367q0 -53 -18 -98.5t-50 -79.5t-77.5 -53t-100.5 -19
q-13 0 -28 2t-28 4.5t-22 5l-9 2.5q0 -25 55 -128q76 -144 186 -234q154 -126 352 -126q258 0 538 202zM1949 -561l-62 -62l-457 342l110 118z" />
    <glyph glyph-name="uni0917_uni094D.haln" horiz-adv-x="1340" 
d="M1374 1297h-229v-1297h-143v1297h-415v-710q0 -111 -62 -111q-64 0 -189 125q-124 124 -124 197q0 51 73 51h161v448h-446v109h1374v-109zM1449 -561l-75 -62l-445 342l110 118z" />
    <glyph glyph-name="uni0918_uni094D.haln" horiz-adv-x="1475" 
d="M1491 1297h-228v-1297h-145v437q-244 -160 -453 -160q-77 0 -146 23.5t-122 65t-84 97t-31 118.5q0 113 78 197q57 62 80 62q-39 0 -116 53q-109 76 -109 197q0 27 8.5 60t20.5 63t26 53t26 31h-296v109h1491v-109zM1118 584v713h-650q-11 0 -30.5 -18.5t-38.5 -46.5
t-33 -62t-14 -65q0 -39 18 -73.5t46.5 -61t64.5 -42t72 -15.5h234l48 -98h-155q-47 0 -92.5 -18t-82.5 -49t-59.5 -72.5t-22.5 -88.5q0 -43 20.5 -79.5t55.5 -63.5t81.5 -42t99.5 -15q114 0 262 79q51 28 95 57t81 61zM1598 -561l-62 -62l-456 342l109 118z" />
    <glyph glyph-name="uni0919_uni094D.haln" horiz-adv-x="1618" 
d="M1573 762h-183v165h183v-165zM1633 1297h-401v-358h-581q-22 0 -22 -35q0 -57 85 -169q85 -114 184 -114q48 0 152 42q105 43 154 43q32 0 58 -16.5t44 -45.5t28 -69t10 -87q0 -101 -30.5 -181.5t-85.5 -137.5t-132.5 -87.5t-171.5 -30.5q-271 0 -560 310
q-123 132 -237 310l107 102q55 -89 110 -165t110 -140q263 -305 470 -305q63 0 114.5 23.5t88.5 66t57 101t20 128.5q0 28 -2.5 47t-10 30t-21.5 15.5t-37 4.5q-19 0 -113 -39q-92 -38 -148 -38q-134 0 -270 171q-126 157 -126 266t145 109h469v249h-1090v109h1633v-109z
M1276 -561l-62 -62l-456 342l110 118z" />
    <glyph glyph-name="uni091A_uni094D.haln" horiz-adv-x="1466" 
d="M1491 1297h-228v-1297h-145v483q-190 -187 -424 -187q-71 0 -129.5 21.5t-100.5 60.5t-65.5 94t-23.5 123q0 198 206 332h-443v113h822v-113h-173q-58 0 -151 -84q-117 -105 -117 -242q0 -90 48.5 -141t132.5 -51q227 0 418 260v628h-1118v109h1491v-109zM1574 -561
l-83 -62l-436 342l110 118z" />
    <glyph glyph-name="uni091C_uni094D.haln" horiz-adv-x="1702" 
d="M1724 1297h-228v-1297h-144v872h-383q18 -11 64 -92q57 -101 57 -174q0 -74 -22.5 -136t-63.5 -107t-100 -70t-131 -25q-182 0 -340 179q-116 129 -204 334q-68 157 -67 181q0 2 0.5 2.5t0.5 1.5l119 88q-2 -2 -2 -5q0 -14 13.5 -56.5t42.5 -117.5q38 -100 80.5 -181
t92.5 -146q132 -176 278 -176q35 0 65.5 17.5t53 48t35 71t12.5 86.5q0 108 -102 254q-89 126 -106 126h607v322h-1352v109h1724v-109zM1824 -561l-100 -62l-419 342l109 118z" />
    <glyph glyph-name="uni091D_uni094D.haln" horiz-adv-x="1618" 
d="M1637 1297h-229v-1297h-143v562q-82 -32 -132 -32q-29 0 -70.5 10t-87.5 27v-79q0 -169 -169 -274q-117 -74 -185 -73q15 -11 42.5 -27.5t63 -36t78 -41t87.5 -42.5l-85 -101q-14 7 -56.5 31.5t-112.5 69.5q-31 20 -71 50t-91 74q-11 -2 -21 -3q-8 -1 -17 -1.5t-15 -0.5
q-114 0 -179.5 39t-65.5 111q0 22 8.5 42.5t23 36t34 24.5t41.5 9q83 0 163 -69q63 -56 63 -72q324 34 324 277q0 27 -2 44.5t-10 27.5t-23 14t-41 4q-6 0 -33 -6.5t-60.5 -14.5t-67.5 -14.5t-54 -6.5q-121 0 -245 148q-113 135 -113 232q0 121 142 121h408v237h-736v109
h1637v-109zM1265 681v616h-388v-350h-519q-27 0 -27 -22q0 -7 8.5 -27.5t24 -47.5t37.5 -57t49.5 -55t60 -41.5t68.5 -16.5q31 0 59.5 6.5t56 14.5t55 14.5t57.5 6.5q25 0 51 -10t47 -22t35 -22t16 -11q71 -28 141 -28q95 0 168 52zM1724 -561l-63 -62l-456 342l110 118z
" />
    <glyph glyph-name="uni091E_uni094D.haln" horiz-adv-x="1554" 
d="M1578 1297h-228v-1297h-145v588q-22 -7 -58 -7q-71 0 -194 48q0 -94 -65 -213q-113 -204 -355 -204q-132 0 -305 89q-137 71 -149 94l90 107q207 -183 364 -183q65 0 117 24.5t88 69.5t55.5 109t19.5 143q0 316 -266 316q-17 0 -42 -8t-51 -19.5t-48.5 -25t-33.5 -24.5
l-95 111q157 81 256 81q150 0 257.5 -89.5t156.5 -270.5q85 -42 135 -42q69 0 123 27v576h-1205v109h1578v-109zM1674 -561l-96 -62l-424 342l111 118z" />
    <glyph glyph-name="uni091F_uni094D.haln" horiz-adv-x="1373" 
d="M1384 1297h-321v-420h-484q-50 0 -94.5 -19t-78 -52t-53.5 -77t-20 -94q0 -86 36.5 -164.5t98 -139.5t143 -97t170.5 -36q239 0 363 205l119 -70q-173 -254 -462 -254q-242 0 -423 168q-180 166 -180 397q0 73 27.5 137t75 111.5t111 75t135.5 27.5h377v302h-924v109
h1384v-109zM1160 -561l-62 -62l-456 342l110 118z" />
    <glyph glyph-name="glyph556" horiz-adv-x="1609" 
d="M1640 1297h-377v-237q60 -21 102 -47t68.5 -60t38 -77t11.5 -98q0 -293 -255 -498q-236 -189 -522 -189q-92 0 -168.5 29t-131.5 80.5t-85.5 122t-30.5 153.5q0 188 150 302q-41 0 -130 65q-124 91 -124 220q0 35 8.5 71t23 68t33.5 57t39 38h-290v109h1640v-109z
M1350 778q0 175 -155 175q-33 0 -60.5 -13.5t-46.5 -38t-29.5 -58.5t-10.5 -75q0 -127 73 -239q53 -83 83 -95q25 13 75 96q71 119 71 248zM1125 1054v243h-657q-21 -5 -76 -75q-35 -43 -51 -79.5t-16 -68.5q0 -44 22.5 -83.5t58.5 -69t81.5 -47t91.5 -17.5q13 0 35 2
t43 4.5t36 5t15 3.5l57 -107q-12 2 -24 3t-24 1q-60 0 -113.5 -22.5t-93.5 -60.5t-63.5 -89.5t-23.5 -108.5q0 -61 24 -114t64.5 -92t95 -61.5t115.5 -22.5q131 0 271 78q104 58 117 82q-27 9 -96 125q-90 151 -90 295q0 121 52 179q33 38 149 97zM1199 -533l-62 -62
l-456 341l109 118z" />
    <glyph glyph-name="uni0924_uni094D.haln" horiz-adv-x="1355" 
d="M1374 1297h-229v-1297h-143v883h-514q-192 0 -192 -153q0 -143 97 -300q19 -31 45.5 -66t56 -70.5t60 -68t55.5 -57.5t43 -40t24 -15l-90 -93q-15 0 -115 99q-63 63 -114 126t-91 128q-109 178 -109 343q0 62 18.5 111.5t52.5 84t82.5 53t108.5 18.5h582v314h-1002v109
h1374v-109zM1449 -561l-75 -62l-445 342l110 118z" />
    <glyph glyph-name="uni0925_uni094D.haln" horiz-adv-x="1475" 
d="M1491 1297h-228v-1297h-145v479q-188 -194 -464 -194q-202 0 -360 122q-110 84 -187 227q-54 99 -54 125q126 -43 226 -43q76 0 144.5 25.5t119.5 70t81 104.5t30 129q0 54 -20.5 103t-55 86.5t-80.5 60t-97 22.5q-39 0 -71.5 -11.5t-55.5 -32.5t-36 -49.5t-13 -62.5
q0 -27 12.5 -52.5t33.5 -44.5t48 -30.5t56 -11.5q16 0 31 3v-98q-321 0 -321 240q0 60 24 108.5t67 82.5t102 52.5t128 18.5q85 0 156 -29t123 -81t81 -123t29 -155q0 -230 -174 -348q-127 -88 -282 -88q-49 0 -62 10q10 -35 99 -96q128 -89 287 -89q284 0 455 236v631h-241
v109h614v-109zM1585 -561l-94 -62l-425 342l110 118z" />
    <glyph glyph-name="uni0926_uni094D.haln" horiz-adv-x="1364" 
d="M1379 1297h-305v-370h-524q-46 0 -84 -13t-65.5 -37t-42.5 -58t-15 -76q0 -91 27.5 -159t79 -113.5t125.5 -68t167 -22.5q55 0 108 9q-12 42 -12 84q0 148 145 148q29 0 54 -12t43 -32.5t28.5 -47t10.5 -55.5q0 -32 -12.5 -65t-30 -59.5t-37 -43t-33.5 -16.5
q0 -11 17 -47.5t43.5 -86t58.5 -104.5t62 -103h-175q0 9 -62 144q-18 39 -34.5 79t-29.5 82q-20 -2 -42 -3.5t-48 -1.5q-134 0 -241.5 31.5t-184 92t-120.5 148.5t-52 201q-1 4 -1 12v12q0 63 25 117.5t67 95t98 63.5t118 23h416v252h-921v109h1379v-109zM1276 -561l-62 -62
l-456 342l110 118z" />
    <glyph glyph-name="uni0927_uni094D.haln" horiz-adv-x="1326" 
d="M1344 1297h-228v-1297h-144v461q-50 -62 -135 -114q-72 -44 -149.5 -64t-162.5 -20q-75 0 -142.5 23t-118.5 63.5t-81 95.5t-30 119q0 37 11 75t29.5 71.5t43.5 60.5t53 42q-234 154 -234 345q0 277 283 277q52 0 98.5 -16.5t80.5 -46t54 -69.5t20 -86v-84h-121v84
q0 113 -127 113q-64 0 -103.5 -45.5t-39.5 -123.5q0 -199 183 -292q82 38 214 38q7 0 73 -6l65 -109q1 0 -9.5 1t-32.5 3q-21 2 -39 3.5t-34 1.5q-69 0 -128 -17t-102 -47.5t-67.5 -73t-24.5 -93.5q0 -45 17 -81.5t47 -62.5t72 -40t92 -14q154 0 300 108q93 68 145 143v674
h-278v109h650v-109zM1411 -561l-67 -62l-450 342l108 118z" />
    <glyph glyph-name="uni0928_uni094D.haln" horiz-adv-x="1332" 
d="M1344 1297h-228v-1297h-144v821h-467v-257q-9 -34 -59 -34q-40 0 -161 135q-122 134 -122 178q0 90 105 90h704v364h-972v109h1344v-109zM1423 -561l-79 -62l-441 342l111 118z" />
    <glyph glyph-name="uni092A_uni094D.haln" horiz-adv-x="1203" 
d="M1227 1297h-228v-1297h-143v540q-124 -91 -255 -91q-88 0 -159 27.5t-121.5 77t-78 119t-27.5 154.5v470h-215v109h1227v-109zM856 709v588h-498v-496q0 -118 64.5 -183t175.5 -65q132 0 258 156zM1276 -561l-62 -62l-456 342l110 118z" />
    <glyph glyph-name="uni092B_uni094D.haln" horiz-adv-x="1726" 
d="M1754 1297h-798v-405q114 128 253 128q73 0 139 -27t115.5 -74t78.5 -110.5t29 -136.5q0 -119 -68 -243q-20 -36 -51.5 -77.5t-63 -78t-58 -62t-36.5 -28.5l-119 88q249 163 249 420q0 99 -55 156t-155 57q-94 0 -185 -112q-73 -88 -73 -115v-677h-141v547
q-107 -101 -262 -101q-81 0 -146 25.5t-110.5 72t-70.5 112t-25 145.5v496h-201v109h1754v-109zM815 765v532h-471v-519q0 -225 200 -225q53 0 102 19t86.5 49t60 68t22.5 76zM1276 -561l-62 -62l-456 342l110 118z" />
    <glyph glyph-name="uni092C_uni094D.haln" horiz-adv-x="1203" 
d="M1227 1297h-228v-1297h-143v390q-121 -94 -277 -94q-89 0 -167 29.5t-136 81t-92 122t-34 151.5q0 84 31.5 155.5t86.5 123t130.5 80.5t162.5 29q14 0 41.5 -4t54.5 -9t47.5 -9.5t20.5 -5.5l26 -122q0 1 -18.5 6.5t-45 12t-56.5 11.5t-52 5q-141 0 -204 -70l481 -324v738
h-856v109h1227v-109zM801 494l-485 321q-31 -52 -31 -129q0 -64 23 -116t63.5 -89t97 -57.5t123.5 -20.5q28 0 62.5 10t65.5 24t53.5 29.5t27.5 27.5zM1276 -561l-62 -62l-456 342l110 118z" />
    <glyph glyph-name="uni092D_uni094D.haln" horiz-adv-x="1361" 
d="M1403 1297h-229v-1297h-144v644h-421v-204q0 -73 -56 -73q-43 0 -184 142t-141 191q0 11 8 22.5t19 21t23.5 15.5t20.5 6h169v444q0 127 -140 127q-57 0 -92 -39t-35 -102q0 -71 42 -141l-127 -1q-2 0 -8.5 15.5t-14 37.5t-13.5 45.5t-6 40.5q0 58 18.5 105t52.5 79.5
t83 50t111 17.5q55 0 104.5 -18t86 -50.5t58 -77t21.5 -97.5v-436h421v532h-300v109h673v-109zM1461 -561l-58 -62l-461 342l110 118z" />
    <glyph glyph-name="uni092E_uni094D.haln" horiz-adv-x="1320" 
d="M1344 1297h-228v-1297h-144v688h-481v-194q0 -62 -57 -62q-53 0 -173 127t-120 177q0 71 79 71h124v490h-344v109h1344v-109zM972 807v490h-481v-490h481zM1411 -561l-62 -62l-455 342l108 118z" />
    <glyph glyph-name="uni092F_uni094D.haln" horiz-adv-x="1375" 
d="M1403 1297h-229v-1297h-144v412q-179 -149 -346 -149q-298 0 -425 268q-67 140 -67 276q2 0 35 -10t58 -10q240 0 240 233q0 125 -135 277h-390v109h1403v-109zM1030 591v706h-469q6 -4 21 -27.5t36 -67.5q26 -55 39 -102t14 -88q0 -186 -156 -277q-94 -55 -163 -55
q0 -57 61 -142q96 -137 278 -137q213 0 339 190zM1472 -561l-62 -62l-456 342l110 118z" />
    <glyph glyph-name="glyph568" horiz-adv-x="1083" 
d="M1116 1297h-273v-358q0 -59 -23.5 -107.5t-64 -83t-95 -53.5t-117.5 -19q-49 0 -89 15q40 -81 195 -282q15 -20 41.5 -51t57 -65.5t61.5 -69t56.5 -62.5t42 -45.5l16.5 -17.5l-103 -98q-5 5 -16 17.5t-25.5 28.5t-30.5 34t-30 34.5t-25 29.5t-16 18q-81 96 -148 180.5
t-121 162.5q-185 268 -276 448l110 81l109 -191q7 -12 24 -23.5t39 -21t47.5 -15t48.5 -5.5q189 0 189 175v344h-700v109h1116v-109zM1110 -561l6 -62l-524 342l110 118z" />
    <glyph glyph-name="glyph569" horiz-adv-x="1606" 
d="M1637 1297h-229v-1297h-143v822q-113 -29 -197 -114q-26 -26 -51.5 -62.5t-46.5 -73.5t-35 -69.5t-17 -48.5l-117 63q0 15 22.5 63.5t68.5 127.5q-12 30 -80 80q-96 69 -203 69q-60 0 -108.5 -19t-83.5 -54t-54 -83.5t-19 -108.5q0 -136 119 -261q85 -90 221 -162
q104 -56 123 -56l-68 -122q-25 0 -144 71q-158 92 -254 207q-136 160 -135 332q0 87 27.5 156.5t79 117.5t126 74t167.5 26q135 0 258 -84q76 -53 102 -90q16 13 43 34t64.5 42t85.5 40t106 30v350h-1265v109h1637v-109zM1735 -561l-98 -62l-421 342l110 118z" />
    <glyph glyph-name="uni0935_uni094D.haln" horiz-adv-x="1215" 
d="M1257 1297h-229v-1297h-142v424q-126 -108 -294 -108q-86 0 -161 29t-130 81t-86.5 122.5t-31.5 154.5q0 82 27.5 151t76.5 118.5t115.5 77t144.5 27.5q88 0 183 -37l29 -116q-86 42 -198 42q-233 0 -233 -275q0 -57 19 -106t52.5 -85t80 -56.5t101.5 -20.5
q154 0 305 160v714h-886v109h1257v-109zM1335 -561l-78 -62l-439 342l108 118z" />
    <glyph glyph-name="glyph571" horiz-adv-x="1621" 
d="M1637 1297h-229v-1297h-143v1297h-452q143 -110 143 -316q0 -274 -228 -415q-149 -92 -274 -92l444 -381l-91 -99l-652 559l93 96l91 -76q216 0 338 104q131 113 131 248v19q-1 1 -1 4v1v-3q0 -7 -72 -53q-88 -58 -176 -58q-68 0 -126 21.5t-100 60t-66 91.5t-24 117
q0 105 79 172h-322v109h1637v-109zM792 1096q0 33 -50 104q-72 102 -181 102q-82 0 -128 -47t-46 -125q0 -36 15 -69.5t40.5 -58.5t59 -40t71.5 -15q97 0 168 72q51 52 51 77zM1735 -561l-62 -62l-457 342l110 118z" />
    <glyph glyph-name="uni0937_uni094D.haln" horiz-adv-x="1232" 
d="M1257 1297h-229v-1297h-142v499q-137 -90 -271 -90q-81 0 -152.5 27.5t-125.5 74.5t-85.5 111t-31.5 137v538h-220v109h1257v-109zM886 766v531h-496zM877 629l-510 552v-428q0 -54 18 -97.5t51.5 -73.5t80.5 -46.5t104 -16.5q37 0 78.5 11t78 27.5t63.5 35.5t36 36z
M1335 -561l-62 -62l-455 342l108 118z" />
    <glyph glyph-name="uni0938_uni094D.haln" horiz-adv-x="1574" 
d="M1608 1297h-229v-1297h-144v708h-349l-94 113h443v476h-476v-358q0 -113 -14 -160q-20 -64 -73.5 -99t-135.5 -35q-39 0 -73 12q23 -46 66 -111.5t106 -150.5q18 -25 45 -58.5t60.5 -72t72 -81t79.5 -85.5l-114 -98q-5 7 -23.5 30t-40 49t-40 49t-24.5 30
q-75 94 -138 179.5t-117 167.5q-71 106 -131.5 209.5t-113.5 209.5l113 71l81 -152q48 -90 152 -90q121 0 121 129q0 6 -0.5 16t-0.5 20q0 11 -0.5 20.5t-0.5 14.5v344h-615v109h1608v-109zM1685 -561l-77 -62l-442 342l110 118z" />
    <glyph glyph-name="uni0939_uni094D.haln" horiz-adv-x="1273" 
d="M1317 1297h-292v-356h-644q-51 0 -51 -38q0 -31 32 -85t106 -141q117 39 240 39q408 0 408 -282q0 -147 -135 -214l-104 76q92 45 92 144q0 166 -251 166q-84 0 -151.5 -18t-115 -52t-73.5 -82.5t-26 -109.5q0 -54 30.5 -102.5t89 -89.5t143 -73.5t191.5 -54.5
q117 -24 150 -24q11 0 13 3l-45 -94q-5 -3 -20 -3q-22 0 -64 6.5t-108 19.5q-207 42 -343 128q-183 115 -183 292q0 173 161 269q-184 184 -184 320q0 119 127 119h573v237h-883v109h1317v-109zM1073 -561l-62 -62l-456 342l110 118z" />
    <glyph glyph-name="uni0933_uni094D.haln" horiz-adv-x="1609" 
d="M1633 1297h-387v-285q13 0 37.5 -14t52.5 -36.5t54.5 -51t44.5 -56.5q65 -107 65 -253q0 -93 -25 -172.5t-71 -137t-111.5 -90t-145.5 -32.5q-239 0 -317 234q-15 -55 -45.5 -100.5t-72.5 -78.5t-93 -51t-108 -18q-75 0 -139.5 35t-112 95t-74.5 140t-27 170q0 84 28 159
t76.5 131t114.5 88.5t142 32.5q225 0 316 -214q0 8 13 31t32 49.5t40.5 51t39.5 36.5q76 49 145 52v285h-1105v109h1633v-109zM1350 595q0 303 -211 303q-113 0 -188 -145q-54 -104 -54 -148q0 -8 1 -10q-1 -2 -1 -9q0 -20 7.5 -50.5t20 -63.5t29 -64t33.5 -52
q33 -41 76 -60t95 -19q192 0 192 318zM773 595q0 56 -49 153q-75 148 -207 148q-48 0 -86 -23t-65 -63.5t-41.5 -96t-14.5 -121.5q0 -324 207 -324q132 0 207 162q49 104 49 165zM1485 -561l-62 -62l-457 342l111 118z" />
    <glyph glyph-name="glyph576" horiz-adv-x="1419" 
d="M1448 1297h-229v-1297h-144v789q-149 -70 -325 -70q-31 0 -70.5 5.5t-80.5 14.5t-81 19.5t-71 20t-50 17t-19 10.5q0 1 3 1q-203 -104 -203 -274q0 -221 246 -221q18 0 38 1.5t43 5.5q-2 17 -3.5 31t-1.5 26q0 141 121 141q147 0 147 -136q0 -84 -111 -133
q11 -16 20.5 -30.5t28 -36t51 -53.5t89.5 -83l-121 -87q-15 18 -35.5 41.5t-43.5 54.5t-47 70t-46 88q0 -1 -16 -3.5t-38.5 -5.5t-45.5 -5.5t-36 -2.5q-87 0 -157.5 24.5t-121 69.5t-78 109.5t-27.5 145.5q0 189 244 328q-24 8 -83 89q-76 106 -76 206q0 54 22 99.5
t60.5 78.5t90.5 51.5t112 18.5q68 0 124.5 -18.5t96.5 -52.5t62 -83t22 -109q0 -119 -104 -208q-18 -16 -36 -29t-33 -22t-25.5 -14t-14.5 -5q-2 0 -2 2q0 -3 23.5 -10t60.5 -14.5t83 -13t90 -5.5q185 0 325 77v387h-270v109h643v-109zM567 1161q0 141 -166 141
q-69 0 -106.5 -40.5t-37.5 -100.5q0 -106 64 -179q24 -28 39.5 -41.5t26.5 -13.5q30 0 92 50q88 72 88 184zM1535 -561l-62 -62l-456 342l109 118z" />
    <glyph glyph-name="glyph577" horiz-adv-x="1581" 
d="M1606 1297h-228v-1297h-145v953h-832q-36 0 -36 -30q0 -49 75 -145q87 -113 169 -113q24 0 60 9t73.5 19.5t72 19.5t57.5 9q37 0 68 -17.5t53.5 -47t34.5 -69t12 -83.5q0 -111 -70.5 -196.5t-205.5 -139.5q-77 -32 -101 -31l270 -214l-106 -82l-280 265h-87
q-49 0 -93.5 12t-78 33t-53.5 50.5t-20 65.5q0 22 9.5 41t25 33t36 22t42.5 8q56 0 136 -68q23 -20 37 -34.5t22 -24t11.5 -14t5.5 -4.5q17 0 52 8.5t75 22.5t78.5 32t63.5 37q95 72 95 178q0 48 -19.5 69t-57.5 21q-11 0 -39 -7.5t-62 -16.5t-68.5 -16.5t-56.5 -7.5
q-132 0 -259 144q-122 137 -122 256q0 55 40 88t101 33h872v229h-1227v109h1600v-109zM1690 -561l-84 -62l-435 342l110 118z" />
    <glyph glyph-name="glyph578" horiz-adv-x="1170" 
d="M1382 798q3 0 3 1q0 3 -11.5 8.5t-32.5 11.5t-51 10t-67 4q-48 0 -92.5 -25t-79 -64.5t-55.5 -88t-21 -94.5v-561h-140v409l-600 -438l-87 114l345 231q-63 15 -117 50t-93.5 84.5t-62 110t-22.5 125.5q0 78 30.5 145t82.5 116.5t121 78t147 28.5q60 0 129 -29v-121
q-46 37 -116 37q-50 0 -95 -20t-79 -54t-54 -79.5t-20 -96.5q0 -56 18 -106t50 -88t74.5 -60.5t92.5 -22.5q119 0 199 99q57 70 57 108v676h-835v109h1204v-109h-229v-473q111 134 242 134q27 0 56.5 -5.5t54 -13t40 -14.5t15.5 -9h-1v-118z" />
    <glyph glyph-name="glyph579" horiz-adv-x="1266" 
d="M1522 587l-754 -288l-103 104q1 0 237 72q237 72 242 72q-41 0 -112 53q-108 81 -108 230q0 58 24.5 105.5t67.5 82t102 53.5t128 19q64 0 127 -22l36 -108q-49 23 -146 23q-44 0 -80 -13.5t-61.5 -37.5t-39.5 -57.5t-14 -73.5q0 -183 189 -183q118 0 265 90v-121z
M1522 290q-61 -40 -212 -102q-239 -97 -433 -97q-488 0 -660 501q-7 20 -15.5 52t-17.5 68.5t-17 74t-14.5 69t-10.5 52.5t-4 25l119 62l28 -155q0 -3 13 -10.5t32 -15t40.5 -13.5t38.5 -6q152 0 152 129v373h-561v109h1302v-109h-602v-379q0 -45 -20 -85.5t-54.5 -71.5
t-82.5 -49t-103 -18q-105 0 -127 22q0 -38 40 -136q61 -152 166 -247q145 -132 358 -132q209 0 445 103q187 80 200 107v-121z" />
    <glyph glyph-name="glyph580" horiz-adv-x="786" 
d="M821 1297h-234v-668q0 -110 -62 -110q-64 0 -189 125q-124 124 -124 196q0 52 73 52h161v405h-446v109h821v-109zM1045 474l-664 -468l-99 112l763 463v-107z" />
    <glyph glyph-name="glyph581" horiz-adv-x="891" 
d="M1136 505l-682 -499l-102 118q4 -1 220 114q109 58 161.5 87.5t50.5 29.5q-59 -22 -119 -22q-80 0 -149.5 22t-121.5 60.5t-82 91t-30 114.5q0 112 78 195q56 59 80 59q-42 0 -116 47q-109 70 -109 191q0 27 7 55t18.5 53.5t26 45.5t29.5 30h-296v109h924v-109h-456
q-14 0 -34 -15t-38 -39t-31 -54.5t-13 -60.5q0 -38 17.5 -71t45.5 -57.5t64 -38.5t74 -14h234l48 -98h-155q-47 0 -93 -17.5t-82.5 -48t-59 -71t-22.5 -86.5q0 -42 19.5 -75.5t54 -57.5t81.5 -37t102 -13q130 0 303 99q143 81 153 109v-146z" />
    <glyph glyph-name="glyph582" horiz-adv-x="1618" 
d="M1573 762h-183v165h183v-165zM1633 1297h-401v-358h-581q-22 0 -22 -35q0 -57 85 -169q85 -114 184 -114q48 0 152 42q105 43 154 43q32 0 58 -16.5t44 -45.5t28 -69t10 -87q0 -87 -23.5 -160.5t-67.5 -130t-107 -92.5t-142 -48l377 -444h-172l-323 420l-348 -420h-205
l446 461q-339 104 -652 597l107 102q55 -89 110 -165t110 -140q263 -305 470 -305q63 0 114.5 23.5t88.5 66t57 101t20 128.5q0 28 -2.5 47t-10 30t-21.5 15.5t-37 4.5q-19 0 -113 -39q-92 -38 -148 -38q-134 0 -270 171q-126 157 -126 266t145 109h469v249h-1090v109h1633
v-109zM1326 -774l-62 -62l-456 342l109 118z" />
    <glyph glyph-name="glyph583" horiz-adv-x="899" 
d="M933 1297h-933v109h933v-109zM1147 499q0 -2 -665 -508l-95 116l381 221q-30 -12 -74 -12q-65 0 -122.5 23t-101.5 64.5t-69.5 97.5t-25.5 122q0 199 206 304h-443v113h822v-113h-173q-63 0 -151 -70q-117 -92 -117 -228q0 -203 211 -203q119 0 277 113q135 97 140 126
v-166z" />
    <glyph glyph-name="glyph584" horiz-adv-x="1609" 
d="M1640 1297h-377v-237q60 -21 102 -47t68.5 -60t38 -77t11.5 -98q0 -235 -172 -419q-156 -168 -388 -236l401 -471h-172l-323 420l-348 -420h-205l426 439q-91 1 -166.5 30t-130 80t-85 121.5t-30.5 153.5q0 188 150 302q-41 0 -130 65q-124 91 -124 220q0 35 8.5 71
t23 68t33.5 57t39 38h-290v109h1640v-109zM1350 778q0 175 -155 175q-33 0 -60.5 -13.5t-46.5 -38t-29.5 -58.5t-10.5 -75q0 -127 73 -239q53 -83 83 -95q25 13 75 96q71 119 71 248zM1125 1054v243h-657q-21 -5 -76 -75q-35 -43 -51 -79.5t-16 -68.5q0 -44 22.5 -83.5
t58.5 -69t81.5 -47t91.5 -17.5q13 0 35 2t43 4.5t36 5t15 3.5l57 -107q-12 2 -24 3t-24 1q-60 0 -113.5 -22.5t-93.5 -60.5t-63.5 -89.5t-23.5 -108.5q0 -61 24 -114t64.5 -92t95 -61.5t115.5 -22.5q131 0 271 78q104 58 117 82q-27 9 -96 125q-90 151 -90 295q0 121 52 179
q33 38 149 97zM1269 -735l-63 -62l-455 341l110 118z" />
    <glyph glyph-name="glyph585" horiz-adv-x="1116" 
d="M1149 1297h-1149v109h1149v-109zM1359 950l-390 -3q16 -11 35.5 -38.5t36 -62t28 -72t11.5 -68.5q0 -64 -25 -116t-70 -89t-107 -57.5t-136 -20.5q-182 0 -332 159q-108 115 -188 298q-59 134 -59 165l119 85q-1 -1 -1 -6q0 -26 48 -153q66 -176 156 -287
q124 -154 271 -154q180 0 180 164q0 100 -93 240q-81 120 -98 120l614 3v-107zM1359 437l-648 -443l-88 107l736 443v-107z" />
    <glyph glyph-name="glyph586" horiz-adv-x="1206" 
d="M1463 401l-330 -401l-138 93l468 451v-143zM1463 665l-96 -57q-113 -55 -234 -55q-20 0 -46.5 4t-60.5 4q-51 0 -51 -73q0 -169 -169 -274q-117 -74 -185 -73q15 -11 42.5 -27.5t63 -36t78 -41t87.5 -42.5l-85 -101q-14 7 -56.5 31.5t-112.5 69.5q-31 20 -71 50t-91 74
q-11 -2 -21 -3q-8 -1 -17 -1.5t-15 -0.5q-114 0 -179.5 39t-65.5 111q0 22 8.5 42.5t23 36t34 24.5t41.5 9q83 0 163 -69q63 -56 63 -72q163 18 243.5 91.5t80.5 188.5q0 87 -76 87q-8 0 -35 -6.5t-60.5 -14.5t-67 -14.5t-52.5 -6.5q-121 0 -245 148q-113 135 -113 232
q0 121 142 121h408v237h-736v109h1240v-109h-363v-350h-519q-17 -9 -17 -37q0 -26 22.5 -65t57 -76t77 -63t81.5 -26q37 0 66 6.5t55 14.5t51.5 14.5t55.5 6.5q25 0 51 -10t47 -22t35 -22t16 -11q41 -16 95 -16q120 0 274 79q118 61 138 87v-142z" />
    <glyph glyph-name="glyph587" horiz-adv-x="1006" 
d="M1040 1297h-1040v109h1040v-109zM1246 601q-68 -20 -99 -20q-71 0 -194 48q0 -80 -65 -178q-112 -169 -355 -169q-133 0 -305 90q-138 73 -149 94l90 108q205 -184 364 -184q280 0 280 275q0 316 -266 316q-17 0 -42 -8t-51 -19.5t-48.5 -25t-33.5 -24.5l-95 111
q157 81 256 81q150 0 257.5 -89.5t156.5 -270.5q85 -42 135 -42q89 0 164 51v-144zM1252 310l-648 -443l-87 107l735 443v-107z" />
    <glyph glyph-name="glyph588" horiz-adv-x="1373" 
d="M1384 1297h-321v-420h-484q-50 0 -94.5 -19t-78 -52t-53.5 -77t-20 -94q0 -86 36.5 -164.5t98 -139.5t143 -97t170.5 -36q239 0 363 205l119 -70q-155 -229 -402 -251l378 -446h-172l-323 420l-347 -420h-206l451 464q-190 53 -317 204t-127 340q0 73 27.5 137t75 111.5
t111 75t135.5 27.5h377v302h-924v109h1384v-109zM1184 -751l-62 -62l-456 342l109 118z" />
    <glyph glyph-name="glyph589" horiz-adv-x="1373" 
d="M1384 1297h-330v-405h-507q-48 0 -88 -20.5t-69.5 -55.5t-45.5 -81t-16 -97q0 -179 139 -311q66 -63 134.5 -92t143.5 -29q69 0 130 23.5t107 63.5t73 94t27 115q0 34 -11 71t-28.5 70t-38 58t-38.5 35l97 91q35 -23 63.5 -59t48.5 -79.5t31 -93t11 -99.5
q0 -77 -26 -141.5t-73.5 -114.5t-114.5 -84t-148 -48l371 -438h-172l-324 421l-346 -421h-207l433 446q-180 46 -300 190q-124 148 -124 338q0 81 28.5 147.5t79 114.5t120.5 74t153 26h346v291h-913v109h1384v-109zM1171 -716l-62 -62l-457 341l111 118z" />
    <glyph glyph-name="glyph590" horiz-adv-x="1475" 
d="M1497 1297h-293v-358h-553q-21 0 -21 -32q0 -53 85 -168q85 -114 157 -114q15 0 26 4q282 77 306 77q32 0 58 -16.5t44 -45.5t28 -69t10 -87q0 -87 -23.5 -160.5t-67.5 -130t-107 -92.5t-142 -48l377 -444h-172l-323 420l-348 -420h-205l446 461q-162 49 -331 203
q-120 109 -233 262q-88 118 -88 132l107 102q0 -10 25 -50.5t79 -115.5q64 -88 128.5 -160.5t130.5 -129.5q178 -154 327 -154q64 0 116 24t88.5 67t56 101.5t19.5 126.5q-1 28 -3.5 47t-10 30t-21 15.5t-36.5 4.5q-19 0 -113 -39q-92 -38 -148 -38q-134 0 -270 171
q-126 157 -126 266t145 109h442v249h-1063v109h1497v-109zM1326 -774l-62 -62l-456 342l109 118z" />
    <glyph glyph-name="glyph591" horiz-adv-x="1355" 
d="M1379 1297h-331v-411h-487q-50 0 -93 -17.5t-75 -49.5t-50 -76.5t-18 -98.5q0 -189 117 -313q30 -32 75.5 -62t94 -53.5t93.5 -38t73 -14.5q-17 9 -36 35t-35 61t-26 75.5t-10 79.5q0 54 21.5 102t58.5 84t85.5 56.5t102.5 20.5q58 0 109 -20.5t88.5 -57t59 -87
t21.5 -111.5q0 -72 -27.5 -131.5t-77.5 -103.5t-119 -70.5t-151 -32.5l382 -450h-172l-324 420l-346 -420h-206l460 475q-190 55 -316 199q-137 158 -137 351q0 74 26.5 137t73.5 109.5t111 72.5t139 26h371v314h-904v109h1379v-109zM1082 395q0 78 -36 122t-99 44
q-32 0 -59.5 -12t-48 -33.5t-32.5 -51t-12 -63.5q0 -169 123 -218q35 0 64.5 18t51 47.5t34.5 67.5t14 79zM1169 -774l-62 -62l-456 342l110 118z" />
    <glyph glyph-name="glyph592" horiz-adv-x="1006" 
d="M1040 1297h-142v-519q0 -77 -22 -139.5t-63 -106.5t-100 -68t-134 -24q-76 0 -138.5 24t-107 68t-69 104.5t-24.5 134.5v526h-240v109h1040v-109zM759 778v519h-378v-526q0 -106 49 -166.5t140 -60.5q189 0 189 234zM1273 530l-745 -520l-87 107l832 521v-108z" />
    <glyph glyph-name="glyph593" horiz-adv-x="891" 
d="M924 1297h-924v109h924v-109zM1136 525l-662 -398l-87 121l679 358q0 14 -158 154q-170 150 -231 150q-126 0 -437 -185l-85 108q355 210 539 210q119 0 442 -366v-152z" />
    <glyph glyph-name="glyph594" horiz-adv-x="899" 
d="M1164 488l-809 -494l-87 133l443 192q-11 -2 -26.5 -3t-34.5 -1q-174 0 -337 99q-109 65 -195 209q-65 110 -65 136l26.5 -2.5t63 -5t73.5 -4.5t58 -2q80 0 149.5 22t120.5 61.5t80.5 94.5t29.5 122q0 54 -20.5 103t-55 86.5t-80.5 60t-97 22.5q-39 0 -71.5 -11.5
t-55.5 -32.5t-36 -49.5t-13 -62.5q0 -27 12.5 -52.5t33.5 -44.5t48 -30.5t56 -11.5q16 0 31 3v-115q-324 0 -324 257q0 60 24.5 108.5t68 82.5t102.5 52.5t129 18.5q83 0 154 -30.5t123.5 -83t82 -122t29.5 -148.5q0 -97 -35 -174t-100 -130t-157 -81.5t-206 -28.5h-19
q-10 0 -13 1q147 -221 384 -221q137 0 271 63q38 18 81 46.5t79 57t60 51t24 28.5v-169z" />
    <glyph glyph-name="glyph595" horiz-adv-x="1237" 
d="M1370 1297h-325v-350h-528q-184 0 -184 -211q0 -72 30.5 -132.5t83.5 -104.5t123.5 -68.5t151.5 -24.5q21 0 50.5 3t67.5 8q38 227 155 227q130 0 130 -133q0 -73 -75 -136q-59 -50 -81 -50q6 -19 15.5 -55t24 -83t35.5 -101t50 -109q9 -18 19 -35.5t20 -34.5h-150
q-13 25 -31 73.5t-42 120.5q-53 162 -53 204l-561 -390l-84 116l504 279h-15q-184 0 -334 105q-175 124 -175 321q0 72 19.5 131t55 100.5t85.5 64t111 22.5h441v243h-904v109h1370v-109zM1169 -584l-62 -62l-456 342l110 119z" />
    <glyph glyph-name="glyph596" horiz-adv-x="730" 
d="M765 1297h-71v109h71v-109zM978 511q0 -2 -758 -505l-93 101l446 240q-35 -6 -69 -6q-72 0 -135.5 23.5t-111.5 64t-76 94.5t-28 115q0 162 137 231q-234 97 -234 289q0 277 283 277q52 0 98.5 -16.5t80.5 -46t54 -69.5t20 -86v-84h-121v84q0 113 -127 113
q-64 0 -103.5 -45.5t-39.5 -123.5q0 -200 183 -237q79 39 214 39q9 0 27 -1.5t46 -3.5l65 -109q1 0 -9.5 1t-32.5 3q-21 2 -39 3t-34 1q-74 0 -133.5 -14.5t-101.5 -42.5t-64.5 -67.5t-22.5 -88.5q0 -45 17 -81.5t47 -62.5t72 -40t92 -14q119 0 236 57q34 16 71.5 42
t69.5 52t53 47t21 27v-160z" />
    <glyph glyph-name="glyph597" horiz-adv-x="736" 
d="M771 1297h-771v109h771v-109zM995 821h-532v-257q-10 -34 -62 -34q-37 0 -160 135q-63 69 -93 113t-30 65q0 90 107 90h770v-112zM998 474l-688 -468l-88 118l776 457v-107z" />
    <glyph glyph-name="glyph598" horiz-adv-x="634" 
d="M895 595l-689 -595l-108 98l486 376q-87 7 -155.5 36t-116 76.5t-72.5 112t-25 141.5v457h-215v109h668v-109h-310v-482q0 -117 62.5 -179.5t171.5 -62.5q147 0 303 177v-155z" />
    <glyph glyph-name="glyph599" horiz-adv-x="1150" 
d="M1353 830h1q0 1 -18.5 4t-45 6.5t-56.5 6t-53 2.5q-127 0 -225 -155v-694h-141v547q-103 -78 -254 -192.5t-356 -271.5l-102 104l398 262q-69 8 -124.5 36.5t-94.5 74t-60 106.5t-21 135v496h-201v109h1184v-109h-228v-437q5 12 29 29.5t56.5 34t68 28t62.5 11.5
q25 0 57 -4t59.5 -9.5t46.5 -10.5t19 -6h-1v-103zM815 765v532h-471v-519q0 -225 200 -225q53 0 102 19t86.5 49t60 68t22.5 76z" />
    <glyph glyph-name="glyph600" horiz-adv-x="634" 
d="M668 1297h-668v109h668v-109zM901 420q0 -2 -650 -397l-88 107l404 186q-87 0 -163 29.5t-132.5 81t-89 120.5t-32.5 147q0 84 31 152.5t85.5 118t130 76.5t164.5 27q14 0 41.5 -4t54.5 -9t47.5 -9.5t20.5 -5.5l26 -122q0 1 -18.5 7.5t-45 13t-56.5 12t-52 5.5
q-144 0 -204 -73l491 -327l35 45v-181zM810 491l-494 324q-31 -49 -31 -129q0 -65 22 -117t62 -89t96.5 -57t126.5 -20q100 0 218 88z" />
    <glyph glyph-name="glyph601" horiz-adv-x="809" 
d="M843 1297h-113v109h113v-109zM1060 708h-451v-212q0 -62 -76 -62q-41 0 -165 130q-38 40 -64 71.5t-42 55.5t-23 42t-7 32q0 65 90 65h146v379q0 127 -140 127q-57 0 -92 -39t-35 -102q0 -71 42 -141l-127 -1q-2 0 -8.5 15.5t-14 37.5t-13.5 45.5t-6 40.5q0 58 18.5 105
t52.5 79.5t83 50t111 17.5q55 0 104.5 -18t86 -50.5t58 -77t21.5 -97.5v-371h451v-122zM1060 417l-668 -428l-87 124l755 425v-121z" />
    <glyph glyph-name="glyph602" horiz-adv-x="722" 
d="M981 730h-490v-189q3 -17 3 -22q0 -45 -60 -45q-41 0 -170 134q-131 134 -131 170q0 71 79 71h132v448h-344v109h756v-109h-265v-448h490v-119zM983 432l-681 -426l-87 107l768 425v-106z" />
    <glyph glyph-name="glyph603" horiz-adv-x="795" 
d="M1048 482l-653 -476l-88 107l458 279q-35 -3 -69 -3q-205 0 -335 124q-48 45 -85 102.5t-61 130.5q-32 93 -32 131q4 0 10 -2q5 -2 12 -4t17 -4q37 -10 63 -10q240 0 240 206q0 126 -135 234h-390v109h830v-109h-269q16 -11 35.5 -38.5t36 -62.5t27.5 -73t11 -69
q0 -66 -23.5 -121.5t-66 -95.5t-101 -62t-128.5 -22q0 -45 72 -133q103 -129 267 -129q144 0 263 66q87 46 94 72v-147z" />
    <glyph glyph-name="glyph604" horiz-adv-x="637" 
d="M671 1297h-671v109h671v-109zM895 432q5 -8 -670 -438l-89 107l437 227q-4 -1 -12 -1h-12q-73 0 -139.5 29t-116.5 80t-80 119.5t-30 147.5q0 82 27.5 151t76 118.5t115.5 77t145 27.5q88 0 183 -37l29 -116q-86 42 -198 42q-233 0 -233 -275q0 -57 19 -106t52.5 -85
t80 -56.5t101.5 -20.5q153 0 314 156v-147z" />
    <glyph glyph-name="glyph605" horiz-adv-x="1740" 
d="M1764 1297h-789v-411q14 29 80 77q95 68 191 68q79 0 146.5 -27t117 -74t77.5 -112t28 -141q0 -205 -279 -491l-119 85q5 0 28 23t52 57t58.5 72.5t47.5 70.5q63 109 63 197q0 222 -203 222q-115 0 -206 -118q-82 -106 -82 -203v-592h-140v446l-598 -410l-87 114l355 202
q-63 0 -157 61q-150 96 -150 273q0 78 30.5 145t82.5 116.5t121 78t147 28.5q79 0 129 -29v-118q-52 34 -116 34q-50 0 -95 -20t-79 -54t-54 -79.5t-20 -96.5q0 -49 18.5 -93.5t51 -78t75 -53.5t90.5 -20q33 -1 59.5 6.5t47.5 21.5l149 99v724h-835v109h1764v-109z" />
    <glyph glyph-name="glyph606" horiz-adv-x="1837" 
d="M1868 1297h-229v-1297h-143v276q-338 -185 -619 -185q-488 0 -660 501q-7 20 -15.5 52t-17.5 68.5t-17 74t-14.5 69t-10.5 52.5t-4 25l119 62l28 -155q0 -3 13 -10.5t32 -15t40.5 -13.5t38.5 -6q152 0 152 129v373h-561v109h1868v-109zM1496 394v183l-728 -278l-103 104
q1 0 237 72q237 72 242 72q-41 0 -112 53q-108 81 -108 230q0 58 24.5 105.5t67.5 82t102 53.5t128 19q64 0 127 -22l36 -108q-49 23 -146 23q-44 0 -80 -13.5t-61.5 -37.5t-39.5 -57.5t-14 -73.5q0 -183 189 -183q105 0 239 75v604h-796v-379q0 -45 -20 -85.5t-54.5 -71.5
t-82.5 -49t-103 -18q-105 0 -127 22q0 -38 40 -136q61 -152 166 -247q145 -132 358 -132q309 0 619 193z" />
    <glyph glyph-name="glyph607" horiz-adv-x="1380" 
d="M1402 1297h-229v-1297h-144v463l-648 -457l-99 112l747 454v725h-442v-668q0 -110 -62 -110q-64 0 -189 125q-124 124 -124 196q0 52 73 52h161v405h-446v109h1402v-109z" />
    <glyph glyph-name="glyph608" horiz-adv-x="1462" 
d="M1493 1297h-228v-1297h-144v494l-667 -488l-102 118q4 -1 220 114q109 58 161.5 87.5t50.5 29.5q-59 -22 -119 -22q-80 0 -149.5 22t-121.5 60.5t-82 91t-30 114.5q0 112 78 195q56 59 80 59q-42 0 -116 47q-109 70 -109 191q0 27 7 55t18.5 53.5t26 45.5t29.5 30h-296
v109h1493v-109zM1121 637v660h-653q-14 0 -34 -15t-38 -39t-31 -54.5t-13 -60.5q0 -38 17.5 -71t45.5 -57.5t64 -38.5t74 -14h234l48 -98h-155q-47 0 -93 -17.5t-82.5 -48t-59 -71t-22.5 -86.5q0 -42 19.5 -75.5t54 -57.5t81.5 -37t102 -13q115 0 266 79q52 27 96 55.5
t79 59.5z" />
    <glyph glyph-name="glyph609" horiz-adv-x="1618" 
d="M1573 762h-183v165h183v-165zM1633 1297h-401v-358h-581q-22 0 -22 -35q0 -57 85 -169q85 -114 184 -114q48 0 152 42q105 43 154 43q32 0 58 -16.5t44 -45.5t28 -69t10 -87q0 -87 -23.5 -160.5t-67.5 -130t-107 -92.5t-142 -48l377 -444h-172l-323 420l-348 -420h-205
l446 461q-339 104 -652 597l107 102q55 -89 110 -165t110 -140q263 -305 470 -305q63 0 114.5 23.5t88.5 66t57 101t20 128.5q0 28 -2.5 47t-10 30t-21.5 15.5t-37 4.5q-19 0 -113 -39q-92 -38 -148 -38q-134 0 -270 171q-126 157 -126 266t145 109h469v249h-1090v109h1633
v-109z" />
    <glyph glyph-name="glyph610" horiz-adv-x="1480" 
d="M1499 1297h-229v-1297h-143v483q-104 -81 -645 -492l-95 116l381 221q-30 -12 -74 -12q-65 0 -122.5 23t-101.5 64.5t-69.5 97.5t-25.5 122q0 199 206 304h-443v113h822v-113h-173q-63 0 -151 -70q-117 -92 -117 -228q0 -203 211 -203q101 0 233 84q48 30 88.5 62.5
t75.5 67.5v657h-1127v109h1499v-109z" />
    <glyph glyph-name="glyph611" horiz-adv-x="1609" 
d="M1640 1297h-377v-237q60 -21 102 -47t68.5 -60t38 -77t11.5 -98q0 -235 -172 -419q-156 -168 -388 -236l401 -471h-172l-323 420l-348 -420h-205l426 439q-91 1 -166.5 30t-130 80t-85 121.5t-30.5 153.5q0 188 150 302q-41 0 -130 65q-124 91 -124 220q0 35 8.5 71
t23 68t33.5 57t39 38h-290v109h1640v-109zM1350 778q0 175 -155 175q-33 0 -60.5 -13.5t-46.5 -38t-29.5 -58.5t-10.5 -75q0 -127 73 -239q53 -83 83 -95q25 13 75 96q71 119 71 248zM1125 1054v243h-657q-21 -5 -76 -75q-35 -43 -51 -79.5t-16 -68.5q0 -44 22.5 -83.5
t58.5 -69t81.5 -47t91.5 -17.5q13 0 35 2t43 4.5t36 5t15 3.5l57 -107q-12 2 -24 3t-24 1q-60 0 -113.5 -22.5t-93.5 -60.5t-63.5 -89.5t-23.5 -108.5q0 -61 24 -114t64.5 -92t95 -61.5t115.5 -22.5q131 0 271 78q104 58 117 82q-27 9 -96 125q-90 151 -90 295q0 121 52 179
q33 38 149 97z" />
    <glyph glyph-name="glyph612" horiz-adv-x="1685" 
d="M1711 1297h-228v-1297h-144v424l-628 -430l-88 107l716 431v418l-370 -3q16 -11 35.5 -38.5t36 -62t28 -72t11.5 -68.5q0 -64 -25 -116t-70 -89t-107 -57.5t-136 -20.5q-182 0 -332 159q-108 115 -188 298q-59 134 -59 165l119 85q-1 -1 -1 -6q0 -26 48 -153
q66 -176 156 -287q124 -154 271 -154q180 0 180 164q0 100 -93 240q-81 120 -98 120l594 3v240h-1339v109h1711v-109z" />
    <glyph glyph-name="glyph613" horiz-adv-x="1794" 
d="M1817 1297h-229v-1297h-143v378l-312 -378l-138 93l450 433v126q-146 -99 -312 -99q-20 0 -46.5 4t-60.5 4q-51 0 -51 -73q0 -169 -169 -274q-117 -74 -185 -73q15 -11 42.5 -27.5t63 -36t78 -41t87.5 -42.5l-85 -101q-14 7 -56.5 31.5t-112.5 69.5q-31 20 -71 50t-91 74
q-11 -2 -21 -3q-8 -1 -17 -1.5t-15 -0.5q-114 0 -179.5 39t-65.5 111q0 22 8.5 42.5t23 36t34 24.5t41.5 9q83 0 163 -69q63 -56 63 -72q163 18 243.5 91.5t80.5 188.5q0 87 -76 87q-8 0 -35 -6.5t-60.5 -14.5t-67 -14.5t-52.5 -6.5q-121 0 -245 148q-113 135 -113 232
q0 121 142 121h408v237h-736v109h1817v-109zM1445 792v505h-568v-350h-519q-17 -9 -17 -37q0 -26 22.5 -65t57 -76t77 -63t81.5 -26q37 0 66 6.5t55 14.5t51.5 14.5t55.5 6.5q25 0 51 -10t47 -22t35 -22t16 -11q41 -16 95 -16q183 0 394 151z" />
    <glyph glyph-name="glyph614" horiz-adv-x="1571" 
d="M1596 1297h-229v-1297h-144v290l-619 -423l-87 107l706 426v193q-39 -12 -76 -12q-71 0 -194 48q0 -80 -65 -178q-112 -169 -355 -169q-133 0 -305 90q-138 73 -149 94l90 108q205 -184 364 -184q280 0 280 275q0 316 -266 316q-17 0 -42 -8t-51 -19.5t-48.5 -25
t-33.5 -24.5l-95 111q157 81 256 81q150 0 257.5 -89.5t156.5 -270.5q85 -42 135 -42q79 0 141 36v567h-1223v109h1596v-109z" />
    <glyph glyph-name="glyph615" horiz-adv-x="1373" 
d="M1384 1297h-321v-420h-484q-50 0 -94.5 -19t-78 -52t-53.5 -77t-20 -94q0 -86 36.5 -164.5t98 -139.5t143 -97t170.5 -36q239 0 363 205l119 -70q-155 -229 -402 -251l378 -446h-172l-323 420l-347 -420h-206l451 464q-190 53 -317 204t-127 340q0 73 27.5 137t75 111.5
t111 75t135.5 27.5h377v302h-924v109h1384v-109z" />
    <glyph glyph-name="glyph616" horiz-adv-x="1373" 
d="M1384 1297h-330v-405h-507q-48 0 -88 -20.5t-69.5 -55.5t-45.5 -81t-16 -97q0 -179 139 -311q66 -63 134.5 -92t143.5 -29q69 0 130 23.5t107 63.5t73 94t27 115q0 34 -11 71t-28.5 70t-38 58t-38.5 35l97 91q35 -23 63.5 -59t48.5 -79.5t31 -93t11 -99.5
q0 -77 -26 -141.5t-73.5 -114.5t-114.5 -84t-148 -48l371 -438h-172l-324 421l-346 -421h-207l433 446q-180 46 -300 190q-124 148 -124 338q0 81 28.5 147.5t79 114.5t120.5 74t153 26h346v291h-913v109h1384v-109z" />
    <glyph glyph-name="glyph617" horiz-adv-x="1475" 
d="M1497 1297h-293v-358h-553q-21 0 -21 -32q0 -53 85 -168q85 -114 157 -114q15 0 26 4q282 77 306 77q32 0 58 -16.5t44 -45.5t28 -69t10 -87q0 -87 -23.5 -160.5t-67.5 -130t-107 -92.5t-142 -48l377 -444h-172l-323 420l-348 -420h-205l446 461q-162 49 -331 203
q-120 109 -233 262q-88 118 -88 132l107 102q0 -10 25 -50.5t79 -115.5q64 -88 128.5 -160.5t130.5 -129.5q178 -154 327 -154q64 0 116 24t88.5 67t56 101.5t19.5 126.5q-1 28 -3.5 47t-10 30t-21 15.5t-36.5 4.5q-19 0 -113 -39q-92 -38 -148 -38q-134 0 -270 171
q-126 157 -126 266t145 109h442v249h-1063v109h1497v-109z" />
    <glyph glyph-name="glyph618" horiz-adv-x="1355" 
d="M1379 1297h-331v-411h-487q-50 0 -93 -17.5t-75 -49.5t-50 -76.5t-18 -98.5q0 -189 117 -313q30 -32 75.5 -62t94 -53.5t93.5 -38t73 -14.5q-17 9 -36 35t-35 61t-26 75.5t-10 79.5q0 54 21.5 102t58.5 84t85.5 56.5t102.5 20.5q58 0 109 -20.5t88.5 -57t59 -87
t21.5 -111.5q0 -72 -27.5 -131.5t-77.5 -103.5t-119 -70.5t-151 -32.5l382 -450h-172l-324 420l-346 -420h-206l460 475q-190 55 -316 199q-137 158 -137 351q0 74 26.5 137t73.5 109.5t111 72.5t139 26h371v314h-904v109h1379v-109zM1082 395q0 78 -36 122t-99 44
q-32 0 -59.5 -12t-48 -33.5t-32.5 -51t-12 -63.5q0 -169 123 -218q35 0 64.5 18t51 47.5t34.5 67.5t14 79z" />
    <glyph glyph-name="glyph619" horiz-adv-x="1594" 
d="M1611 1297h-228v-1297h-144v507l-711 -497l-87 107l798 500v680h-341v-519q0 -77 -22 -139.5t-63 -106.5t-100 -68t-134 -24q-76 0 -138.5 24t-107 68t-69 104.5t-24.5 134.5v526h-240v109h1611v-109zM759 778v519h-378v-526q0 -106 49 -166.5t140 -60.5q189 0 189 234z
" />
    <glyph glyph-name="glyph620" horiz-adv-x="1469" 
d="M1493 1297h-228v-1297h-144v516l-647 -389l-87 121l679 358q0 14 -158 154q-170 150 -231 150q-126 0 -437 -185l-85 108q355 210 539 210q119 0 427 -348v602h-1121v109h1493v-109z" />
    <glyph glyph-name="glyph621" horiz-adv-x="1486" 
d="M1512 1297h-229v-1297h-143v473l-785 -479l-87 133l443 192q-11 -2 -26.5 -3t-34.5 -1q-174 0 -337 99q-109 65 -195 209q-65 110 -65 136l26.5 -2.5t63 -5t73.5 -4.5t58 -2q80 0 149.5 22t120.5 61.5t80.5 94.5t29.5 122q0 54 -20.5 103t-55 86.5t-80.5 60t-97 22.5
q-39 0 -71.5 -11.5t-55.5 -32.5t-36 -49.5t-13 -62.5q0 -27 12.5 -52.5t33.5 -44.5t48 -30.5t56 -11.5q16 0 31 3v-115q-324 0 -324 257q0 60 24.5 108.5t68 82.5t102.5 52.5t129 18.5q83 0 154 -30.5t123.5 -83t82 -122t29.5 -148.5q0 -97 -35 -174t-100 -130t-157 -81.5
t-206 -28.5h-19q-10 0 -13 1q147 -221 384 -221q273 0 491 219v667h-244v109h616v-109z" />
    <glyph glyph-name="glyph622" horiz-adv-x="1349" 
d="M1370 1297h-325v-350h-528q-184 0 -184 -211q0 -72 30.5 -132.5t83.5 -104.5t123.5 -68.5t151.5 -24.5q21 0 50.5 3t67.5 8q38 227 155 227q130 0 130 -133q0 -73 -75 -136q-59 -50 -81 -50q6 -19 15.5 -55t24 -83t35.5 -101t50 -109q9 -18 19 -35.5t20 -34.5h-150
q-13 25 -31 73.5t-42 120.5q-53 162 -53 204l-561 -390l-84 116l504 279h-15q-184 0 -334 105q-175 124 -175 321q0 72 19.5 131t55 100.5t85.5 64t111 22.5h441v243h-904v109h1370v-109z" />
    <glyph glyph-name="glyph623" horiz-adv-x="1315" 
d="M1336 1297h-228v-1297h-144v501q-95 -65 -744 -495l-93 101l446 240q-35 -6 -69 -6q-72 0 -135.5 23.5t-111.5 64t-76 94.5t-28 115q0 162 137 231q-234 97 -234 289q0 277 283 277q52 0 98.5 -16.5t80.5 -46t54 -69.5t20 -86v-84h-121v84q0 113 -127 113
q-64 0 -103.5 -45.5t-39.5 -123.5q0 -200 183 -237q79 39 214 39q9 0 27 -1.5t46 -3.5l65 -109q1 0 -9.5 1t-32.5 3q-21 2 -39 3t-34 1q-74 0 -133.5 -14.5t-101.5 -42.5t-64.5 -67.5t-22.5 -88.5q0 -45 17 -81.5t47 -62.5t72 -40t92 -14q145 0 285 84q46 28 83.5 58.5
t68.5 64.5v644h-270v109h642v-109z" />
    <glyph glyph-name="glyph624" horiz-adv-x="1320" 
d="M1344 1297h-228v-1297h-144v457l-662 -451l-88 118l750 442v255h-509v-257q-10 -34 -62 -34q-37 0 -160 135q-63 69 -93 113t-30 65q0 90 107 90h747v364h-972v109h1344v-109z" />
    <glyph glyph-name="glyph625" horiz-adv-x="1229" 
d="M1252 1297h-229v-1297h-142v584l-675 -584l-108 98l486 376q-87 7 -155.5 36t-116 76.5t-72.5 112t-25 141.5v457h-215v109h1252v-109zM881 734v563h-523v-482q0 -117 62.5 -179.5t171.5 -62.5q143 0 289 161z" />
    <glyph glyph-name="glyph626" horiz-adv-x="1731" 
d="M1754 1297h-798v-405q137 128 253 128q73 0 139 -26.5t115.5 -72.5t78.5 -109t29 -135q0 -121 -70 -248q-20 -36 -51.5 -77.5t-63 -78t-57.5 -62t-35 -28.5l-119 88q249 163 249 420q0 99 -55 156t-155 57q-94 0 -185 -112q-73 -88 -73 -115v-677h-141v547l-575 -454
l-102 105l421 276q-12 -1 -22.5 -1.5t-20.5 -0.5q-70 0 -128 20.5t-99.5 62t-64.5 103t-23 143.5v496h-201v109h1754v-109zM815 765v532h-471v-519q0 -217 200 -217q49 0 98 18.5t87 47.5t62 65.5t24 72.5z" />
    <glyph glyph-name="glyph627" horiz-adv-x="1235" 
d="M1261 1297h-229v-1297h-143v411q-44 -28 -203.5 -125t-434.5 -263l-88 107l404 186q-87 0 -163 29.5t-132.5 81t-89 120.5t-32.5 147q0 84 31 152.5t85.5 118t130 76.5t164.5 27q14 0 41.5 -4t54.5 -9t47.5 -9.5t20.5 -5.5l26 -122q0 1 -18.5 7.5t-45 13t-56.5 12
t-52 5.5q-144 0 -204 -73l491 -327l23 28v713h-889v109h1261v-109zM810 491l-494 324q-31 -49 -31 -129q0 -65 22 -117t62 -89t96.5 -57t126.5 -20q100 0 218 88z" />
    <glyph glyph-name="glyph628" horiz-adv-x="1389" 
d="M1420 1297h-228v-1297h-144v410l-656 -421l-87 124l743 419v176h-439v-212q0 -62 -76 -62q-41 0 -165 130q-38 40 -64 71.5t-42 55.5t-23 42t-7 32q0 65 90 65h146v379q0 127 -140 127q-57 0 -92 -39t-35 -102q0 -71 42 -141l-127 -1q-2 0 -8.5 15.5t-14 37.5t-13.5 45.5
t-6 40.5q0 58 18.5 105t52.5 79.5t83 50t111 17.5q55 0 104.5 -18t86 -50.5t58 -77t21.5 -97.5v-371h439v467h-299v109h671v-109z" />
    <glyph glyph-name="glyph629" horiz-adv-x="1303" 
d="M1326 1297h-229v-1297h-143v413l-652 -407l-87 107l739 410v207h-463v-189q3 -17 3 -22q0 -45 -60 -45q-41 0 -170 134q-131 134 -131 170q0 71 79 71h132v448h-344v109h1326v-109zM954 849v448h-463v-448h463z" />
    <glyph glyph-name="glyph630" horiz-adv-x="1389" 
d="M1407 1297h-228v-1297h-144v472l-640 -466l-88 107l458 279q-35 -3 -69 -3q-205 0 -335 124q-48 45 -85 102.5t-61 130.5q-32 93 -32 131q4 0 10 -2q5 -2 12 -4t17 -4q37 -10 63 -10q240 0 240 206q0 126 -135 234h-390v109h1407v-109zM1035 614v683h-474
q16 -11 35.5 -38.5t36 -62.5t27.5 -73t11 -69q0 -66 -23.5 -121.5t-66 -95.5t-101 -62t-128.5 -22q0 -45 72 -133q103 -129 267 -129q213 0 344 123z" />
    <glyph glyph-name="glyph631" horiz-adv-x="1223" 
d="M1246 1297h-228v-1297h-143v415q-51 -37 -213 -141.5t-437 -279.5l-89 107l437 227q-4 -1 -12 -1h-12q-73 0 -139.5 29t-116.5 80t-80 119.5t-30 147.5q0 82 27.5 151t76.5 118.5t115.5 77t144.5 27.5q88 0 183 -37l29 -116q-86 42 -198 42q-233 0 -233 -275
q0 -57 19 -106t52.5 -85t80 -56.5t101.5 -20.5q142 0 294 137v737h-875v109h1246v-109z" />
    <glyph glyph-name="uni0958_uni094D.half" horiz-adv-x="1170" 
d="M1382 798q3 0 3 1q0 3 -11.5 8.5t-32.5 11.5t-51 10t-67 4q-48 0 -92.5 -25t-79 -64.5t-55.5 -88t-21 -94.5v-561h-140v409q-95 -104 -248 -104q-79 0 -149.5 30.5t-124 82t-84.5 121t-31 147.5t30.5 145t82.5 116.5t121 78t147 28.5q60 0 129 -29v-121q-46 37 -116 37
q-50 0 -95 -20t-79 -54t-54 -79.5t-20 -96.5q0 -56 18 -106t50 -88t74.5 -60.5t92.5 -22.5q119 0 199 99q57 70 57 108v676h-835v109h1204v-109h-229v-473q111 134 242 134q27 0 56.5 -5.5t54 -13t40 -14.5t15.5 -9h-1v-118zM476 14h-199v163h199v-163z" />
    <glyph glyph-name="uni0959_uni094D.half" horiz-adv-x="1271" 
d="M1522 606q0 -13 -81 -53q-101 -51 -204 -51q-64 0 -120.5 22t-98.5 61t-66.5 93t-24.5 117q0 64 24.5 118t67.5 93.5t101 61.5t126 22q64 0 127 -22l36 -112q-49 25 -146 25q-45 0 -81 -13t-61.5 -37t-39 -57t-13.5 -73q0 -186 189 -186q133 0 265 135v-144zM1522 290
q-45 -25 -88 -50t-88 -50q-206 -97 -393 -97q-268 0 -451 165q-131 119 -239 348q-10 20 -22.5 52t-26.5 68.5t-27.5 73t-24.5 66t-17.5 48.5l-6.5 19l119 62l53 -152q54 -48 130 -48q121 0 121 118v384h-561v109h1308v-109h-608v-367q0 -53 -18 -98.5t-50 -79.5t-77.5 -53
t-100.5 -19q-13 0 -28 2t-28 4.5t-22 5l-9 2.5q0 -25 55 -128q76 -144 186 -234q154 -126 352 -126q264 0 562 220v-136zM394 14h-200v163h200v-163z" />
    <glyph glyph-name="uni095A_uni094D.half" horiz-adv-x="786" 
d="M821 1297h-234v-710q0 -111 -62 -111q-64 0 -189 125q-124 124 -124 197q0 51 73 51h161v448h-446v109h821v-109zM593 14h-199v163h199v-163z" />
    <glyph glyph-name="glyph635" horiz-adv-x="1618" 
d="M1573 762h-183v165h183v-165zM1633 1297h-401v-358h-581q-22 0 -22 -35q0 -57 85 -169q85 -114 184 -114q48 0 152 42q105 43 154 43q32 0 58 -16.5t44 -45.5t28 -69t10 -87q0 -101 -30.5 -181.5t-85.5 -137.5t-132.5 -87.5t-171.5 -30.5q-271 0 -560 310
q-123 132 -237 310l107 102q55 -89 110 -165t110 -140q263 -305 470 -305q63 0 114.5 23.5t88.5 66t57 101t20 128.5q0 28 -2.5 47t-10 30t-21.5 15.5t-37 4.5q-19 0 -113 -39q-92 -38 -148 -38q-134 0 -270 171q-126 157 -126 266t145 109h469v249h-1090v109h1633v-109z
M1289 -485l-62 -62l-456 341l110 118zM562 -90h-200v164h200v-164z" />
    <glyph glyph-name="glyph636" horiz-adv-x="899" 
d="M933 1297h-933v109h933v-109zM1147 514q-200 -218 -453 -218q-71 0 -129.5 21.5t-100.5 60.5t-65.5 94t-23.5 123q0 198 206 332h-443v113h822v-113h-173q-58 0 -151 -84q-117 -105 -117 -242q0 -90 48.5 -141t132.5 -51q112 0 228 75q34 22 71.5 56.5t70 69.5t54 64
t23.5 41v-201zM431 4h-201v164h201v-164z" />
    <glyph glyph-name="glyph637" horiz-adv-x="1609" 
d="M1640 1297h-377v-237q60 -21 102 -47t68.5 -60t38 -77t11.5 -98q0 -293 -255 -498q-236 -189 -522 -189q-92 0 -168.5 29t-131.5 80.5t-85.5 122t-30.5 153.5q0 188 150 302q-41 0 -130 65q-124 91 -124 220q0 35 8.5 71t23 68t33.5 57t39 38h-290v109h1640v-109z
M1350 778q0 175 -155 175q-33 0 -60.5 -13.5t-46.5 -38t-29.5 -58.5t-10.5 -75q0 -127 73 -239q53 -83 83 -95q25 13 75 96q71 119 71 248zM1125 1054v243h-657q-21 -5 -76 -75q-35 -43 -51 -79.5t-16 -68.5q0 -44 22.5 -83.5t58.5 -69t81.5 -47t91.5 -17.5q13 0 35 2
t43 4.5t36 5t15 3.5l57 -107q-12 2 -24 3t-24 1q-60 0 -113.5 -22.5t-93.5 -60.5t-63.5 -89.5t-23.5 -108.5q0 -61 24 -114t64.5 -92t95 -61.5t115.5 -22.5q131 0 271 78q104 58 117 82q-27 9 -96 125q-90 151 -90 295q0 121 52 179q33 38 149 97zM1289 -485l-62 -62
l-456 341l110 118zM425 -103l-200 15v148h200v-163z" />
    <glyph glyph-name="uni095B_uni094D.half" horiz-adv-x="1116" 
d="M1149 1297h-1149v109h1149v-109zM1367 872h-398q18 -11 64 -92q57 -101 57 -174q0 -74 -22.5 -136t-63.5 -107t-100 -70t-131 -25q-182 0 -340 179q-116 129 -204 334q-68 157 -67 181q0 2 0.5 2.5t0.5 1.5l119 88q-2 -2 -2 -5q0 -14 13.5 -56.5t42.5 -117.5
q38 -100 80.5 -181t92.5 -146q132 -176 278 -176q35 0 65.5 17.5t53 48t35 71t12.5 86.5q0 108 -102 254q-89 126 -106 126h622v-103zM825 -40h-200v164h200v-164z" />
    <glyph glyph-name="glyph639" horiz-adv-x="1026" 
d="M1271 564q0 -1 -14.5 -6.5t-36 -11.5t-45.5 -11t-42 -5q-29 0 -70.5 10t-87.5 27v-79q0 -169 -169 -274q-117 -74 -185 -73q15 -11 42.5 -27.5t63 -36t78 -41t87.5 -42.5l-85 -101q-14 7 -56.5 31.5t-112.5 69.5q-31 20 -71 50t-91 74q-11 -2 -21 -3q-8 -1 -17 -1.5
t-15 -0.5q-114 0 -179.5 39t-65.5 111q0 22 8.5 42.5t23 36t34 24.5t41.5 9q83 0 163 -69q63 -56 63 -72q324 34 324 277q0 27 -2 44.5t-10 27.5t-23 14t-41 4q-6 0 -33 -6.5t-60.5 -14.5t-67.5 -14.5t-54 -6.5q-121 0 -245 148q-113 135 -113 232q0 121 142 121h408v237
h-736v109h1060v-109h-183v-350h-519q-27 0 -27 -22q0 -7 8.5 -27.5t24 -47.5t37.5 -57t49.5 -55t60 -41.5t68.5 -16.5q31 0 59.5 6.5t56 14.5t55 14.5t57.5 6.5q25 0 51 -10t47 -22t35 -22t16 -11q71 -28 140 -28q30 0 61 7.5t56.5 17t42 19t16.5 12.5q0 1 -1 1v-122z
M326 -158h-201v163h201v-163z" />
    <glyph glyph-name="glyph640" horiz-adv-x="1006" 
d="M1040 1297h-1040v109h1040v-109zM1246 601q-68 -20 -99 -20q-71 0 -194 48q0 -94 -65 -213q-113 -204 -355 -204q-132 0 -305 89q-137 71 -149 94l90 107q207 -183 364 -183q65 0 117 24.5t88 69.5t55.5 109t19.5 143q0 316 -266 316q-17 0 -42 -8t-51 -19.5t-48.5 -25
t-33.5 -24.5l-95 111q157 81 256 81q150 0 257.5 -89.5t156.5 -270.5q85 -42 135 -42q89 0 164 51v-144zM263 -45h-201v163h201v-163z" />
    <glyph glyph-name="glyph641" horiz-adv-x="1373" 
d="M1384 1297h-321v-420h-484q-50 0 -94.5 -19t-78 -52t-53.5 -77t-20 -94q0 -86 36.5 -164.5t98 -139.5t143 -97t170.5 -36q239 0 363 205l119 -70q-173 -254 -462 -254q-242 0 -423 168q-180 166 -180 397q0 73 27.5 137t75 111.5t111 75t135.5 27.5h377v302h-924v109
h1384v-109zM1147 -485l-62 -62l-456 341l110 118zM412 -95h-199v163h199v-163z" />
    <glyph glyph-name="glyph642" horiz-adv-x="1373" 
d="M1384 1297h-330v-405h-507q-48 0 -88 -20.5t-69.5 -55.5t-45.5 -81t-16 -97q0 -179 139 -311q66 -63 134.5 -92t143.5 -29q69 0 130 23.5t107 63.5t73 94t27 115q0 34 -11 71t-28.5 70t-38 58t-38.5 35l97 91q35 -23 63.5 -59t48.5 -79.5t31 -93t11 -99.5q0 -88 -35 -161
t-97.5 -125.5t-149.5 -82t-190 -29.5q-222 0 -388 159q-171 162 -171 387q0 81 28.5 147.5t79 114.5t120.5 74t153 26h346v291h-913v109h1384v-109zM1160 -485l-62 -62l-456 341l110 118zM418 -83h-201v164h201v-164z" />
    <glyph glyph-name="uni095C_uni094D.half" horiz-adv-x="1475" 
d="M1497 1297h-293v-358h-553q-21 0 -21 -32q0 -53 85 -168q85 -114 157 -114q15 0 26 4q282 77 306 77q32 0 58 -16.5t44 -45.5t28 -69t10 -87q0 -101 -30.5 -181.5t-85.5 -137.5t-132.5 -87.5t-171.5 -30.5q-193 0 -398 159q-75 58 -146.5 132.5t-141.5 165.5
q-111 145 -111 163l107 102q0 -10 25 -50.5t79 -115.5q64 -88 128.5 -160.5t130.5 -129.5q178 -154 327 -154q64 0 116 24t88.5 67t56 101.5t19.5 126.5q-1 28 -3.5 47t-10 30t-21 15.5t-36.5 4.5q-19 0 -113 -39q-92 -38 -148 -38q-134 0 -270 171q-126 157 -126 266
t145 109h442v249h-1063v109h1497v-109zM1289 -485l-62 -62l-456 341l110 118zM488 -90h-201v164h201v-164z" />
    <glyph glyph-name="uni095D_uni094D.half" horiz-adv-x="1355" 
d="M1379 1297h-331v-411h-487q-50 0 -93 -17.5t-75 -49.5t-50 -76.5t-18 -98.5q0 -189 117 -313q30 -32 75.5 -62t94 -53.5t93.5 -38t73 -14.5q-17 9 -36 35t-35 61t-26 75.5t-10 79.5q0 54 21.5 102t58.5 84t85.5 56.5t102.5 20.5q58 0 109 -20.5t88.5 -57t59 -87
t21.5 -111.5q0 -77 -31.5 -139.5t-86.5 -106.5t-130 -68.5t-162 -24.5q-237 0 -424 162q-200 173 -200 414q0 74 26.5 137t73.5 109.5t111 72.5t139 26h371v314h-904v109h1379v-109zM1082 395q0 78 -36 122t-99 44q-32 0 -59.5 -12t-48 -33.5t-32.5 -51t-12 -63.5
q0 -169 123 -218q35 0 64.5 18t51 47.5t34.5 67.5t14 79zM1173 -485l-62 -62l-457 341l111 118zM450 -77h-201v164h201v-164z" />
    <glyph glyph-name="glyph645" horiz-adv-x="1006" 
d="M1040 1297h-142v-519q0 -77 -22 -139.5t-63 -106.5t-100 -68t-134 -24q-76 0 -138.5 24t-107 68t-69 104.5t-24.5 134.5v526h-240v109h1040v-109zM759 778v519h-378v-526q0 -106 49 -166.5t140 -60.5q189 0 189 234zM675 14h-201v163h201v-163z" />
    <glyph glyph-name="glyph646" horiz-adv-x="758" 
d="M792 1297h-792v109h792v-109zM1020 883h-532q-192 0 -192 -153q0 -143 97 -300q19 -31 45.5 -66t56 -70.5t60 -68t55.5 -57.5t43 -40t24 -15l-90 -93q-15 0 -115 99q-63 63 -114 126t-91 128q-109 178 -109 343q0 62 18.5 111.5t52.5 84t82.5 53t108.5 18.5h600v-100z
M277 14h-201v163h201v-163z" />
    <glyph glyph-name="glyph647" horiz-adv-x="899" 
d="M1152 519q-26 -49 -127 -119q-166 -115 -371 -115q-202 0 -360 122q-110 84 -187 227q-54 99 -54 125q126 -43 226 -43q76 0 144.5 25.5t119.5 70t81 104.5t30 129q0 54 -20.5 103t-55 86.5t-80.5 60t-97 22.5q-39 0 -71.5 -11.5t-55.5 -32.5t-36 -49.5t-13 -62.5
q0 -27 12.5 -52.5t33.5 -44.5t48 -30.5t56 -11.5q16 0 31 3v-98q-321 0 -321 240q0 60 24 108.5t67 82.5t102 52.5t128 18.5q85 0 156.5 -29.5t123 -81t80.5 -122t29 -151.5q0 -170 -96.5 -276.5t-280.5 -141.5q-38 -8 -66.5 -11t-48.5 -3h-15q-5 0 -11 2q15 -45 92 -113
q122 -107 280 -107q143 0 274 83q36 23 76.5 60t74.5 74.5t56 67.5t22 39v-200zM476 14h-199v163h199v-163z" />
    <glyph glyph-name="glyph648" horiz-adv-x="1364" 
d="M1379 1297h-305v-370h-524q-46 0 -84 -13t-65.5 -37t-42.5 -58t-15 -76q0 -91 27.5 -159t79 -113.5t125.5 -68t167 -22.5q55 0 108 9q-12 42 -12 84q0 148 145 148q29 0 54 -12t43 -32.5t28.5 -47t10.5 -55.5q0 -32 -12.5 -65t-30 -59.5t-37 -43t-33.5 -16.5
q0 -11 17 -47.5t43.5 -86t58.5 -104.5t62 -103h-175q0 9 -62 144q-18 39 -34.5 79t-29.5 82q-20 -2 -42 -3.5t-48 -1.5q-134 0 -241.5 31.5t-184 92t-120.5 148.5t-52 201q-1 4 -1 12v12q0 63 25 117.5t67 95t98 63.5t118 23h416v252h-921v109h1379v-109zM1310 -545l-62 -62
l-456 341l108 119zM476 14h-199v163h199v-163z" />
    <glyph glyph-name="glyph649" horiz-adv-x="730" 
d="M765 1297h-71v109h71v-109zM978 468q-12 -37 -117 -106q-150 -99 -336 -99q-75 0 -142.5 23t-118.5 63.5t-81 95.5t-30 119q0 37 11 75t29.5 71.5t43.5 60.5t53 42q-234 154 -234 345q0 277 283 277q52 0 98.5 -16.5t80.5 -46t54 -69.5t20 -86v-84h-121v84
q0 113 -127 113q-64 0 -103.5 -45.5t-39.5 -123.5q0 -199 183 -292q82 38 214 38q7 0 73 -6l65 -109q1 0 -9.5 1t-32.5 3q-21 2 -39 3.5t-34 1.5q-69 0 -128 -17t-102 -47.5t-67.5 -73t-24.5 -93.5q0 -45 17 -81.5t47 -62.5t72 -40t92 -14q119 0 236 66q33 19 70.5 48.5
t70 59.5t53.5 54t21 32v-164zM355 -1h-200v163h200v-163z" />
    <glyph glyph-name="uni0929_uni094D.half" horiz-adv-x="736" 
d="M771 1297h-771v109h771v-109zM992 821h-487v-257q-9 -34 -59 -34q-40 0 -161 135q-122 134 -122 178q0 90 105 90h724v-112zM476 14h-199v163h199v-163z" />
    <glyph glyph-name="glyph651" horiz-adv-x="623" 
d="M883 561q-133 -112 -282 -112q-88 0 -159 27.5t-121.5 77t-78 119t-27.5 154.5v470h-215v109h657v-109h-299v-496q0 -118 64.5 -183t175.5 -65q148 0 285 192v-184zM588 14h-200v163h200v-163z" />
    <glyph glyph-name="uni095E_uni094D.half" horiz-adv-x="1150" 
d="M1353 830h1q0 1 -18.5 4t-45 6.5t-56.5 6t-53 2.5q-127 0 -225 -155v-694h-141v547q-107 -101 -262 -101q-81 0 -146 25.5t-110.5 72t-70.5 112t-25 145.5v496h-201v109h1184v-109h-228v-437q5 12 29 29.5t56.5 34t68 28t62.5 11.5q25 0 57 -4t59.5 -9.5t46.5 -10.5
t19 -6h-1v-103zM815 765v532h-471v-519q0 -225 200 -225q53 0 102 19t86.5 49t60 68t22.5 76zM476 14h-199v163h199v-163z" />
    <glyph glyph-name="glyph653" horiz-adv-x="634" 
d="M668 1297h-668v109h668v-109zM892 420q-127 -124 -313 -124q-89 0 -167 29.5t-136 81t-92 122t-34 151.5q0 84 31.5 155.5t86.5 123t130.5 80.5t162.5 29q14 0 41.5 -4t54.5 -9t47.5 -9.5t20.5 -5.5l26 -122q0 1 -18.5 6.5t-45 12t-56.5 11.5t-52 5q-141 0 -204 -70
l482 -324l35 47v-186zM801 494l-485 321q-31 -52 -31 -129q0 -64 23 -116t63.5 -89t97 -57.5t123.5 -20.5q28 0 62.5 10t65.5 24t53.5 29.5t27.5 27.5zM476 14h-199v163h199v-163z" />
    <glyph glyph-name="glyph654" horiz-adv-x="809" 
d="M843 1297h-113v109h113v-109zM1074 644h-465v-204q0 -73 -56 -73q-43 0 -184 142t-141 191q0 11 8 22.5t19 21t23.5 15.5t20.5 6h169v444q0 127 -140 127q-57 0 -92 -39t-35 -102q0 -71 42 -141l-127 -1q-2 0 -8.5 15.5t-14 37.5t-13.5 45.5t-6 40.5q0 58 18.5 105
t52.5 79.5t83 50t111 17.5q55 0 104.5 -18t86 -50.5t58 -77t21.5 -97.5v-436h465v-121zM476 14h-199v163h199v-163z" />
    <glyph glyph-name="glyph655" horiz-adv-x="750" 
d="M1003 688h-512v-194q0 -62 -57 -62q-53 0 -173 127t-120 177q0 71 79 71h124v490h-344v109h784v-109h-293v-490h512v-119zM476 14h-199v163h199v-163z" />
    <glyph glyph-name="uni095F_uni094D.half" horiz-adv-x="798" 
d="M1043 423q-139 -124 -352 -124q-299 0 -428 250q-71 137 -71 258q2 0 35 -10t58 -10q240 0 240 233q0 125 -135 277h-390v109h833v-109h-272q6 -4 21 -27.5t36 -67.5q26 -55 39 -102t14 -88q0 -186 -156 -277q-94 -55 -163 -55q0 -57 61 -142q96 -137 278 -137
q147 0 263 102q75 66 89 109v-189zM476 14h-199v163h199v-163z" />
    <glyph glyph-name="uni0931_uni094D.half" horiz-adv-x="1083" 
d="M1116 1297h-273v-358q0 -59 -23.5 -107.5t-64 -83t-95 -53.5t-117.5 -19q-49 0 -89 15q40 -81 195 -282q15 -20 41.5 -51t57 -65.5t61.5 -69t56.5 -62.5t42 -45.5l16.5 -17.5l-103 -98q-5 5 -16 17.5t-25.5 28.5t-30.5 34t-30 34.5t-25 29.5t-16 18q-81 96 -148 180.5
t-121 162.5q-185 268 -276 448l110 81l109 -191q7 -12 24 -23.5t39 -21t47.5 -15t48.5 -5.5q189 0 189 175v344h-700v109h1116v-109zM1023 -521l-62 -62l-456 342l110 118zM377 14h-201v163h201v-163z" />
    <glyph glyph-name="glyph658" horiz-adv-x="1054" 
d="M1087 1297h-1087v109h1087v-109zM1308 830q-23 0 -54 -9.5t-64 -26t-65 -38.5t-57 -48q-26 -26 -51.5 -63t-46.5 -73.5t-35 -68.5t-17 -49l-117 63q0 15 22.5 63.5t68.5 127.5q-12 30 -80 80q-96 69 -203 69q-60 0 -108.5 -19t-83.5 -54t-54 -83.5t-19 -108.5
q0 -136 119 -261q85 -90 221 -162q104 -56 123 -56l-68 -122q-25 0 -144 71q-158 92 -254 207q-136 160 -135 332q0 87 27.5 156.5t79 117.5t126 74t167.5 26q135 0 258 -84q76 -53 102 -90q20 17 54 40.5t82 54.5q115 57 206 57v-123zM277 14h-200v163h200v-163z" />
    <glyph glyph-name="glyph659" horiz-adv-x="637" 
d="M671 1297h-671v109h671v-109zM895 432q-24 -24 -59.5 -45.5t-76.5 -37t-84 -24.5t-83 -9q-86 0 -161 29t-130 81t-86.5 122.5t-31.5 154.5q0 82 27.5 151t76 118.5t115.5 77t145 27.5q88 0 183 -37l29 -116q-86 42 -198 42q-233 0 -233 -275q0 -57 19 -106t52.5 -85
t80 -56.5t101.5 -20.5q154 0 314 169v-160zM476 14h-199v163h199v-163z" />
    <glyph glyph-name="glyph660" horiz-adv-x="1006" 
d="M1040 1297h-227q143 -110 143 -316q0 -274 -228 -415q-149 -92 -274 -92l444 -381l-91 -99l-652 559l93 96l91 -76q216 0 338 104q131 113 131 248v19q-1 1 -1 4v1v-3q0 -7 -72 -53q-88 -58 -176 -58q-68 0 -126 21.5t-100 60t-66 91.5t-24 117q0 105 79 172h-322v109
h1040v-109zM792 1096q0 33 -50 104q-72 102 -181 102q-82 0 -128 -47t-46 -125q0 -36 15 -69.5t40.5 -58.5t59 -40t71.5 -15q97 0 168 72q51 52 51 77zM377 14h-201v163h201v-163z" />
    <glyph glyph-name="glyph661" horiz-adv-x="643" 
d="M895 505q-144 -96 -280 -96q-81 0 -152.5 27.5t-125.5 74.5t-85.5 111t-31.5 137v538h-220v109h677v-109h-287l505 -541v-251zM877 629l-510 552v-428q0 -54 18 -97.5t51.5 -73.5t80.5 -46.5t104 -16.5q37 0 78.5 11t78 27.5t63.5 35.5t36 36zM476 14h-199v163h199v-163z
" />
    <glyph glyph-name="glyph662" horiz-adv-x="1026" 
d="M1285 708h-399l-94 113h493v-113zM1060 1297h-301v-358q0 -113 -14 -160q-20 -64 -73.5 -99t-135.5 -35q-39 0 -73 12q23 -46 66 -111.5t106 -150.5q18 -25 45 -58.5t60.5 -72t72 -81t79.5 -85.5l-114 -98q-5 7 -23.5 30t-40 49t-40 49t-24.5 30q-75 94 -138 179.5
t-117 167.5q-71 106 -131.5 209.5t-113.5 209.5l113 71l81 -152q48 -90 152 -90q121 0 121 129q0 6 -0.5 16t-0.5 20q0 11 -0.5 20.5t-0.5 14.5v344h-615v109h1060v-109zM391 14h-200v163h200v-163z" />
    <glyph glyph-name="glyph663" horiz-adv-x="1215" 
d="M1353 601h-730q-54 0 -103 -20t-86.5 -55.5t-59.5 -82.5t-22 -101q0 -165 264 -250q177 -58 351 -58q20 0 22 2l-50 -107q-8 -2 -23 -2q-201 0 -401 76q-309 115 -309 349q0 141 161 269q-19 0 -95 103q-89 122 -89 217q0 119 127 119h573v237h-883v109h1249v-109h-224
v-356h-633q-67 0 -67 -61q0 -27 16 -65t61 -78q29 -26 38 -29h913v-107zM320 -186h-201v163h201v-163z" />
    <glyph glyph-name="uni0934_uni094D.half" horiz-adv-x="1353" 
d="M1387 1297h-1387v109h1387v-109zM1500 646q0 -92 -24.5 -168t-70.5 -131t-111 -85.5t-147 -30.5q-241 0 -317 237q-15 -56 -45 -102t-72 -79t-93.5 -51.5t-108.5 -18.5q-75 0 -139.5 33.5t-112 91.5t-74.5 135t-27 164q0 79 27.5 150.5t76 125.5t114.5 85.5t143 31.5
q224 0 316 -213q13 40 87 114q106 108 222 108q79 0 145 -27.5t112.5 -79t72.5 -125t26 -165.5zM1350 641q0 286 -211 286q-113 0 -188 -137q-54 -98 -54 -139q0 -8 1 -10q-1 -2 -1 -9q0 -19 7.5 -48t20 -60.5t29 -61t33.5 -48.5q67 -75 171 -75q192 0 192 302zM773 641
q0 53 -49 144q-75 139 -207 139q-48 0 -86.5 -20.5t-65.5 -58t-41 -90.5t-14 -117q0 -145 54 -226.5t153 -81.5q132 0 207 154q49 101 49 157zM381 -40h-200v164h200v-164z" />
    <glyph glyph-name="glyph665" horiz-adv-x="868" 
d="M901 1297h-100v109h100v-109zM1119 813q-163 -94 -369 -94q-31 0 -70.5 5.5t-80.5 14.5t-81 19.5t-71 20t-50 17t-19 10.5q0 1 3 1q-203 -104 -203 -274q0 -221 246 -221q18 0 38 1.5t43 5.5q-2 17 -3.5 31t-1.5 26q0 141 121 141q147 0 147 -136q0 -84 -111 -133
q11 -16 20.5 -30.5t28 -36t51 -53.5t89.5 -83l-121 -87q-15 18 -35.5 41.5t-43.5 54.5t-47 70t-46 88q0 -1 -16 -3.5t-38.5 -5.5t-45.5 -5.5t-36 -2.5q-87 0 -157.5 24.5t-121 69.5t-78 109.5t-27.5 145.5q0 189 244 328q-24 8 -83 89q-76 106 -76 206q0 54 22 99.5
t60.5 78.5t90.5 51.5t112 18.5q68 0 124.5 -18.5t96.5 -52.5t62 -83t22 -109q0 -119 -104 -208q-18 -16 -36 -29t-33 -22t-25.5 -14t-14.5 -5q-2 0 -2 2q0 -3 23.5 -10t60.5 -14.5t83 -13t90 -5.5q221 0 369 106v-126zM567 1161q0 141 -166 141q-69 0 -106.5 -40.5
t-37.5 -100.5q0 -106 64 -179q24 -28 39.5 -41.5t26.5 -13.5q30 0 92 50q88 72 88 184zM327 -86h-200v164h200v-164z" />
    <glyph glyph-name="glyph666" horiz-adv-x="1026" 
d="M1060 1297h-1060v109h1060v-109zM1268 953h-867q-36 0 -36 -30q0 -49 75 -145q87 -113 169 -113q24 0 60 9t73.5 19.5t72 19.5t57.5 9q37 0 68 -17.5t53.5 -47t34.5 -69t12 -83.5q0 -111 -70.5 -196.5t-205.5 -139.5q-77 -32 -101 -31l270 -214l-106 -82l-280 265h-87
q-49 0 -93.5 12t-78 33t-53.5 50.5t-20 65.5q0 22 9.5 41t25 33t36 22t42.5 8q56 0 136 -68q23 -20 37 -34.5t22 -24t11.5 -14t5.5 -4.5q17 0 52 8.5t75 22.5t78.5 32t63.5 37q95 72 95 178q0 48 -19.5 69t-57.5 21q-11 0 -39 -7.5t-62 -16.5t-68.5 -16.5t-56.5 -7.5
q-132 0 -259 144q-122 137 -122 256q0 55 40 88t101 33h907v-115zM415 -159h-200v163h200v-163z" />
    <glyph glyph-name="uni0919_uni093C.nukt" horiz-adv-x="1618" 
d="M1573 762h-183v165h183v-165zM1633 1297h-401v-358h-581q-22 0 -22 -35q0 -57 85 -169q85 -114 184 -114q48 0 152 42q105 43 154 43q32 0 58 -16.5t44 -45.5t28 -69t10 -87q0 -101 -30.5 -181.5t-85.5 -137.5t-132.5 -87.5t-171.5 -30.5q-271 0 -560 310
q-123 132 -237 310l107 102q55 -89 110 -165t110 -140q263 -305 470 -305q63 0 114.5 23.5t88.5 66t57 101t20 128.5q0 28 -2.5 47t-10 30t-21.5 15.5t-37 4.5q-19 0 -113 -39q-92 -38 -148 -38q-134 0 -270 171q-126 157 -126 266t145 109h469v249h-1090v109h1633v-109z
M562 -90h-200v164h200v-164z" />
    <glyph glyph-name="uni091A_uni093C.nukt" horiz-adv-x="1466" 
d="M1491 1297h-228v-1297h-145v483q-190 -187 -424 -187q-71 0 -129.5 21.5t-100.5 60.5t-65.5 94t-23.5 123q0 198 206 332h-443v113h822v-113h-173q-58 0 -151 -84q-117 -105 -117 -242q0 -90 48.5 -141t132.5 -51q227 0 418 260v628h-1118v109h1491v-109zM476 14h-199
v163h199v-163z" />
    <glyph glyph-name="uni091B_uni093C.nukt" horiz-adv-x="1609" 
d="M1640 1297h-377v-237q60 -21 102 -47t68.5 -60t38 -77t11.5 -98q0 -293 -255 -498q-236 -189 -522 -189q-92 0 -168.5 29t-131.5 80.5t-85.5 122t-30.5 153.5q0 188 150 302q-41 0 -130 65q-124 91 -124 220q0 35 8.5 71t23 68t33.5 57t39 38h-290v109h1640v-109z
M1350 778q0 175 -155 175q-33 0 -60.5 -13.5t-46.5 -38t-29.5 -58.5t-10.5 -75q0 -127 73 -239q53 -83 83 -95q25 13 75 96q71 119 71 248zM1125 1054v243h-657q-21 -5 -76 -75q-35 -43 -51 -79.5t-16 -68.5q0 -44 22.5 -83.5t58.5 -69t81.5 -47t91.5 -17.5q13 0 35 2
t43 4.5t36 5t15 3.5l57 -107q-12 2 -24 3t-24 1q-60 0 -113.5 -22.5t-93.5 -60.5t-63.5 -89.5t-23.5 -108.5q0 -61 24 -114t64.5 -92t95 -61.5t115.5 -22.5q131 0 271 78q104 58 117 82q-27 9 -96 125q-90 151 -90 295q0 121 52 179q33 38 149 97zM277 14h-201v163h201v-163
z" />
    <glyph glyph-name="uni091D_uni093C.nukt" horiz-adv-x="1618" 
d="M1637 1297h-229v-1297h-143v562q-82 -32 -132 -32q-29 0 -70.5 10t-87.5 27v-79q0 -169 -169 -274q-117 -74 -185 -73q15 -11 42.5 -27.5t63 -36t78 -41t87.5 -42.5l-85 -101q-14 7 -56.5 31.5t-112.5 69.5q-31 20 -71 50t-91 74q-11 -2 -21 -3q-8 -1 -17 -1.5t-15 -0.5
q-114 0 -179.5 39t-65.5 111q0 22 8.5 42.5t23 36t34 24.5t41.5 9q83 0 163 -69q63 -56 63 -72q324 34 324 277q0 27 -2 44.5t-10 27.5t-23 14t-41 4q-6 0 -33 -6.5t-60.5 -14.5t-67.5 -14.5t-54 -6.5q-121 0 -245 148q-113 135 -113 232q0 121 142 121h408v237h-736v109
h1637v-109zM1265 681v616h-388v-350h-519q-27 0 -27 -22q0 -7 8.5 -27.5t24 -47.5t37.5 -57t49.5 -55t60 -41.5t68.5 -16.5q31 0 59.5 6.5t56 14.5t55 14.5t57.5 6.5q25 0 51 -10t47 -22t35 -22t16 -11q71 -28 141 -28q95 0 168 52zM326 -155h-201v163h201v-163z" />
    <glyph glyph-name="uni091E_uni093C.nukt" horiz-adv-x="1554" 
d="M1578 1297h-228v-1297h-145v588q-22 -7 -58 -7q-71 0 -194 48q0 -94 -65 -213q-113 -204 -355 -204q-132 0 -305 89q-137 71 -149 94l90 107q207 -183 364 -183q65 0 117 24.5t88 69.5t55.5 109t19.5 143q0 316 -266 316q-17 0 -42 -8t-51 -19.5t-48.5 -25t-33.5 -24.5
l-95 111q157 81 256 81q150 0 257.5 -89.5t156.5 -270.5q85 -42 135 -42q69 0 123 27v576h-1205v109h1578v-109zM333 -30h-201v164h201v-164z" />
    <glyph glyph-name="uni091F_uni093C.nukt" horiz-adv-x="1373" 
d="M1384 1297h-321v-420h-484q-50 0 -94.5 -19t-78 -52t-53.5 -77t-20 -94q0 -86 36.5 -164.5t98 -139.5t143 -97t170.5 -36q239 0 363 205l119 -70q-173 -254 -462 -254q-242 0 -423 168q-180 166 -180 397q0 73 27.5 137t75 111.5t111 75t135.5 27.5h377v302h-924v109
h1384v-109zM277 14h-201v163h201v-163z" />
    <glyph glyph-name="uni0920_uni093C.nukt" horiz-adv-x="1373" 
d="M1384 1297h-330v-405h-507q-48 0 -88 -20.5t-69.5 -55.5t-45.5 -81t-16 -97q0 -179 139 -311q66 -63 134.5 -92t143.5 -29q69 0 130 23.5t107 63.5t73 94t27 115q0 34 -11 71t-28.5 70t-38 58t-38.5 35l97 91q35 -23 63.5 -59t48.5 -79.5t31 -93t11 -99.5q0 -88 -35 -161
t-97.5 -125.5t-149.5 -82t-190 -29.5q-222 0 -388 159q-171 162 -171 387q0 81 28.5 147.5t79 114.5t120.5 74t153 26h346v291h-913v109h1384v-109zM277 14h-201v163h201v-163z" />
    <glyph glyph-name="uni0923_uni093C.nukt" horiz-adv-x="1554" 
d="M1578 1297h-228v-1297h-145v1297h-307v-519q0 -77 -22 -139.5t-63 -106.5t-100 -68t-134 -24q-76 0 -138.5 24t-107 68t-69 104.5t-24.5 134.5v526h-240v109h1578v-109zM759 778v519h-378v-526q0 -106 49 -166.5t140 -60.5q189 0 189 234zM682 14h-200v163h200v-163z" />
    <glyph glyph-name="uni0924_uni093C.nukt" horiz-adv-x="1355" 
d="M1374 1297h-229v-1297h-143v883h-514q-192 0 -192 -153q0 -143 97 -300q19 -31 45.5 -66t56 -70.5t60 -68t55.5 -57.5t43 -40t24 -15l-90 -93q-15 0 -115 99q-63 63 -114 126t-91 128q-109 178 -109 343q0 62 18.5 111.5t52.5 84t82.5 53t108.5 18.5h582v314h-1002v109
h1374v-109zM277 14h-201v163h201v-163z" />
    <glyph glyph-name="uni0925_uni093C.nukt" horiz-adv-x="1475" 
d="M1491 1297h-228v-1297h-145v479q-188 -194 -464 -194q-202 0 -360 122q-110 84 -187 227q-54 99 -54 125q126 -43 226 -43q76 0 144.5 25.5t119.5 70t81 104.5t30 129q0 54 -20.5 103t-55 86.5t-80.5 60t-97 22.5q-39 0 -71.5 -11.5t-55.5 -32.5t-36 -49.5t-13 -62.5
q0 -27 12.5 -52.5t33.5 -44.5t48 -30.5t56 -11.5q16 0 31 3v-98q-321 0 -321 240q0 60 24 108.5t67 82.5t102 52.5t128 18.5q85 0 156 -29t123 -81t81 -123t29 -155q0 -230 -174 -348q-127 -88 -282 -88q-49 0 -62 10q10 -35 99 -96q128 -89 287 -89q284 0 455 236v631h-241
v109h614v-109zM476 14h-199v163h199v-163z" />
    <glyph glyph-name="uni0926_uni093C.nukt" horiz-adv-x="1364" 
d="M1379 1297h-305v-370h-524q-46 0 -84 -13t-65.5 -37t-42.5 -58t-15 -76q0 -91 27.5 -159t79 -113.5t125.5 -68t167 -22.5q55 0 108 9q-12 42 -12 84q0 148 145 148q29 0 54 -12t43 -32.5t28.5 -47t10.5 -55.5q0 -32 -12.5 -65t-30 -59.5t-37 -43t-33.5 -16.5
q0 -11 17 -47.5t43.5 -86t58.5 -104.5t62 -103h-175q0 9 -62 144q-18 39 -34.5 79t-29.5 82q-20 -2 -42 -3.5t-48 -1.5q-134 0 -241.5 31.5t-184 92t-120.5 148.5t-52 201q-1 4 -1 12v12q0 63 25 117.5t67 95t98 63.5t118 23h416v252h-921v109h1379v-109zM476 14h-199v163
h199v-163z" />
    <glyph glyph-name="uni0927_uni093C.nukt" horiz-adv-x="1326" 
d="M1344 1297h-228v-1297h-144v461q-50 -62 -135 -114q-72 -44 -149.5 -64t-162.5 -20q-75 0 -142.5 23t-118.5 63.5t-81 95.5t-30 119q0 37 11 75t29.5 71.5t43.5 60.5t53 42q-234 154 -234 345q0 277 283 277q52 0 98.5 -16.5t80.5 -46t54 -69.5t20 -86v-84h-121v84
q0 113 -127 113q-64 0 -103.5 -45.5t-39.5 -123.5q0 -199 183 -292q82 38 214 38q7 0 73 -6l65 -109q1 0 -9.5 1t-32.5 3q-21 2 -39 3.5t-34 1.5q-69 0 -128 -17t-102 -47.5t-67.5 -73t-24.5 -93.5q0 -45 17 -81.5t47 -62.5t72 -40t92 -14q154 0 300 108q93 68 145 143v674
h-278v109h650v-109zM364 14h-201v163h201v-163z" />
    <glyph glyph-name="glyph679" horiz-adv-x="1332" 
d="M1344 1297h-228v-1297h-144v821h-467v-257q-9 -34 -59 -34q-40 0 -161 135q-122 134 -122 178q0 90 105 90h704v364h-972v109h1344v-109zM464 30h-199v163h199v-163z" />
    <glyph glyph-name="uni092A_uni093C.nukt" horiz-adv-x="1203" 
d="M1227 1297h-228v-1297h-143v540q-124 -91 -255 -91q-88 0 -159 27.5t-121.5 77t-78 119t-27.5 154.5v470h-215v109h1227v-109zM856 709v588h-498v-496q0 -118 64.5 -183t175.5 -65q132 0 258 156zM476 14h-199v163h199v-163z" />
    <glyph glyph-name="uni092C_uni093C.nukt" horiz-adv-x="1203" 
d="M1227 1297h-228v-1297h-143v390q-121 -94 -277 -94q-89 0 -167 29.5t-136 81t-92 122t-34 151.5q0 84 31.5 155.5t86.5 123t130.5 80.5t162.5 29q14 0 41.5 -4t54.5 -9t47.5 -9.5t20.5 -5.5l26 -122q0 1 -18.5 6.5t-45 12t-56.5 11.5t-52 5q-141 0 -204 -70l481 -324v738
h-856v109h1227v-109zM801 494l-485 321q-31 -52 -31 -129q0 -64 23 -116t63.5 -89t97 -57.5t123.5 -20.5q28 0 62.5 10t65.5 24t53.5 29.5t27.5 27.5zM476 14h-199v163h199v-163z" />
    <glyph glyph-name="uni092D_uni093C.nukt" horiz-adv-x="1361" 
d="M1403 1297h-229v-1297h-144v644h-421v-204q0 -73 -56 -73q-43 0 -184 142t-141 191q0 11 8 22.5t19 21t23.5 15.5t20.5 6h169v444q0 127 -140 127q-57 0 -92 -39t-35 -102q0 -71 42 -141l-127 -1q-2 0 -8.5 15.5t-14 37.5t-13.5 45.5t-6 40.5q0 58 18.5 105t52.5 79.5
t83 50t111 17.5q55 0 104.5 -18t86 -50.5t58 -77t21.5 -97.5v-436h421v532h-300v109h673v-109zM577 14h-201v163h201v-163z" />
    <glyph glyph-name="uni092E_uni093C.nukt" horiz-adv-x="1320" 
d="M1344 1297h-228v-1297h-144v688h-481v-194q0 -62 -57 -62q-53 0 -173 127t-120 177q0 71 79 71h124v490h-344v109h1344v-109zM972 807v490h-481v-490h481zM476 14h-199v163h199v-163z" />
    <glyph glyph-name="uni0930_uni093C.nukt" horiz-adv-x="1083" 
d="M1116 1297h-273v-358q0 -59 -23.5 -107.5t-64 -83t-95 -53.5t-117.5 -19q-49 0 -89 15q40 -81 195 -282q15 -20 41.5 -51t57 -65.5t61.5 -69t56.5 -62.5t42 -45.5l16.5 -17.5l-103 -98q-5 5 -16 17.5t-25.5 28.5t-30.5 34t-30 34.5t-25 29.5t-16 18q-81 96 -148 180.5
t-121 162.5q-185 268 -276 448l110 81l109 -191q7 -12 24 -23.5t39 -21t47.5 -15t48.5 -5.5q189 0 189 175v344h-700v109h1116v-109zM435 30h-200v163h200v-163z" />
    <glyph glyph-name="glyph685" horiz-adv-x="1606" 
d="M1637 1297h-229v-1297h-143v822q-113 -29 -197 -114q-26 -26 -51.5 -62.5t-46.5 -73.5t-35 -69.5t-17 -48.5l-117 63q0 15 22.5 63.5t68.5 127.5q-12 30 -80 80q-96 69 -203 69q-60 0 -108.5 -19t-83.5 -54t-54 -83.5t-19 -108.5q0 -136 119 -261q85 -90 221 -162
q104 -56 123 -56l-68 -122q-25 0 -144 71q-158 92 -254 207q-136 160 -135 332q0 87 27.5 156.5t79 117.5t126 74t167.5 26q135 0 258 -84q76 -53 102 -90q16 13 43 34t64.5 42t85.5 40t106 30v350h-1265v109h1637v-109zM277 14h-201v163h201v-163z" />
    <glyph glyph-name="uni0935_uni093C.nukt" horiz-adv-x="1241" 
d="M1257 1297h-229v-1297h-142v424q-126 -108 -294 -108q-86 0 -161 29t-130 81t-86.5 122.5t-31.5 154.5q0 82 27.5 151t76.5 118.5t115.5 77t144.5 27.5q88 0 183 -37l29 -116q-86 42 -198 42q-233 0 -233 -275q0 -57 19 -106t52.5 -85t80 -56.5t101.5 -20.5
q154 0 305 160v714h-886v109h1257v-109zM476 14h-199v163h199v-163z" />
    <glyph glyph-name="glyph687" horiz-adv-x="1621" 
d="M1637 1297h-229v-1297h-143v1297h-452q143 -110 143 -316q0 -274 -228 -415q-149 -92 -274 -92l444 -381l-91 -99l-652 559l93 96l91 -76q216 0 338 104q131 113 131 248v19q-1 1 -1 4v1v-3q0 -7 -72 -53q-88 -58 -176 -58q-68 0 -126 21.5t-100 60t-66 91.5t-24 117
q0 105 79 172h-322v109h1637v-109zM792 1096q0 33 -50 104q-72 102 -181 102q-82 0 -128 -47t-46 -125q0 -36 15 -69.5t40.5 -58.5t59 -40t71.5 -15q97 0 168 72q51 52 51 77zM343 14h-199v163h199v-163z" />
    <glyph glyph-name="uni0937_uni093C.nukt" horiz-adv-x="1232" 
d="M1257 1297h-229v-1297h-142v499q-137 -90 -271 -90q-81 0 -152.5 27.5t-125.5 74.5t-85.5 111t-31.5 137v538h-220v109h1257v-109zM886 766v531h-496zM877 629l-510 552v-428q0 -54 18 -97.5t51.5 -73.5t80.5 -46.5t104 -16.5q37 0 78.5 11t78 27.5t63.5 35.5t36 36z
M476 14h-199v163h199v-163z" />
    <glyph glyph-name="uni0938_uni093C.nukt" horiz-adv-x="1574" 
d="M1608 1297h-229v-1297h-144v708h-349l-94 113h443v476h-476v-358q0 -113 -14 -160q-20 -64 -73.5 -99t-135.5 -35q-39 0 -73 12q23 -46 66 -111.5t106 -150.5q18 -25 45 -58.5t60.5 -72t72 -81t79.5 -85.5l-114 -98q-5 7 -23.5 30t-40 49t-40 49t-24.5 30
q-75 94 -138 179.5t-117 167.5q-71 106 -131.5 209.5t-113.5 209.5l113 71l81 -152q48 -90 152 -90q121 0 121 129q0 6 -0.5 16t-0.5 20q0 11 -0.5 20.5t-0.5 14.5v344h-615v109h1608v-109zM370 14h-201v163h201v-163z" />
    <glyph glyph-name="uni0939_uni093C.nukt" horiz-adv-x="1273" 
d="M1317 1297h-292v-356h-644q-51 0 -51 -38q0 -31 32 -85t106 -141q117 39 240 39q408 0 408 -282q0 -147 -135 -214l-104 76q92 45 92 144q0 166 -251 166q-84 0 -151.5 -18t-115 -52t-73.5 -82.5t-26 -109.5q0 -54 30.5 -102.5t89 -89.5t143 -73.5t191.5 -54.5
q117 -24 150 -24q11 0 13 3l-45 -94q-5 -3 -20 -3q-22 0 -64 6.5t-108 19.5q-207 42 -343 128q-183 115 -183 292q0 173 161 269q-184 184 -184 320q0 119 127 119h573v237h-883v109h1317v-109zM288 -161h-200v163h200v-163z" />
    <glyph glyph-name="glyph691" horiz-adv-x="1609" 
d="M1633 1297h-387v-285q13 0 37.5 -14t52.5 -36.5t54.5 -51t44.5 -56.5q65 -107 65 -253q0 -93 -25 -172.5t-71 -137t-111.5 -90t-145.5 -32.5q-239 0 -317 234q-15 -55 -45.5 -100.5t-72.5 -78.5t-93 -51t-108 -18q-75 0 -139.5 35t-112 95t-74.5 140t-27 170q0 84 28 159
t76.5 131t114.5 88.5t142 32.5q225 0 316 -214q0 8 13 31t32 49.5t40.5 51t39.5 36.5q76 49 145 52v285h-1105v109h1633v-109zM1350 595q0 303 -211 303q-113 0 -188 -145q-54 -104 -54 -148q0 -8 1 -10q-1 -2 -1 -9q0 -20 7.5 -50.5t20 -63.5t29 -64t33.5 -52
q33 -41 76 -60t95 -19q192 0 192 318zM773 595q0 56 -49 153q-75 148 -207 148q-48 0 -86 -23t-65 -63.5t-41.5 -96t-14.5 -121.5q0 -324 207 -324q132 0 207 162q49 104 49 165zM938 -74h-199v164h199v-164z" />
    <glyph glyph-name="glyph692" horiz-adv-x="1419" 
d="M1448 1297h-229v-1297h-144v789q-149 -70 -325 -70q-31 0 -70.5 5.5t-80.5 14.5t-81 19.5t-71 20t-50 17t-19 10.5q0 1 3 1q-203 -104 -203 -274q0 -221 246 -221q18 0 38 1.5t43 5.5q-2 17 -3.5 31t-1.5 26q0 141 121 141q147 0 147 -136q0 -84 -111 -133
q11 -16 20.5 -30.5t28 -36t51 -53.5t89.5 -83l-121 -87q-15 18 -35.5 41.5t-43.5 54.5t-47 70t-46 88q0 -1 -16 -3.5t-38.5 -5.5t-45.5 -5.5t-36 -2.5q-87 0 -157.5 24.5t-121 69.5t-78 109.5t-27.5 145.5q0 189 244 328q-24 8 -83 89q-76 106 -76 206q0 54 22 99.5
t60.5 78.5t90.5 51.5t112 18.5q68 0 124.5 -18.5t96.5 -52.5t62 -83t22 -109q0 -119 -104 -208q-18 -16 -36 -29t-33 -22t-25.5 -14t-14.5 -5q-2 0 -2 2q0 -3 23.5 -10t60.5 -14.5t83 -13t90 -5.5q185 0 325 77v387h-270v109h643v-109zM567 1161q0 141 -166 141
q-69 0 -106.5 -40.5t-37.5 -100.5q0 -106 64 -179q24 -28 39.5 -41.5t26.5 -13.5q30 0 92 50q88 72 88 184zM333 -74h-201v164h201v-164z" />
    <glyph glyph-name="glyph693" horiz-adv-x="1581" 
d="M1606 1297h-228v-1297h-145v953h-832q-36 0 -36 -30q0 -49 75 -145q87 -113 169 -113q24 0 60 9t73.5 19.5t72 19.5t57.5 9q37 0 68 -17.5t53.5 -47t34.5 -69t12 -83.5q0 -111 -70.5 -196.5t-205.5 -139.5q-77 -32 -101 -31l270 -214l-106 -82l-280 265h-87
q-49 0 -93.5 12t-78 33t-53.5 50.5t-20 65.5q0 22 9.5 41t25 33t36 22t42.5 8q56 0 136 -68q23 -20 37 -34.5t22 -24t11.5 -14t5.5 -4.5q17 0 52 8.5t75 22.5t78.5 32t63.5 37q95 72 95 178q0 48 -19.5 69t-57.5 21q-11 0 -39 -7.5t-62 -16.5t-68.5 -16.5t-56.5 -7.5
q-132 0 -259 144q-122 137 -122 256q0 55 40 88t101 33h872v229h-1227v109h1600v-109zM301 -149h-201v164h201v-164z" />
    <glyph glyph-name="glyph694" horiz-adv-x="1170" 
d="M1382 798q3 0 3 1q0 3 -11.5 8.5t-32.5 11.5t-51 10t-67 4q-48 0 -92.5 -25t-79 -64.5t-55.5 -88t-21 -94.5v-561h-140v409l-410 -308q53 -92 53 -133q0 -31 -46 -31q-25 0 -65 13t-78.5 33.5t-66 45t-27.5 47.5q0 41 71 82l251 155q-68 8 -126 41.5t-101 84.5
t-67.5 114.5t-24.5 132.5q0 78 30.5 145t82.5 116.5t121 78t147 28.5q60 0 129 -29v-121q-46 37 -116 37q-50 0 -95 -20t-79 -54t-54 -79.5t-20 -96.5q0 -58 19 -108.5t53.5 -88t82 -59t103.5 -21.5q153 0 233 207v676h-835v109h1204v-109h-229v-473q111 134 242 134
q27 0 56.5 -5.5t54 -13t40 -14.5t15.5 -9h-1v-118z" />
    <glyph glyph-name="glyph695" horiz-adv-x="1266" 
d="M1522 658l-496 -214q26 -70 26 -107q0 -27 -13.5 -32.5t-30.5 -5.5q-101 0 -209 122q-14 14 -14 32q0 42 72 83q1 1 141 42q143 41 146 41q-43 0 -112 51q-108 79 -108 229q0 58 24.5 106.5t68 83t102.5 54t127 19.5q64 0 127 -22l36 -108q-49 23 -146 23
q-44 0 -80 -13.5t-61.5 -37.5t-39.5 -57.5t-14 -73.5q0 -184 189 -184q118 0 265 90v-121zM1522 290q-61 -40 -212 -102q-239 -97 -433 -97q-488 0 -660 501q-7 20 -15.5 52t-17.5 68.5t-17 74t-14.5 69t-10.5 52.5t-4 25l119 62l28 -155q0 -3 13 -10.5t32 -15t40.5 -13.5
t38.5 -6q152 0 152 129v373h-561v109h1302v-109h-602v-379q0 -45 -20 -85.5t-54.5 -71.5t-82.5 -49t-103 -18q-105 0 -127 22q0 -38 40 -136q61 -152 166 -247q145 -132 358 -132q209 0 445 103q187 80 200 107v-121z" />
    <glyph glyph-name="glyph696" horiz-adv-x="786" 
d="M821 1297h-234v-668q0 -110 -62 -110q-64 0 -189 125q-124 124 -124 196q0 52 73 52h161v405h-446v109h821v-109zM1045 474l-522 -310q53 -92 53 -133q0 -31 -47 -31q-17 0 -41 6t-50.5 16t-52.5 24t-47 29t-34 31.5t-13 32.5q0 41 71 82l683 360v-107z" />
    <glyph glyph-name="glyph697" horiz-adv-x="891" 
d="M1136 505l-619 -366q53 -83 53 -120q0 -30 -47 -30q-25 0 -65 12.5t-78.5 32.5t-66.5 44.5t-28 48.5q0 42 71 83q10 0 150 70q145 72 142 72q-183 5 -274.5 75.5t-91.5 193.5q0 112 78 195q56 59 80 59q-42 0 -116 47q-109 70 -109 191q0 27 7 55t18.5 53.5t26 45.5
t29.5 30h-296v109h924v-109h-456q-14 0 -34 -15t-38 -39t-31 -54.5t-13 -60.5q0 -38 17.5 -71t45.5 -57.5t64 -38.5t74 -14h234l48 -98h-155q-47 0 -93 -17.5t-82.5 -48t-59 -71t-22.5 -86.5q0 -42 19.5 -75.5t54 -57.5t81.5 -37t102 -13q130 0 303 99q143 81 153 109v-146z
" />
    <glyph glyph-name="glyph698" horiz-adv-x="899" 
d="M933 1297h-933v109h933v-109zM1147 499q0 -3 -579 -346q53 -92 53 -133q0 -31 -47 -31q-25 0 -65 13t-78.5 33t-66 44.5t-27.5 47.5q0 42 71 83l251 131q-284 57 -284 308q0 198 206 278h-443v113h822v-113h-173q-63 0 -151 -70q-117 -92 -117 -228q0 -203 211 -203
q119 0 277 113q135 97 140 126v-166z" />
    <glyph glyph-name="glyph699" horiz-adv-x="1609" 
d="M1641 1293h-377v-194q60 -21 102 -47t68 -60t37.5 -77t11.5 -97q0 -355 -336 -548v-694h-137v285h-412q2 -14 3 -28.5t1 -28.5q0 -114 -69 -114q-19 0 -41.5 17t-42.5 44t-33.5 60.5t-13.5 66.5q0 105 89 105q5 0 9.5 -0.5t9.5 -1.5h500v226q-137 -49 -276 -49
q-93 0 -173.5 29.5t-140.5 81.5t-94.5 122.5t-34.5 152.5q0 45 7 81.5t24.5 68.5t46 62t72.5 62q-41 0 -130 65q-124 90 -124 219q0 34 5 61t17 49t32 41.5t50 39.5h-290v110h1640v-110zM1351 818q0 174 -155 174q-33 0 -60.5 -13.5t-46.5 -38t-29.5 -58.5t-10.5 -75
q0 -184 184 -305q17 8 37.5 39.5t38.5 76t30 97t12 103.5zM1140 426q-35 10 -111 111q-104 137 -104 281q0 218 200 275v200h-656q-19 -6 -44 -25t-47 -45t-37.5 -55t-15.5 -55q0 -44 22.5 -83.5t58.5 -69t81.5 -47t91.5 -17.5q12 0 34 2t43.5 4.5t37 5l15.5 2.5l57 -106
q-14 2 -29 3.5t-30 1.5q-59 0 -110.5 -18.5t-90 -52t-60.5 -80t-22 -102.5q0 -58 27.5 -110.5t73 -92.5t104.5 -63.5t123 -23.5q219 0 388 160zM1401 -939l-62 -62l-455 341l108 118z" />
    <glyph glyph-name="glyph700" horiz-adv-x="1116" 
d="M1149 1297h-1149v109h1149v-109zM1359 950l-390 -3q16 -11 35.5 -38.5t36 -62t28 -72t11.5 -68.5q0 -64 -25 -116t-70 -89t-107 -57.5t-136 -20.5q-182 0 -332 159q-108 115 -188 298q-59 134 -59 165l119 85q-1 -1 -1 -6q0 -26 48 -153q66 -176 156 -287
q124 -154 271 -154q180 0 180 164q0 100 -93 240q-81 120 -98 120l614 3v-107zM1359 437l-527 -329q54 -92 54 -132q0 -31 -47 -31q-25 0 -65 12.5t-78.5 32.5t-66.5 44.5t-28 48.5q0 42 71 82l687 379v-107z" />
    <glyph glyph-name="glyph701" horiz-adv-x="1206" 
d="M1463 401l-257 -249q54 -92 54 -134q0 -31 -47 -31q-17 0 -41 6t-50.5 16t-52.5 24t-47 29t-34 31.5t-13 32.5q0 42 71 83l417 335v-143zM1463 665l-96 -57q-113 -55 -234 -55q-20 0 -46.5 4t-60.5 4q-51 0 -51 -73q0 -169 -169 -274q-117 -74 -185 -73
q15 -11 42.5 -27.5t63 -36t78 -41t87.5 -42.5l-85 -101q-14 7 -56.5 31.5t-112.5 69.5q-31 20 -71 50t-91 74q-11 -2 -21 -3q-8 -1 -17 -1.5t-15 -0.5q-114 0 -179.5 39t-65.5 111q0 22 8.5 42.5t23 36t34 24.5t41.5 9q83 0 163 -69q63 -56 63 -72q163 18 243.5 91.5
t80.5 188.5q0 87 -76 87q-8 0 -35 -6.5t-60.5 -14.5t-67 -14.5t-52.5 -6.5q-121 0 -245 148q-113 135 -113 232q0 121 142 121h408v237h-736v109h1240v-109h-363v-350h-519q-17 -9 -17 -37q0 -26 22.5 -65t57 -76t77 -63t81.5 -26q37 0 66 6.5t55 14.5t51.5 14.5t55.5 6.5
q25 0 51 -10t47 -22t35 -22t16 -11q41 -16 95 -16q120 0 274 79q118 61 138 87v-142z" />
    <glyph glyph-name="glyph702" horiz-adv-x="1373" 
d="M1384 1297h-321v-307h-484q-49 0 -93.5 -19t-78.5 -52t-54 -77t-20 -93q0 -86 36.5 -164.5t98 -139.5t143 -97t170.5 -36q238 0 363 206l119 -71q-100 -148 -233 -208v-660h-137v285h-412q2 -13 3 -27t1 -28q0 -116 -70 -116q-19 0 -42 18t-42.5 45.5t-33 61t-13.5 64.5
q0 104 89 104q5 0 10 -0.5t10 -1.5h500v216q-25 -4 -47.5 -5.5t-44.5 -1.5q-242 0 -423 168q-180 166 -180 397q0 73 27.5 137t75 111.5t111 75t135.5 27.5h377v188h-924v109h1384v-109zM1262 -963l-62 -62l-456 340l110 118z" />
    <glyph glyph-name="glyph703" horiz-adv-x="1373" 
d="M1384 1297h-330v-337h-507q-48 0 -88 -20t-69.5 -54.5t-45.5 -80.5t-16 -97q0 -179 139 -311q66 -63 134.5 -92t143.5 -29q69 0 130 23.5t107 63.5t73 94t27 115q0 34 -11 71t-28.5 70t-38 58t-38.5 35l97 90q154 -103 154 -329q0 -218 -187 -327v-661h-137v285h-412
q2 -13 3 -27t1 -28q0 -116 -70 -116q-19 0 -42 18t-42.5 45.5t-33 61t-13.5 64.5q0 104 89 104q5 0 10 -0.5t10 -1.5h500v201q-37 -8 -73.5 -12.5t-74.5 -4.5q-221 0 -388 158q-171 162 -171 387q0 81 28.5 148t79.5 114.5t120.5 74t152.5 26.5h346v221h-913v109h1384v-109z
M1262 -963l-62 -62l-456 340l110 118z" />
    <glyph glyph-name="glyph704" horiz-adv-x="1475" 
d="M1497 1297h-293v-301h-553q-21 0 -21 -32q0 -53 85 -168q85 -114 157 -114q15 0 26 4q282 77 306 77q32 0 58 -16.5t44 -45.5t28 -69t10 -87q0 -289 -240 -368v-598h-138v285h-411q2 -13 3 -27t1 -28q0 -116 -70 -116q-19 0 -42 17.5t-42.5 45t-33 61t-13.5 65.5
q0 104 88 104q5 0 10 -0.5t10 -1.5h500v168q-4 -1 -9 -1h-10h-23q-178 0 -383 148q-147 105 -296 277q-118 136 -118 152l107 102q0 -9 25 -47t79 -107q126 -162 259 -269q179 -143 327 -143q135 0 207.5 70t72.5 205q-1 28 -3.5 47t-10 30t-21 15.5t-36.5 4.5
q-19 0 -113 -39q-92 -38 -148 -38q-134 0 -270 171q-126 157 -126 266t145 109h442v192h-1063v109h1497v-109zM1309 -963l-62 -62l-456 340l108 118z" />
    <glyph glyph-name="glyph705" horiz-adv-x="1355" 
d="M1379 1297h-331v-312h-487q-50 0 -93 -17.5t-75 -49.5t-50 -76.5t-18 -98.5q0 -188 117 -312q83 -89 217 -137q85 -30 119 -30q-17 9 -36 35t-35 61t-26 75.5t-10 79.5q0 55 21.5 102.5t58 82.5t85 55.5t103.5 20.5q59 0 110 -20.5t88.5 -57t58.5 -87t21 -110.5
q0 -223 -227 -307v-615h-137v285h-412q2 -13 3 -27t1 -28q0 -116 -70 -116q-19 0 -42 18t-42.5 45.5t-33 61t-13.5 64.5q0 104 88 104q5 0 10 -0.5t10 -1.5h501v179q-4 -1 -18 -1h-28q-237 0 -424 162q-200 171 -200 413q0 73 27 136.5t74 110t111 73t138 26.5h371v214h-904
v109h1379v-109zM1082 495q0 78 -36 122t-99 44q-32 0 -59.5 -12t-48 -33.5t-32.5 -51t-12 -63.5q0 -169 123 -218q35 0 64.5 18t51 47.5t34.5 67.5t14 79zM1262 -963l-62 -62l-456 340l110 118z" />
    <glyph glyph-name="glyph706" horiz-adv-x="758" 
d="M792 1297h-792v109h792v-109zM1018 616l-348 -137q54 -92 54 -132q0 -31 -47 -31q-25 0 -65 13t-78.5 33t-66 44.5t-27.5 47.5q0 41 71 82l507 187v-107zM1020 883h-532q-49 0 -92.5 -14t-76.5 -37.5t-52 -55.5t-19 -68q0 -156 77 -316q15 -31 36 -64.5t44.5 -66.5
t47 -62.5t43.5 -52t35 -36t20 -13.5l-90 -93q-6 0 -22.5 16t-40 43t-51 62.5t-55 74t-52 78t-41.5 74.5q-89 181 -89 342q0 61 25.5 113.5t68 91.5t98.5 61.5t118 22.5h600v-100z" />
    <glyph glyph-name="glyph707" horiz-adv-x="899" 
d="M1164 488l-736 -418q53 -92 53 -134q0 -30 -43 -30q-17 0 -42.5 7t-53 19t-55 27t-50 32t-36 33.5t-13.5 31.5q0 52 111 93l338 159q-5 -1 -10.5 -1.5t-13.5 -0.5q-122 0 -300 108q-109 65 -195 209q-65 109 -65 136l26.5 -2.5t63 -5t73.5 -4.5t58 -2q80 0 149.5 22
t120.5 61.5t80.5 94.5t29.5 122q0 54 -20.5 103t-55 86.5t-80.5 60t-97 22.5q-39 0 -71.5 -11.5t-55.5 -32.5t-36 -49.5t-13 -62.5q0 -27 12.5 -52.5t33.5 -44.5t48 -30.5t56 -11.5q16 0 31 3v-115q-324 0 -324 257q0 60 24.5 108.5t68 82.5t102.5 52.5t129 18.5
q83 0 154 -30.5t123.5 -83t82 -122t29.5 -148.5q0 -97 -35 -174t-100 -130t-157 -81.5t-206 -28.5h-19q-10 0 -13 1q147 -221 384 -221q137 0 271 63q38 18 81 46.5t79 57t60 51t24 28.5v-169z" />
    <glyph glyph-name="glyph708" horiz-adv-x="1237" 
d="M1370 1297h-325v-350h-528q-184 0 -184 -211q0 -72 30.5 -132.5t83.5 -104.5t123.5 -68.5t151.5 -24.5q21 0 50.5 3t67.5 8q38 227 155 227q130 0 130 -133q0 -73 -75 -136q-59 -50 -81 -50q6 -19 15.5 -55t24 -83t35.5 -101t50 -109q9 -18 19 -35.5t20 -34.5h-150
q-5 10 -15.5 36.5t-23 62t-25.5 75t-24 76.5t-18 67t-7 45l-442 -199q53 -92 53 -134q0 -30 -43 -30q-17 0 -42.5 7t-53 19t-55 27t-50 32t-36 33.5t-13.5 31.5q0 52 111 93l417 161h-15q-184 0 -334 105q-175 124 -175 321q0 72 19.5 131t55 100.5t85.5 64t111 22.5h441
v243h-904v109h1370v-109zM1335 -695l35 -62l-552 342l108 118z" />
    <glyph glyph-name="glyph709" horiz-adv-x="730" 
d="M765 1297h-71v109h71v-109zM978 511q0 -3 -643 -430q53 -92 53 -134q0 -30 -43 -30q-26 0 -68.5 15t-83 37.5t-69.5 48.5t-29 49q0 51 111 92l367 188q-35 -6 -69 -6q-72 0 -135.5 23.5t-111.5 64t-76 94.5t-28 115q0 162 137 231q-234 97 -234 289q0 277 283 277
q52 0 98.5 -16.5t80.5 -46t54 -69.5t20 -86v-84h-121v84q0 113 -127 113q-64 0 -103.5 -45.5t-39.5 -123.5q0 -200 183 -237q79 39 214 39q9 0 27 -1.5t46 -3.5l65 -109q1 0 -9.5 1t-32.5 3q-21 2 -39 3t-34 1q-74 0 -133.5 -14.5t-101.5 -42.5t-64.5 -67.5t-22.5 -88.5
q0 -45 17 -81.5t47 -62.5t72 -40t92 -14q119 0 236 57q34 16 71.5 42t69.5 52t53 47t21 27v-160z" />
    <glyph glyph-name="glyph710" horiz-adv-x="789" 
d="M827 1297h-827v109h827v-109zM1040 606l-507 -262l76 -143q9 -26 9 -37q0 -45 -63 -45q-12 0 -40.5 5t-65 15t-76 24.5t-72 33t-53.5 40.5t-21 48q0 54 75 110l673 282q0 9 -91 107q-103 112 -177 145q-36 17 -79.5 26t-96.5 8q-46 0 -92 -5.5t-92 -16.5l8 -196
q0 -12 -4 -23.5t-10.5 -21.5t-16.5 -16t-22 -6q-55 0 -149 114q-78 94 -77 94q-23 29 -23 55q0 32 36.5 59t98.5 46t143.5 29.5t170.5 10.5q148 0 214 -29q74 -34 205 -174q119 -128 119 -138v-139z" />
    <glyph glyph-name="glyph711" horiz-adv-x="634" 
d="M895 595l-578 -407q53 -92 53 -133q0 -34 -62 -34q-122 0 -205 80q-23 21 -23 47q0 58 109 119l338 201q-71 6 -129 37.5t-98.5 81.5t-62.5 115t-22 138v457h-215v109h668v-109h-310v-482q0 -117 62.5 -179.5t171.5 -62.5q147 0 303 177v-155z" />
    <glyph glyph-name="glyph712" horiz-adv-x="1150" 
d="M1353 830h1q0 1 -18.5 4t-45 6.5t-56.5 6t-53 2.5q-127 0 -225 -155v-694h-141v547l-481 -376q54 -92 54 -133q0 -34 -57 -34q-106 0 -191 82q-25 24 -25 51q0 56 91 113l295 199q-69 8 -124.5 36.5t-94.5 74t-60 106.5t-21 135v496h-201v109h1184v-109h-228v-437
q5 12 29 29.5t56.5 34t68 28t62.5 11.5q25 0 57 -4t59.5 -9.5t46.5 -10.5t19 -6h-1v-103zM815 765v532h-471v-519q0 -225 200 -225q53 0 102 19t86.5 49t60 68t22.5 76z" />
    <glyph glyph-name="glyph713" horiz-adv-x="634" 
d="M668 1297h-668v109h668v-109zM901 420q0 -3 -533 -300q53 -92 53 -133q0 -30 -44 -30q-27 0 -69 15t-82 37.5t-68.5 48.5t-28.5 48q0 52 111 93l265 115q-71 2 -135 34t-113 84t-78 120t-29 142q0 84 31 152.5t85.5 118t130 76.5t164.5 27q14 0 41.5 -4t54.5 -9
t47.5 -9.5t20.5 -5.5l26 -122q0 1 -18.5 7.5t-45 13t-56.5 12t-52 5.5q-144 0 -204 -73l491 -327l35 45v-181zM810 491l-494 324q-31 -49 -31 -129q0 -65 22 -117t62 -89t96.5 -57t126.5 -20q100 0 218 88z" />
    </font>
</defs>
</svg>
